/* XPM */
static char *close_prelight[] = {
/* columns rows colors chars-per-pixel */
"20 22 82 1 ",
"  c #2FA32FA32FA3",
". c #304C304C304C",
"X c #322632263226",
"o c #32E532E532E5",
"O c #37D137D137D1",
"+ c #3D183D183D18",
"@ c #3E7C3E7C3E7C",
"# c #41F641F641F6",
"$ c #440244024402",
"% c #4C2A4C2A4C2A",
"& c #4D1A4D1A4D1A",
"* c #4DF34DF34DF3",
"= c #4F224F224F22",
"- c #505250525052",
"; c #528552855285",
": c #554A554A554A",
"> c #565C565C565C",
", c #582B582B582B",
"< c #599A599A599A",
"1 c #5AD55AD55AD5",
"2 c #5B3D5B3D5B3D",
"3 c #5C405C405C40",
"4 c #5F5A5F5A5F5A",
"5 c #606A606A606A",
"6 c gray38",
"7 c #626062606260",
"8 c #636563656365",
"9 c #646164616461",
"0 c #656565656565",
"q c gray40",
"w c #676467646764",
"e c #686868686868",
"r c DimGray",
"t c #894389438943",
"y c #8A508A508A50",
"u c #8C058C058C05",
"i c #8CD28CD28CD2",
"p c #90A190A190A1",
"a c #93FC93FC93FC",
"s c #942094209420",
"d c #95B995B995B9",
"f c #972D972D972D",
"g c #9EC89EC89EC8",
"h c #A4C2A4C2A4C2",
"j c #AECFAECFAECF",
"k c #B1E1B1E1B1E1",
"l c #B76FB76FB76F",
"z c #BCBCBCBCBCBC",
"x c #C1C1C1C1C1C1",
"c c gray76",
"v c #C3C3C3C3C3C3",
"b c gray77",
"n c #C5C5C5C5C5C5",
"m c gray78",
"M c #C8C8C8C8C8C8",
"N c gray79",
"B c #CACACACACACA",
"V c #CC71CC71CC71",
"C c #CDCDCDCDCDCD",
"Z c #D0D0D0D0D0D0",
"A c LightGray",
"S c gray83",
"D c #D7D7D7D7D7D7",
"F c #D8D8D8D8D8D8",
"G c #DADADADADADA",
"H c gray86",
"J c #DC75DC75DC75",
"K c #DE2EDE2EDE2E",
"L c #DEB5DEB5DEB5",
"P c #DFDFDFDFDFDF",
"I c #E6E6E6E6E6E6",
"U c #E906E906E906",
"Y c #EAFEEAFEEAFE",
"T c gray92",
"R c #ECECECECECEC",
"E c #EDBBEDBBEDBB",
"W c #F4F9F4F9F4F9",
"Q c #F71EF71EF71E",
"! c #F96AF96AF96A",
"~ c #F9FEF9FEF9FE",
"^ c gray99",
"/ c gray100",
/* pixels */
"66666666666666666666",
"rrrrrrrrrrrrrrrrrrrr",
"eeeeeeeeeeeeeeeeeeee",
"eeeeeeeeeeeeeeeeeeee",
"eeeeeeeeeeeeeeeeeeee",
"wwwwww1;0ww8;3wwwwww",
"wwwww<p!<ww<~u3wwwww",
"wwww,s/^W<<Q~/i2wwww",
"qqqq&JWYRUYEITV-qqqq",
"qqqq5.kLGPLFGhX9qqqq",
"qqqqq7ogZCCCfOqqqqqq",
"000008:lBMmMj>000000",
"00004,EDNmmmAK>80000",
"0000%RHMbadnbSK-0000",
"9999:$xvaoXdcz#,9999",
"99999%@t.77 y+=99999",
"999999*X5994X=999999",
"88888888888888888888",
"88888888888888888888",
"88888888888888888888",
"77777777777777777777",
"77777777777777777777"
};
