/* XPM */
static char *hide_inactive[] = {
/* columns rows colors chars-per-pixel */
"20 22 16 1 ",
"  c #295629562956",
". c #4A5B4A5B4A5B",
"X c #4B324B324B32",
"o c #4BF24BF24BF2",
"O c #524C524C524C",
"+ c gray38",
"@ c #626262626262",
"# c #636663666366",
"$ c #646964696469",
"% c #656565656565",
"& c gray40",
"* c #676767676767",
"= c #686868686868",
"- c DimGray",
"; c #939393939393",
": c gray78",
/* pixels */
"++++++++++++++++++++",
"--------------------",
"====================",
"====================",
"====================",
"********************",
"********************",
"********************",
"&&&&&&&&&&&&&&&&&&&&",
"&&&&&&&&&&&&&&&&&&&&",
"&&&&&&&&&&&&&&&&&&&&",
"%%%%%%%%%%%%%%%%%%%%",
"%%%%Oooo....oooO%%%%",
"%%%$o::::::::::o$%%%",
"$$$#X::::::::::X#$$$",
"$$$#X;;;;;;;;;;X#$$$",
"$$$$O          O$$$$",
"####################",
"####################",
"####################",
"@@@@@@@@@@@@@@@@@@@@",
"@@@@@@@@@@@@@@@@@@@@"
};
