/* XPM */
static char *menu_pressed[] = {
/* columns rows colors chars-per-pixel */
"20 22 35 1 ",
"  c gray38",
". c #626262626262",
"X c gray39",
"o c #646464646464",
"O c #656565656565",
"+ c gray40",
"@ c #676767676767",
"# c #686768676867",
"$ c DimGray",
"% c #6A036A036A03",
"& c #6DE26DE26DE2",
"* c #748D748D748D",
"= c #783078307830",
"- c #59F37C159730",
"; c #59BF7DE398FF",
": c #52528A8AB5B5",
"> c #5C5C9292BCBC",
", c #66669B9BC3C3",
"< c #6F08A039C55E",
"1 c #7675A1A0C3C2",
"2 c #78ABA5D8C7FA",
"3 c #7FB2A7DAC6F9",
"4 c #7171A4A4CBCB",
"5 c #77A7A8D7CCFC",
"6 c #86BD86BD86BD",
"7 c #8A608A608A60",
"8 c #A5A9A5A9A5A9",
"9 c #AFE2B0E3B1E4",
"0 c #B2B2B4B4B5B5",
"q c #BAEDBDF0C0F3",
"w c #BCBBC3C3C8C8",
"e c #C013C81BCE21",
"r c #AB91C5ABD9BF",
"t c #B8F0C900D50C",
"y c #BF5CCD6AD774",
/* pixels */
"                    ",
"$$$$$$$$$$$$$$$$$$$$",
"####################",
"####################",
"####################",
"@@@@@@@@@@@@@@@@@@@@",
"@@@@@@@@@@@@@@@@@@@@",
"@@@@@@@@@@@@@@@@@@@@",
"++++++;::::::-++++++",
"++++++01>>>>39++++++",
"++++++%w<,,2q#++++++",
"OOOOOOO*t45e&OOOOOOO",
"OOOOOOOO7ry=OOOOOOOO",
"OOOOOOOOO86OOOOOOOOO",
"oooooooooooooooooooo",
"oooooooooooooooooooo",
"oooooooooooooooooooo",
"XXXXXXXXXXXXXXXXXXXX",
"XXXXXXXXXXXXXXXXXXXX",
"XXXXXXXXXXXXXXXXXXXX",
"....................",
"...................."
};
