/* XPM */
static char *stick_prelight[] = {
/* columns rows colors chars-per-pixel */
"20 22 89 1 ",
"  c #285A285A285A",
". c #295C295C295C",
"X c #2EA22EA22EA2",
"o c #2F502F502F50",
"O c #314431443144",
"+ c gray22",
"@ c gray26",
"# c #43E043E043E0",
"$ c #462846284628",
"% c #472747274727",
"& c #496049604960",
"* c #4ACD4ACD4ACD",
"= c #4C9E4C9E4C9E",
"- c #4D794D794D79",
"; c #4EBB4EBB4EBB",
": c #4F054F054F05",
"> c #505C505C505C",
", c #518351835183",
"< c #51E951E951E9",
"1 c #535353535353",
"2 c #541D541D541D",
"3 c #592D592D592D",
"4 c #5A6E5A6E5A6E",
"5 c #5B745B745B74",
"6 c #5C305C305C30",
"7 c #5D335D335D33",
"8 c #5E135E135E13",
"9 c #5F085F085F08",
"0 c #607260726072",
"q c #615F615F615F",
"w c #626262626262",
"e c #636563656365",
"r c #646464646464",
"t c #656565656565",
"y c gray40",
"u c #676867686768",
"i c #686868686868",
"p c #696469646964",
"a c #6A4C6A4C6A4C",
"s c #6C0E6C0E6C0E",
"d c #71CF71CF71CF",
"f c #762176217621",
"g c #7FE67FE67FE6",
"h c #835683568356",
"j c #8D818D818D81",
"k c #929392939293",
"l c #9B629B629B62",
"z c #A12DA12DA12D",
"x c #A45CA45CA45C",
"c c #A750A750A750",
"v c #AB11AB11AB11",
"b c #AF88AF88AF88",
"n c #B4B4B4B4B4B4",
"m c #B7B7B7B7B7B7",
"M c #BDF9BDF9BDF9",
"N c #C1C1C1C1C1C1",
"B c #C3C3C3C3C3C3",
"V c gray77",
"C c #C5EFC5EFC5EF",
"Z c #C6C6C6C6C6C6",
"A c #C7DDC7DDC7DD",
"S c #C8C8C8C8C8C8",
"D c gray79",
"F c #CACACACACACA",
"G c #CBA9CBA9CBA9",
"H c gray80",
"J c #CDCDCDCDCDCD",
"K c #CECECECECECE",
"L c gray81",
"P c #D2D2D2D2D2D2",
"I c #D3C2D3C2D3C2",
"U c #D5D5D5D5D5D5",
"Y c #D7D7D7D7D7D7",
"T c #D8D8D8D8D8D8",
"R c gray87",
"E c #E040E040E040",
"W c gray89",
"Q c gray90",
"! c #E7E7E7E7E7E7",
"~ c #EAEAEAEAEAEA",
"^ c gray92",
"/ c gray95",
"( c #F3F3F3F3F3F3",
") c gray96",
"_ c #F8B9F8B9F8B9",
"` c #F9F9F9F9F9F9",
"' c gray98",
"] c #FDFDFDFDFDFD",
"[ c gray100",
/* pixels */
"qqqqqqqqqqqqqqqqqqqq",
"pppppppppppppppppppp",
"iiiiiiiiiiiiw6iii>ii",
"iiiiiiiiiiii:x37gE[i",
"iiiiiiiiiiiu7[vA[`']",
"uuuuuuuuuuuwh!(^RRW ",
"uuuuuuuuuuu8lTKGAeXu",
"uuuuuuuuuuu3bJVCGu>u",
"yyyyyyyyyyy1CDBVF~aq",
"yyyyyyyyyyy=Zkp*o @y",
"yyyyyyyyyyy1.+%2wyyy",
"ttttttt0526ttttttttt",
"tte<-fcI_[,ttttttttt",
"tt9s[[[)/M3ttttttttt",
"rrr*%TTUYj0rrrrrrrrr",
"rr=pzIKJPdrrrrrrrrrr",
"r&[[QJHGL4rrrrrrrrrr",
"ee[HAN8>S%eeeeeeeeee",
"eeemnO%$#;eeeeeeeeee",
"eeeeO0ee=qeeeeeeeeee",
"wwwwwwwwwwwwwwwwwwww",
"wwwwwwwwwwwwwwwwwwww"
};
