/* XPM */
static char *stick_inactive[] = {
/* columns rows colors chars-per-pixel */
"20 22 82 1 ",
"  c #28C428C428C4",
". c #2A8A2A8A2A8A",
"X c #2AFC2AFC2AFC",
"o c #2BC52BC52BC5",
"O c #2DC72DC72DC7",
"+ c #330F330F330F",
"@ c #376637663766",
"# c #3F2D3F2D3F2D",
"$ c #427442744274",
"% c #434C434C434C",
"& c #480C480C480C",
"* c #48FD48FD48FD",
"= c #4ACD4ACD4ACD",
"- c #4BF94BF94BF9",
"; c #4D644D644D64",
": c #4E554E554E55",
"> c #4F424F424F42",
", c #4FD74FD74FD7",
"< c #511E511E511E",
"1 c #527252725272",
"2 c #531B531B531B",
"3 c #547E547E547E",
"4 c #558E558E558E",
"5 c #565156515651",
"6 c #572057205720",
"7 c #57E057E057E0",
"8 c #5A525A525A52",
"9 c #5B065B065B06",
"0 c #5C5B5C5B5C5B",
"q c #5E725E725E72",
"w c #5F735F735F73",
"e c #60A160A160A1",
"r c #616661666166",
"t c #626362636263",
"y c #636163616361",
"u c #646764676467",
"i c #656065606560",
"p c #666A666A666A",
"a c #676767676767",
"s c #686868686868",
"d c DimGray",
"f c #6EB56EB56EB5",
"g c #6FA26FA26FA2",
"h c #713C713C713C",
"j c #7AB07AB07AB0",
"k c #7FA77FA77FA7",
"l c #842F842F842F",
"z c #8AE68AE68AE6",
"x c #8B498B498B49",
"c c #8E378E378E37",
"v c #8F3B8F3B8F3B",
"b c #90C690C690C6",
"n c #94F494F494F4",
"m c #96A396A396A3",
"M c #9B7D9B7D9B7D",
"N c #9CEE9CEE9CEE",
"B c #9F9F9F9F9F9F",
"V c #A43FA43FA43F",
"C c #A7A7A7A7A7A7",
"Z c gray66",
"A c #AA22AA22AA22",
"S c #AA54AA54AA54",
"D c #AE8DAE8DAE8D",
"F c #B1B1B1B1B1B1",
"G c #B24BB24BB24B",
"H c #B381B381B381",
"J c #B668B668B668",
"K c #B9B9B9B9B9B9",
"L c #BBBBBBBBBBBB",
"P c #BCBCBCBCBCBC",
"I c #C2B6C2B6C2B6",
"U c #C5FDC5FDC5FD",
"Y c gray78",
"T c gray79",
"R c #CBD4CBD4CBD4",
"E c gray80",
"W c #CDCDCDCDCDCD",
"Q c #CF44CF44CF44",
"! c #D0D0D0D0D0D0",
"~ c #D167D167D167",
"^ c #D3FAD3FAD3FA",
"/ c #D5D5D5D5D5D5",
/* pixels */
"rrrrrrrrrrrrrrrrrrrr",
"dddddddddddddddddddd",
"sssssssssssse9pss;ss",
"ssssssssssss,l35hGRs",
"sssssssssssi3~vV^EYU",
"aaaaaaaaaaawgLRYPLLX",
"aaaaaaaaaaa9kFFFD0Xa",
"aaaaaaaaaaa5zCCCS9*r",
"ppppppppppp<nBBBBH8q",
"ppppppppppp;bf4# o%y",
"ppppppppppp1O@$;8upp",
"iiiiir072:4iiiiiiiii",
"iiy1-pxAII:iiiiiiiii",
"iiq6Q/!WTm1iiiiiiiii",
"uut&#JLLLj5uuuuuuuuu",
"uu=wxHFFFy9uuuuuuuuu",
"u=URKZCCC>wuuuuuuuuu",
"yyYBBM>%N$tyyyyyyyyy",
"yyyvc.%%@;yyyyyyyyyy",
"yyyy+8yt-qyyyyyyyyyy",
"tttttttttttttttttttt",
"tttttttttttttttttttt"
};
