/* XPM */
static char * title_thin_xpm[] = {
"2 22 9 1",
"1  c #616161",
"2  c #626262",
"3  c #636363",
"4 	c #646464",
"5 	c #656565",
"6 	c #666666",
"7 	c #676767",
"8 	c #686868",
"9 	c #696969",
"11",
"99",
"88",
"88",
"88",
"77",
"77",
"77",
"66",
"66",
"66",
"55",
"55",
"55",
"44",
"44",
"44",
"33",
"33",
"33",
"22",
"22"};
