/* XPM */
static char *close_pressed[] = {
/* columns rows colors chars-per-pixel */
"20 22 61 1 ",
"  c #16E416E416E4",
". c #1A201A201A20",
"X c #1AE61AE61AE6",
"o c #1C461C461C46",
"O c #1D201D201D20",
"+ c #225522552255",
"@ c #27E127E127E1",
"# c #298429842984",
"$ c #2A8D2A8D2A8D",
"% c #2C452C452C45",
"& c #2D952D952D95",
"* c #2E142E142E14",
"= c #2F102F102F10",
"- c #2FFC2FFC2FFC",
"; c #335F335F335F",
": c #345A345A345A",
"> c #350135013501",
", c #366036603660",
"< c #376B376B376B",
"1 c gray22",
"2 c #393A393A393A",
"3 c #3A3A3A3A3A3A",
"4 c #7CB97CB97CB9",
"5 c #7EDC7EDC7EDC",
"6 c #889788978897",
"7 c #928C928C928C",
"8 c #939B939B939B",
"9 c #94D094D094D0",
"0 c #980198019801",
"q c #997499749974",
"w c #9A3A9A3A9A3A",
"e c #9DD69DD69DD6",
"r c #A385A385A385",
"t c #A795A795A795",
"y c #BB7ABB7ABB7A",
"u c #C34EC34EC34E",
"i c #C8C8C8C8C8C8",
"p c gray79",
"a c #CBCBCBCBCBCB",
"s c #CDCDCDCDCDCD",
"d c gray81",
"f c gray82",
"g c #D2D2D2D2D2D2",
"h c LightGray",
"j c gray83",
"k c gray84",
"l c gainsboro",
"z c #DDDDDDDDDDDD",
"x c #E1E1E1E1E1E1",
"c c gray89",
"v c #E4E4E4E4E4E4",
"b c gray90",
"n c #E9E9E9E9E9E9",
"m c #EFBDEFBDEFBD",
"M c #F1F1F1F1F1F1",
"N c gray95",
"B c #F8FAF8FAF8FA",
"V c #F9F9F9F9F9F9",
"C c #FB10FB10FB10",
"Z c #FDFDFDFDFDFD",
"A c gray100",
/* pixels */
"33333333333333333333",
"33333333333333333333",
"33333333333333333333",
"33333333333333333333",
"33333333333333333333",
"333333:-3333=,333333",
"33333;6A,33<A4,33333",
"2222-8AAA>>AAA5:2222",
"2222#CAVBBCCMCv&2222",
"2222, unxbclxro22222",
"222222Owgsss6+222222",
"222222;yspipt;222222",
"2222,2Abfssszm>22222",
"2222#ANkd80fdvZ&2222",
"1111=<jhqOoefa=;1111",
"11111$%7X11.9@*11111",
"111111%X111<.&111111",
"11111111111111111111",
"11111111111111111111",
"11111111111111111111",
"11111111111111111111",
"11111111111111111111"
};
