/* XPM */
static char *close_prelight[] = {
/* columns rows colors chars-per-pixel */
"20 22 66 1 ",
"  c #1AE61AE61AE6",
". c #1C321C321C32",
"X c #1F311F311F31",
"o c #2A8D2A8D2A8D",
"O c #2B462B462B46",
"+ c #2C502C502C50",
"@ c #2D022D022D02",
"# c #2E782E782E78",
"$ c #2F592F592F59",
"% c #312631263126",
"& c #325E325E325E",
"* c #330F330F330F",
"= c #33F333F333F3",
"- c #353835383538",
"; c #361836183618",
": c #36FF36FF36FF",
"> c #383738373837",
", c #393639363936",
"< c #3A3A3A3A3A3A",
"1 c #764C764C764C",
"2 c #7B8C7B8C7B8C",
"3 c #7FA97FA97FA9",
"4 c #83B883B883B8",
"5 c #84F184F184F1",
"6 c #8DB78DB78DB7",
"7 c #8EA48EA48EA4",
"8 c #8F858F858F85",
"9 c #90B190B190B1",
"0 c #980D980D980D",
"q c #9E8F9E8F9E8F",
"w c #A918A918A918",
"e c #ADA1ADA1ADA1",
"r c #B2EEB2EEB2EE",
"t c #BCBCBCBCBCBC",
"y c #C1C1C1C1C1C1",
"u c gray76",
"i c #C3C3C3C3C3C3",
"p c gray77",
"a c #C5C5C5C5C5C5",
"s c gray78",
"d c #C8C8C8C8C8C8",
"f c gray79",
"g c #CACACACACACA",
"h c #CDCDCDCDCDCD",
"j c #D0D0D0D0D0D0",
"k c LightGray",
"l c gray83",
"z c #D7D7D7D7D7D7",
"x c #D8D8D8D8D8D8",
"c c #DADDDADDDADD",
"v c #DBF9DBF9DBF9",
"b c gray87",
"n c #DFDFDFDFDFDF",
"m c #E5D6E5D6E5D6",
"M c #E6E6E6E6E6E6",
"N c #E83CE83CE83C",
"B c #EAEAEAEAEAEA",
"V c #EC08EC08EC08",
"C c #ECECECECECEC",
"Z c gray93",
"A c #F2D1F2D1F2D1",
"S c #F522F522F522",
"D c #F7DBF7DBF7DB",
"F c #F9F9F9F9F9F9",
"G c gray99",
"H c gray100",
/* pixels */
"<<<<<<<<<<<<<<<<<<<<",
"<<<<<<<<<<<<<<<<<<<<",
"<<<<<<<<<<<<<<<<<<<<",
"<<<<<<<<<<<<<<<<<<<<",
"<<<<<<<<<<<<<<<<<<<<",
"<<<<<<*#,<<>#=<<<<<<",
"<<<<<&2D><<,D1=<<<<<",
",,,,%3HGA::SFH1&,,,,",
",,,,OvSBCmNZMVf@,,,,",
",,,,;.ebcnbxcq.>,,,,",
",,,,,:.0jhhh8X,,,,,,",
",,,,,>-rgdsdw*,,,,,,",
",,,,;,Vzfssskc->,,,,",
",,,,OCvdp68aplv@,,,,",
">>>>$;yi7..9ut&%>>>>",
">>>>>o$4 :: 5@+>>>>>",
">>>>>>O.;>>-.+>>>>>>",
">>>>>>>>>>>>>>>>>>>>",
">>>>>>>>>>>>>>>>>>>>",
">>>>>>>>>>>>>>>>>>>>",
">>>>>>>>>>>>>>>>>>>>",
">>>>>>>>>>>>>>>>>>>>"
};
