/* XPM */
static char *hide_pressed[] = {
/* columns rows colors chars-per-pixel */
"20 22 19 1 ",
"  c #0FE00FE00FE0",
". c #12BD12BD12BD",
"X c #152A152A152A",
"o c #294229422942",
"O c #29AB29AB29AB",
"+ c #2BFC2BFC2BFC",
"@ c #2D2A2D2A2D2A",
"# c #2E432E432E43",
"$ c #2EE62EE62EE6",
"% c #301F301F301F",
"& c #315E315E315E",
"* c gray22",
"= c #393939393939",
"- c #3A3A3A3A3A3A",
"; c #C3C3C3C3C3C3",
": c gray77",
"> c #D0D0D0D0D0D0",
", c #DDDDDDDDDDDD",
"< c gray100",
/* pixels */
"--------------------",
"--------------------",
"--------------------",
"--------------------",
"--------------------",
"--------------------",
"--------------------",
"====================",
"====================",
"====================",
"====================",
"====================",
"====#+$&%%%%&&$&====",
"====o<<<<<<<<<<@====",
"****O<<<<<<<<<<#****",
"****o,>;;::::;>@****",
"****@ .XXXXXXX.%****",
"********************",
"********************",
"********************",
"********************",
"********************"
};
