/* XPM */
static char *menu_active[] = {
/* columns rows colors chars-per-pixel */
"20 22 27 1 ",
"  c #255825582558",
". c #2C6B2C6B2C6B",
"X c #2D512D512D51",
"o c gray22",
"O c #393939393939",
"+ c #3A3A3A3A3A3A",
"@ c #3B903B903B90",
"# c #3DE63DE63DE6",
"$ c #442344234423",
"% c #4CB64CB64CB6",
"& c #516351635163",
"* c #641864186418",
"= c #68C568C568C5",
"- c #8B8C8B8C8B8C",
"; c #917F917F917F",
": c #96BD96BD96BD",
"> c #988698869886",
", c #996E996E996E",
"< c #9A6C9A6C9A6C",
"1 c #9CB19CB19CB1",
"2 c #9FAB9FAB9FAB",
"3 c #AA77AA77AA77",
"4 c #B224B224B224",
"5 c #B8B5B8B5B8B5",
"6 c #BAE4BAE4BAE4",
"7 c #BC79BC79BC79",
"8 c #BF7CBF7CBF7C",
/* pixels */
"++++++++++++++++++++",
"++++++++++++++++++++",
"++++++++++++++++++++",
"++++++++++++++++++++",
"++++++++++++++++++++",
"++++++++++++++++++++",
"++++++++++++++++++++",
"OOOOOOOOOOOOOOOOOOOO",
"OOOOOO.      XOOOOOO",
"OOOOOO1<----2,OOOOOO",
"OOOOOO#4:;;13@OOOOOO",
"OOOOOOO%7>15$OOOOOOO",
"OOOOOOOO=68&OOOOOOOO",
"OOOOOOOOO-*OOOOOOOOO",
"oooooooooooooooooooo",
"oooooooooooooooooooo",
"oooooooooooooooooooo",
"oooooooooooooooooooo",
"oooooooooooooooooooo",
"oooooooooooooooooooo",
"oooooooooooooooooooo",
"oooooooooooooooooooo"
};
