/* XPM */
static char *menu_prelight[] = {
/* columns rows colors chars-per-pixel */
"20 22 30 1 ",
"  c #1BE81BE81BE8",
". c #263E263E263E",
"X c #272427242724",
"o c gray22",
"O c #393939393939",
"+ c #3A3A3A3A3A3A",
"@ c #3B903B903B90",
"# c #3DE63DE63DE6",
"$ c #442344234423",
"% c #4CB64CB64CB6",
"& c #516351635163",
"* c #641864186418",
"= c #65DD65DD65DD",
"- c #68C568C568C5",
"; c #6FE86FE86FE8",
": c #769A769A769A",
"> c #7A2B7A2B7A2B",
", c #7C4C7C4C7C4C",
"< c #7F157F157F15",
"1 c #806A806A806A",
"2 c #83C583C583C5",
"3 c #8BDA8BDA8BDA",
"4 c #996E996E996E",
"5 c #9BE09BE09BE0",
"6 c #A93CA93CA93C",
"7 c #AAB5AAB5AAB5",
"8 c #AE75AE75AE75",
"9 c #B28AB28AB28A",
"0 c #B43EB43EB43E",
"q c #B8CAB8CAB8CA",
/* pixels */
"++++++++++++++++++++",
"++++++++++++++++++++",
"++++++++++++++++++++",
"++++++++++++++++++++",
"++++++++++++++++++++",
"++++++++++++++++++++",
"++++++++++++++++++++",
"OOOOOOOOOOOOOOOOOOOO",
"OOOOOO.      XOOOOOO",
"OOOOOO5,====24OOOOOO",
"OOOOOO#8:;;<6@OOOOOO",
"OOOOOOO%9>10$OOOOOOO",
"OOOOOOOO-7q&OOOOOOOO",
"OOOOOOOOO3*OOOOOOOOO",
"oooooooooooooooooooo",
"oooooooooooooooooooo",
"oooooooooooooooooooo",
"oooooooooooooooooooo",
"oooooooooooooooooooo",
"oooooooooooooooooooo",
"oooooooooooooooooooo",
"oooooooooooooooooooo"
};
