/* XPM */
static char *shade_pressed[] = {
/* columns rows colors chars-per-pixel */
"20 22 19 1 ",
"  c #102810281028",
". c #131313131313",
"X c #158B158B158B",
"o c #29FE29FE29FE",
"O c #2B282B282B28",
"+ c #2D362D362D36",
"@ c #2E1E2E1E2E1E",
"# c #2F0A2F0A2F0A",
"$ c #2FCD2FCD2FCD",
"% c #30F730F730F7",
"& c #323C323C323C",
"* c gray22",
"= c #393939393939",
"- c #3A3A3A3A3A3A",
"; c #C3C3C3C3C3C3",
": c gray77",
"> c #D0D0D0D0D0D0",
", c #DDDDDDDDDDDD",
"< c gray100",
/* pixels */
"--------------------",
"--------------------",
"--------------------",
"--------------------",
"----#+$&%%%%&&$&----",
"----o<<<<<<<<<<@----",
"----O<<<<<<<<<<$----",
"====o,>;;::::;>@====",
"====@ .XXXXXXX.%====",
"====================",
"====================",
"====================",
"====================",
"====================",
"********************",
"********************",
"********************",
"********************",
"********************",
"********************",
"********************",
"********************"
};
