/* XPM */
static char *shade_inactive[] = {
/* columns rows colors chars-per-pixel */
"20 22 9 1 ",
"  c #179017901790",
". c #2B4A2B4A2B4A",
"X c #2EAD2EAD2EAD",
"o c #2F7F2F7F2F7F",
"O c gray22",
"+ c #393739373937",
"@ c #3A363A363A36",
"# c #939393939393",
"$ c gray78",
/* pixels */
"@@@@@@@@@@@@@@@@@@@@",
"@@@@@@@@@@@@@@@@@@@@",
"@@@@@@@@@@@@@@@@@@@@",
"@@@@@@@@@@@@@@@@@@@@",
"@@@@o..........o@@@@",
"@@@@.$$$$$$$$$$.@@@@",
"@@@@.$$$$$$$$$$.@@@@",
"++++.##########.++++",
"++++X          X++++",
"++++++++++++++++++++",
"++++++++++++++++++++",
"++++++++++++++++++++",
"++++++++++++++++++++",
"++++++++++++++++++++",
"OOOOOOOOOOOOOOOOOOOO",
"OOOOOOOOOOOOOOOOOOOO",
"OOOOOOOOOOOOOOOOOOOO",
"OOOOOOOOOOOOOOOOOOOO",
"OOOOOOOOOOOOOOOOOOOO",
"OOOOOOOOOOOOOOOOOOOO",
"OOOOOOOOOOOOOOOOOOOO",
"OOOOOOOOOOOOOOOOOOOO"
};
