/* XPM */
static char *stick_active[] = {
/* columns rows colors chars-per-pixel */
"20 22 77 1 ",
"  c #194F194F194F",
". c #1CE21CE21CE2",
"X c #1EC31EC31EC3",
"o c #250725072507",
"O c #25EC25EC25EC",
"+ c #26EB26EB26EB",
"@ c #285E285E285E",
"# c #28A928A928A9",
"$ c #2B572B572B57",
"% c #2C2A2C2A2C2A",
"& c #2D622D622D62",
"* c #2E412E412E41",
"= c #2EF82EF82EF8",
"- c #303D303D303D",
"; c #319831983198",
": c #327B327B327B",
"> c #331333133313",
", c #344934493449",
"< c #353735373537",
"1 c #35F435F435F4",
"2 c #374737473747",
"3 c #383638363836",
"4 c #393939393939",
"5 c #3A3A3A3A3A3A",
"6 c #3D193D193D19",
"7 c #3FD63FD63FD6",
"8 c #431643164316",
"9 c #464646464646",
"0 c #4B814B814B81",
"q c #4D664D664D66",
"w c #4DD34DD34DD3",
"e c #53B453B453B4",
"r c #584358435843",
"t c #59FA59FA59FA",
"y c #5BA45BA45BA4",
"u c #5F4E5F4E5F4E",
"i c #607E607E607E",
"p c #643264326432",
"a c #7CB77CB77CB7",
"s c #7EB67EB67EB6",
"d c #892989298929",
"f c #8DE58DE58DE5",
"g c #90E090E090E0",
"h c #93DF93DF93DF",
"j c #A307A307A307",
"k c #A416A416A416",
"l c #A4E3A4E3A4E3",
"z c #A6C7A6C7A6C7",
"x c #A837A837A837",
"c c #ABEDABEDABED",
"v c #B2A9B2A9B2A9",
"b c #B33FB33FB33F",
"n c #B539B539B539",
"m c gray72",
"M c #B9B9B9B9B9B9",
"N c #BD23BD23BD23",
"B c #C1CBC1CBC1CB",
"V c gray76",
"C c #C68CC68CC68C",
"Z c #C9E7C9E7C9E7",
"A c #CBBFCBBFCBBF",
"S c #CE6BCE6BCE6B",
"D c #D3B0D3B0D3B0",
"F c gray83",
"G c #D5D5D5D5D5D5",
"H c #D83DD83DD83D",
"J c #DDD4DDD4DDD4",
"K c #DF00DF00DF00",
"L c #E1E1E1E1E1E1",
"P c gray89",
"I c #E4E4E4E4E4E4",
"U c gray90",
"Y c #E6E6E6E6E6E6",
"T c #E7B7E7B7E7B7",
"R c #EB12EB12EB12",
"E c #EC84EC84EC84",
"W c #EEEEEEEEEEEE",
/* pixels */
"55555555555555555555",
"55555555555555555555",
"5555555555551:455&55",
"555555555555%s=-pNK5",
"5555555555536RfcEULK",
"555555555551pFILGFFX",
"55555555555>aAAACiX5",
"44444444444-gBBBBt@1",
"44444444444&jmmmMZ0<",
"44444444444$kay7+ O2",
"44444444444* Xo$:344",
"444442,;=%-444444444",
"443**rdvDH%444444444",
"44<qTWRYPl=444444444",
"332@7SFFFs-333333333",
"33%whAAAAu>333333333",
"3%JIDVBBB8<333333333",
"33Lmmbe9n$3333333333",
"333xz#OO2$3333333333",
"3333.>33$<3333333333",
"33333333333333333333",
"33333333333333333333"
};
