/* XPM */
static char *stick_prelight[] = {
/* columns rows colors chars-per-pixel */
"20 22 84 1 ",
"  c #16CB16CB16CB",
". c #1A421A421A42",
"X c #1C001C001C00",
"o c #1E4E1E4E1E4E",
"O c #1F6B1F6B1F6B",
"+ c #204420442044",
"@ c #250725072507",
"# c #27D827D827D8",
"$ c #294A294A294A",
"% c #29DE29DE29DE",
"& c #2B052B052B05",
"* c #2C372C372C37",
"= c #2CFC2CFC2CFC",
"- c #2E572E572E57",
"; c #2F3D2F3D2F3D",
": c #317631763176",
"> c #327E327E327E",
", c #337F337F337F",
"< c #33F333F333F3",
"1 c #354E354E354E",
"2 c #365736573657",
"3 c #372637263726",
"4 c gray22",
"5 c #393939393939",
"6 c #3A393A393A39",
"7 c #3BEA3BEA3BEA",
"8 c #3DD23DD23DD2",
"9 c #415041504150",
"0 c #425142514251",
"q c #4C314C314C31",
"w c #509C509C509C",
"e c #512951295129",
"r c #548654865486",
"t c #584F584F584F",
"y c #5CD75CD75CD7",
"u c #5E715E715E71",
"i c #66E866E866E8",
"p c #6D036D036D03",
"a c #7FFE7FFE7FFE",
"s c #8B158B158B15",
"d c #8DF88DF88DF8",
"f c #929D929D929D",
"g c #96BC96BC96BC",
"h c #9AF39AF39AF3",
"j c #A507A507A507",
"k c #B4B4B4B4B4B4",
"l c #B7B7B7B7B7B7",
"z c #B8C7B8C7B8C7",
"x c #BD4CBD4CBD4C",
"c c #C1C1C1C1C1C1",
"v c #C2BBC2BBC2BB",
"b c #C3C3C3C3C3C3",
"n c gray77",
"m c #C5C5C5C5C5C5",
"M c #C6C6C6C6C6C6",
"N c #C7B9C7B9C7B9",
"B c #C8C8C8C8C8C8",
"V c gray79",
"C c #CB12CB12CB12",
"Z c #CBCBCBCBCBCB",
"A c gray80",
"S c #CDCDCDCDCDCD",
"D c #CECECECECECE",
"F c gray81",
"G c #D2D2D2D2D2D2",
"H c LightGray",
"J c #D5D5D5D5D5D5",
"K c #D7D7D7D7D7D7",
"L c #D8D8D8D8D8D8",
"P c #D9BBD9BBD9BB",
"I c gray87",
"U c gray89",
"Y c gray90",
"T c #E7E7E7E7E7E7",
"R c #EAEAEAEAEAEA",
"E c gray92",
"W c gray95",
"Q c #F3F3F3F3F3F3",
"! c gray96",
"~ c #F6A4F6A4F6A4",
"^ c #F9F9F9F9F9F9",
"/ c gray98",
"( c #FDFDFDFDFDFD",
") c gray100",
/* pixels */
"66666666666666666666",
"66666666666666666666",
"6666666666663,666=66",
"666666666666*f:<iP)6",
"6666666666668)hx)^/(",
"666666666663pTQEIIU ",
"666666666661sLDZNr.6",
"55555555555:jSnmCr*5",
"55555555555-vVbnCRw2",
"55555555555&Mdu7o @5",
"55555555555- O#;3555",
"55555552,;<555555555",
"554-*ygC~)-555555555",
"551t)))!Wz>555555555",
"444%3LLJKa1444444444",
"44&qgHDSGu4444444444",
"4%))YSAZF94444444444",
"44)ANce0B$4444444444",
"444lk+##2*4444444444",
"4444X244&34444444444",
"44444444444444444444",
"44444444444444444444"
};
