/* XPM */
static char *stick_inactive[] = {
/* columns rows colors chars-per-pixel */
"20 22 68 1 ",
"  c #170D170D170D",
". c #184A184A184A",
"X c #195819581958",
"o c #1CE21CE21CE2",
"O c #1EF81EF81EF8",
"+ c #250725072507",
"@ c #25DE25DE25DE",
"# c #27A327A327A3",
"$ c #285E285E285E",
"% c #29E329E329E3",
"& c #2B372B372B37",
"* c #2C502C502C50",
"= c #2D542D542D54",
"- c #2E612E612E61",
"; c #2F262F262F26",
": c #303D303D303D",
"> c #319831983198",
", c #327B327B327B",
"< c #331333133313",
"1 c #344934493449",
"2 c #352435243524",
"3 c #35F435F435F4",
"4 c #373637363736",
"5 c #383638363836",
"6 c #393939393939",
"7 c #3A3A3A3A3A3A",
"8 c #408740874087",
"9 c #421642164216",
"0 c #442E442E442E",
"q c #497849784978",
"w c #4D354D354D35",
"e c #4EC74EC74EC7",
"r c #505C505C505C",
"t c #585658565856",
"y c #66E966E966E9",
"u c #6D796D796D79",
"i c #701570157015",
"p c #79E879E879E8",
"a c #7E0B7E0B7E0B",
"s c #80C780C780C7",
"d c #8D9A8D9A8D9A",
"f c #8F348F348F34",
"g c #987A987A987A",
"h c #9AA49AA49AA4",
"j c #9C6C9C6C9C6C",
"k c #9F9D9F9D9F9D",
"l c #A7A7A7A7A7A7",
"z c #A8DCA8DCA8DC",
"x c #A96DA96DA96D",
"c c #ADD7ADD7ADD7",
"v c #B1B5B1B5B1B5",
"b c #B2C0B2C0B2C0",
"n c #B5B7B5B7B5B7",
"m c #B9B9B9B9B9B9",
"M c #BBBBBBBBBBBB",
"N c #BCBCBCBCBCBC",
"B c #BD81BD81BD81",
"V c #BFC6BFC6BFC6",
"C c #C4A6C4A6C4A6",
"Z c #C5C5C5C5C5C5",
"A c #C7DCC7DCC7DC",
"S c gray79",
"D c #CBCBCBCBCBCB",
"F c gray80",
"G c #CE04CE04CE04",
"H c #D105D105D105",
"J c #D39ED39ED39E",
"K c #D5D5D5D5D5D5",
/* pixels */
"77777777777777777777",
"77777777777777777777",
"7777777777773,677&77",
"777777777777*i;:tzA7",
"7777777777752HagJFAZ",
"777777777773tMDANMM.",
"77777777777<uvvvce.7",
"66666666666:alllxq$3",
"66666666666=dkkkkv82",
"66666666666&dyq; .@4",
"66666666666-XO+&,566",
"6666641>;*:666666666",
"665-&wpkBV*666666666",
"6628GKHGSf-666666666",
"554$;nMMMu:555555555",
"55%0sbvvvr<555555555",
"5%CDmzlll42555555555",
"55Akkh92j@5555555555",
"555fdX@@#&5555555555",
"5555o<55&25555555555",
"55555555555555555555",
"55555555555555555555"
};
