/* XPM */
static char *close_pressed[] = {
/* columns rows colors chars-per-pixel */
"20 22 76 1 ",
"  c #28F628F628F6",
". c #2E102E102E10",
"X c #2F3E2F3E2F3E",
"o c #300830083008",
"O c #329932993299",
"+ c #332E332E332E",
"@ c #343434343434",
"# c #34C134C134C1",
"$ c #374C374C374C",
"% c #3A203A203A20",
"& c #3D473D473D47",
"* c #426042604260",
"= c #499049904990",
"- c gray29",
"; c #4BFB4BFB4BFB",
": c #4EBD4EBD4EBD",
"> c #50B850B850B8",
", c #518151815181",
"< c #524852485248",
"1 c #545054505450",
"2 c #569456945694",
"3 c #572F572F572F",
"4 c #585658565856",
"5 c #596259625962",
"6 c #5A825A825A82",
"7 c #5B215B215B21",
"8 c #5D785D785D78",
"9 c #606960696069",
"0 c #615F615F615F",
"q c #626562656265",
"w c gray39",
"e c #646464646464",
"r c #656565656565",
"t c gray40",
"y c #676467646764",
"u c #686868686868",
"i c DimGray",
"p c #916291629162",
"a c #925792579257",
"s c #94C594C594C5",
"d c #955195519551",
"f c #976A976A976A",
"g c #993199319931",
"h c #9C529C529C52",
"j c #9D3B9D3B9D3B",
"k c #A085A085A085",
"l c #A5D9A5D9A5D9",
"z c #A8D5A8D5A8D5",
"x c #ADD1ADD1ADD1",
"c c #BF4ABF4ABF4A",
"v c #C4B9C4B9C4B9",
"b c #C8C8C8C8C8C8",
"n c gray79",
"m c #CBCBCBCBCBCB",
"M c #CDCDCDCDCDCD",
"N c gray81",
"B c gray82",
"V c #D2D2D2D2D2D2",
"C c LightGray",
"Z c gray83",
"A c gray84",
"S c gainsboro",
"D c #DDDDDDDDDDDD",
"F c #E1E1E1E1E1E1",
"G c gray89",
"H c #E4E4E4E4E4E4",
"J c gray90",
"K c #E9E9E9E9E9E9",
"L c #F1CBF1CBF1CB",
"P c gray95",
"I c #F8F8F8F8F8F8",
"U c #F9F9F9F9F9F9",
"Y c #FAE0FAE0FAE0",
"T c #FC62FC62FC62",
"R c #FDFDFDFDFDFD",
"E c gray100",
/* pixels */
"00000000000000000000",
"iiiiiiiiiiiiiiiiiiii",
"uuuuuuuuuuuuuuuuuuuu",
"uuuuuuuuuuuuuuuuuuuu",
"uuuuuuuuuuuuuuuuuuuu",
"yyyyyy81yyyy19yyyyyy",
"yyyyy7hE5yy5Ea9yyyyy",
"yyyy3lEEE66EEEs8yyyy",
"tttt-YEUIYTYLYH,tttt",
"tttt0 vKFJGSFzOttttt",
"tttttt@kVMMMp&tttttt",
"rrrrrr2cMnbnx7rrrrrr",
"rrrr94EJBMMMDL4rrrrr",
"rrrr=EPANgjBNHR>rrrr",
"eeee1*ZCj#+kBm&7eeee",
"eeeee;%doee.f$<eeeee",
"eeeeee:oeeeqX,eeeeee",
"wwwwwwwwwwwwwwwwwwww",
"wwwwwwwwwwwwwwwwwwww",
"wwwwwwwwwwwwwwwwwwww",
"qqqqqqqqqqqqqqqqqqqq",
"qqqqqqqqqqqqqqqqqqqq"
};
