/* XPM */
static char *close_inactive[] = {
/* columns rows colors chars-per-pixel */
"20 22 59 1 ",
"  c #30D130D130D1",
". c #31CB31CB31CB",
"X c #334233423342",
"o c #34C134C134C1",
"O c #365C365C365C",
"+ c #4B974B974B97",
"@ c #4CC54CC54CC5",
"# c gray30",
"$ c #4E9B4E9B4E9B",
"% c #4F864F864F86",
"& c #504A504A504A",
"* c #52C252C252C2",
"= c #55D355D355D3",
"- c #572F572F572F",
"; c #586658665866",
": c #5B565B565B56",
"> c #5D2A5D2A5D2A",
", c #5E3D5E3D5E3D",
"< c #5F2C5F2C5F2C",
"1 c #601A601A601A",
"2 c gray38",
"3 c #626262626262",
"4 c gray39",
"5 c #645764576457",
"6 c #656565656565",
"7 c gray40",
"8 c #675A675A675A",
"9 c #686868686868",
"0 c DimGray",
"q c #6A1F6A1F6A1F",
"w c #755275527552",
"e c #77C877C877C8",
"r c #78CE78CE78CE",
"t c #7A8E7A8E7A8E",
"y c #884188418841",
"u c #8C7D8C7D8C7D",
"i c #93D993D993D9",
"p c #98C598C598C5",
"a c #99A899A899A8",
"s c #9B9B9B9B9B9B",
"d c #9F359F359F35",
"f c #A0A0A0A0A0A0",
"g c #A7A7A7A7A7A7",
"h c #A86BA86BA86B",
"j c #A9DFA9DFA9DF",
"k c gray67",
"l c #AEAEAEAEAEAE",
"z c gray69",
"x c #B5B1B5B1B5B1",
"c c #B689B689B689",
"v c #BBBBBBBBBBBB",
"b c #C0C0C0C0C0C0",
"n c #C19BC19BC19B",
"m c #C31EC31EC31E",
"M c #C3C3C3C3C3C3",
"N c #C52AC52AC52A",
"B c gray78",
"V c #CDCDCDCDCDCD",
"C c #D2AFD2AFD2AF",
/* pixels */
"22222222222222222222",
"00000000000000000000",
"99999999999999999999",
"99999999999999999999",
"99999999999999999999",
"888888;&1881&;888888",
"88888-rm*11*mr-88888",
"8888;eCVN**NVCe;8888",
"7777%dMnBnnBnMd%7777",
"7777<.uvvbbvvu.<7777",
"77777>.yxxxxy.>77777",
"66666,#allllp@,66666",
"6666,%czggggzx$,6666",
"6666$hkffttffkj$6666",
"5555=Oisw  wsiO=5555",
"55555+Xq :: qX+55555",
"555555@o:55:o@555555",
"44444444444444444444",
"44444444444444444444",
"44444444444444444444",
"33333333333333333333",
"33333333333333333333"
};
