/* XPM */
static char *hide_prelight[] = {
/* columns rows colors chars-per-pixel */
"20 22 28 1 ",
"  c #236F236F236F",
". c #25CB25CB25CB",
"X c #27C327C327C3",
"o c #4A954A954A95",
"O c #4ACD4ACD4ACD",
"+ c #4CBE4CBE4CBE",
"@ c #4D8C4D8C4D8C",
"# c #4EBD4EBD4EBD",
"$ c #4F214F214F21",
"% c #513651365136",
"& c #524F524F524F",
"* c #544054405440",
"= c #551855185518",
"- c gray38",
"; c #626262626262",
": c gray39",
"> c #646464646464",
", c #656565656565",
"< c gray40",
"1 c #676767676767",
"2 c #686868686868",
"3 c DimGray",
"4 c gray72",
"5 c gray74",
"6 c #C3C3C3C3C3C3",
"7 c #F9F9F9F9F9F9",
"8 c #FEFEFEFEFEFE",
"9 c gray100",
/* pixels */
"--------------------",
"33333333333333333333",
"22222222222222222222",
"22222222222222222222",
"22222222222222222222",
"11111111111111111111",
"11111111111111111111",
"11111111111111111111",
"<<<<<<<<<<<<<<<<<<<<",
"<<<<<<<<<<<<<<<<<<<<",
"<<<<<<<<<<<<<<<<<<<<",
",,,,,,,,,,,,,,,,,,,,",
",,,,&+$%$$$$%%$=,,,,",
",,,,O9877777778@,,,,",
">>>>O9877777778#>>>>",
">>>>o6544444445@>>>>",
">>>>% .XXXXXXX.*>>>>",
"::::::::::::::::::::",
"::::::::::::::::::::",
"::::::::::::::::::::",
";;;;;;;;;;;;;;;;;;;;",
";;;;;;;;;;;;;;;;;;;;"
};
