/* XPM */
static char *maximize_active[] = {
/* columns rows colors chars-per-pixel */
"20 22 88 1 ",
"  c #2B0F2B0F2B0F",
". c #2C6F2C6F2C6F",
"X c #306530653065",
"o c #341734173417",
"O c #35C935C935C9",
"+ c #377337733773",
"@ c #3B503B503B50",
"# c #404F404F404F",
"$ c #417A417A417A",
"% c gray27",
"& c #46DD46DD46DD",
"* c #486C486C486C",
"= c #4A6A4A6A4A6A",
"- c #4B074B074B07",
"; c #4D894D894D89",
": c #4E584E584E58",
"> c #4F604F604F60",
", c #506850685068",
"< c #512851285128",
"1 c #51E951E951E9",
"2 c #543754375437",
"3 c #559F559F559F",
"4 c #574E574E574E",
"5 c #588258825882",
"6 c #592E592E592E",
"7 c #5A855A855A85",
"8 c #5BDA5BDA5BDA",
"9 c #5C705C705C70",
"0 c #5D795D795D79",
"q c #5EC55EC55EC5",
"w c #5F5E5F5E5F5E",
"e c #609660966096",
"r c #616561656165",
"t c #626162616261",
"y c gray39",
"u c #646864686468",
"i c #656065606560",
"p c #666266626662",
"a c #676467646764",
"s c #686668666866",
"d c DimGray",
"f c #6A786A786A78",
"g c #6CE56CE56CE5",
"h c #737873787378",
"j c #7AB37AB37AB3",
"k c #7B3A7B3A7B3A",
"l c #83C983C983C9",
"z c #8D088D088D08",
"x c #8D9E8D9E8D9E",
"c c #919D919D919D",
"v c #9BAA9BAA9BAA",
"b c #9CE59CE59CE5",
"n c #9DCE9DCE9DCE",
"m c #9F289F289F28",
"M c #A724A724A724",
"N c #A78FA78FA78F",
"B c #A865A865A865",
"V c #A9CCA9CCA9CC",
"C c #ACADACADACAD",
"Z c #B427B427B427",
"A c #B5C4B5C4B5C4",
"S c #B6EDB6EDB6ED",
"D c gray72",
"F c #B9B9B9B9B9B9",
"G c #BDF2BDF2BDF2",
"H c #C1C1C1C1C1C1",
"J c #C2D1C2D1C2D1",
"K c #C5C5C5C5C5C5",
"L c #C735C735C735",
"P c #CBD2CBD2CBD2",
"I c #CF29CF29CF29",
"U c LightGray",
"Y c gray83",
"T c #D5D5D5D5D5D5",
"R c #D949D949D949",
"E c #DB33DB33DB33",
"W c gray87",
"Q c #DF75DF75DF75",
"! c #E1E1E1E1E1E1",
"~ c #E2AFE2AFE2AF",
"^ c gray89",
"/ c #E4E4E4E4E4E4",
"( c gray90",
") c #E6E6E6E6E6E6",
"_ c #E8CDE8CDE8CD",
"` c #EB27EB27EB27",
"' c #ECDBECDBECDB",
"] c #EEEEEEEEEEEE",
/* pixels */
"rrrrrrrrrrrrrrrrrrrr",
"dddddddddddddddddddd",
"ssssssssssssssssssss",
"sssssssssssssuw73,5s",
"ssssssssssp2<hvGRE,s",
"aaaaaaaaaaei_]`)^C2a",
"aaaaaaaaaai=<IYYYz6a",
"aaaaaaaaaa>fmPPPPh0a",
"ppppppppp:Q/UJHHH9rp",
"pppppppppp!DDZr3A=ip",
"ppq6upp:pppBM@%%*>pp",
"ii;c12kK~iiio8iu;wii",
"it7`nS'(!Wiiiiiiiiii",
"i0jY/!TYYXiiiiiiiiii",
"u5xPPPLgXuuuuuuuuuuu",
"u2bHHHJf&quuuuuuuuuu",
"u>VDDDFPu9uuuuuuuuuu",
"y-Nla:+ $eyyyyyyyyyy",
"y,.O#-4ryyyyyyyyyyyy",
"yyyyyyyyyyyyyyyyyyyy",
"tttttttttttttttttttt",
"tttttttttttttttttttt"
};
