/* XPM */
static char *menu_active[] = {
/* columns rows colors chars-per-pixel */
"20 22 32 1 ",
"  c #407340734073",
". c #4DE74DE74DE7",
"X c #4F824F824F82",
"o c gray38",
"O c #626262626262",
"+ c gray39",
"@ c #646464646464",
"# c #656565656565",
"$ c gray40",
"% c #676767676767",
"& c #686768676867",
"* c DimGray",
"= c #6A036A036A03",
"- c #6DE26DE26DE2",
"; c #748D748D748D",
": c #783078307830",
"> c #86BD86BD86BD",
", c #8A608A608A60",
"< c #90F690F690F6",
"1 c #96FD96FD96FD",
"2 c #9C689C689C68",
"3 c #9DE49DE49DE4",
"4 c #A0A0A0A0A0A0",
"5 c #A245A245A245",
"6 c #A5DBA5DBA5DB",
"7 c #B049B049B049",
"8 c #B2E5B2E5B2E5",
"9 c #BC89BC89BC89",
"0 c #C1C6C1C6C1C6",
"q c #C5DFC5DFC5DF",
"w c #C659C659C659",
"e c #C95CC95CC95C",
/* pixels */
"oooooooooooooooooooo",
"********************",
"&&&&&&&&&&&&&&&&&&&&",
"&&&&&&&&&&&&&&&&&&&&",
"&&&&&&&&&&&&&&&&&&&&",
"%%%%%%%%%%%%%%%%%%%%",
"%%%%%%%%%%%%%%%%%%%%",
"%%%%%%%%%%%%%%%%%%%%",
"$$$$$$.      X$$$$$$",
"$$$$$$84<<<<67$$$$$$",
"$$$$$$=021159&$$$$$$",
"#######;w35q-#######",
"########,0e:########",
"#########6>#########",
"@@@@@@@@@@@@@@@@@@@@",
"@@@@@@@@@@@@@@@@@@@@",
"@@@@@@@@@@@@@@@@@@@@",
"++++++++++++++++++++",
"++++++++++++++++++++",
"++++++++++++++++++++",
"OOOOOOOOOOOOOOOOOOOO",
"OOOOOOOOOOOOOOOOOOOO"
};
