/* XPM */
static char *menu_prelight[] = {
/* columns rows colors chars-per-pixel */
"20 22 33 1 ",
"  c #2DFA2DFA2DFA",
". c #420F420F420F",
"X c #43AA43AA43AA",
"o c gray38",
"O c #626262626262",
"+ c gray39",
"@ c #646464646464",
"# c #656565656565",
"$ c gray40",
"% c #676767676767",
"& c #686768676867",
"* c DimGray",
"= c #6A036A036A03",
"- c #6DE26DE26DE2",
"; c gray45",
": c #748D748D748D",
"> c #783078307830",
", c #7AAD7AAD7AAD",
"< c #7DCE7DCE7DCE",
"1 c #80E780E780E7",
"2 c #838383838383",
"3 c #843A843A843A",
"4 c #86BD86BD86BD",
"5 c #88BB88BB88BB",
"6 c #8A608A608A60",
"7 c #A5A9A5A9A5A9",
"8 c #B09EB09EB09E",
"9 c #B17DB17DB17D",
"0 c #BB20BB20BB20",
"q c #BBB9BBB9BBB9",
"w c #BD56BD56BD56",
"e c #C10FC10FC10F",
"r c #C224C224C224",
/* pixels */
"oooooooooooooooooooo",
"********************",
"&&&&&&&&&&&&&&&&&&&&",
"&&&&&&&&&&&&&&&&&&&&",
"&&&&&&&&&&&&&&&&&&&&",
"%%%%%%%%%%%%%%%%%%%%",
"%%%%%%%%%%%%%%%%%%%%",
"%%%%%%%%%%%%%%%%%%%%",
"$$$$$$.      X$$$$$$",
"$$$$$$91****58$$$$$$",
"$$$$$$=w,;;20&$$$$$$",
"#######:q<3e-#######",
"########68r>########",
"#########74#########",
"@@@@@@@@@@@@@@@@@@@@",
"@@@@@@@@@@@@@@@@@@@@",
"@@@@@@@@@@@@@@@@@@@@",
"++++++++++++++++++++",
"++++++++++++++++++++",
"++++++++++++++++++++",
"OOOOOOOOOOOOOOOOOOOO",
"OOOOOOOOOOOOOOOOOOOO"
};
