/* XPM */
static char *shade_pressed[] = {
/* columns rows colors chars-per-pixel */
"20 22 28 1 ",
"  c #1CEA1CEA1CEA",
". c #222222222222",
"X c #268D268D268D",
"o c #4A9D4A9D4A9D",
"O c #4C3C4C3C4C3C",
"+ c #504050405040",
"@ c #511A511A511A",
"# c #52B952B952B9",
"$ c #532153215321",
"% c #545854585458",
"& c #556F556F556F",
"* c #579F579F579F",
"= c #585858585858",
"- c #5A135A135A13",
"; c gray38",
": c #626262626262",
"> c gray39",
", c #646464646464",
"< c #656565656565",
"1 c gray40",
"2 c #676767676767",
"3 c #686868686868",
"4 c DimGray",
"5 c #C3C3C3C3C3C3",
"6 c gray77",
"7 c #D0D0D0D0D0D0",
"8 c #DDDDDDDDDDDD",
"9 c gray100",
/* pixels */
";;;;;;;;;;;;;;;;;;;;",
"44444444444444444444",
"33333333333333333333",
"33333333333333333333",
"3333%+&-****--&-3333",
"2222o9999999999@2222",
"2222O9999999999&2222",
"2222O8755666657$2222",
"1111# .XXXXXXX.=1111",
"11111111111111111111",
"11111111111111111111",
"<<<<<<<<<<<<<<<<<<<<",
"<<<<<<<<<<<<<<<<<<<<",
"<<<<<<<<<<<<<<<<<<<<",
",,,,,,,,,,,,,,,,,,,,",
",,,,,,,,,,,,,,,,,,,,",
",,,,,,,,,,,,,,,,,,,,",
">>>>>>>>>>>>>>>>>>>>",
">>>>>>>>>>>>>>>>>>>>",
">>>>>>>>>>>>>>>>>>>>",
"::::::::::::::::::::",
"::::::::::::::::::::"
};
