/* XPM */
static char *stick_pressed[] = {
/* columns rows colors chars-per-pixel */
"20 22 85 1 ",
"  c #22F022F022F0",
". c #245824582458",
"X c #282528252825",
"o c #2AFC2AFC2AFC",
"O c #351F351F351F",
"+ c #370437043704",
"@ c #382038203820",
"# c #3C5C3C5C3C5C",
"$ c #3CE83CE83CE8",
"% c #42A942A942A9",
"& c #449A449A449A",
"* c #468C468C468C",
"= c gray29",
"- c #4B2E4B2E4B2E",
"; c #4D5B4D5B4D5B",
": c #4E794E794E79",
"> c #4F6E4F6E4F6E",
", c #518351835183",
"< c #52A152A152A1",
"1 c #531B531B531B",
"2 c #548854885488",
"3 c #570657065706",
"4 c #584658465846",
"5 c #59A559A559A5",
"6 c #59FC59FC59FC",
"7 c #5B3D5B3D5B3D",
"8 c #5C205C205C20",
"9 c #5CE55CE55CE5",
"0 c #5EA35EA35EA3",
"q c #5F085F085F08",
"w c #605D605D605D",
"e c #616361636163",
"r c #626262626262",
"t c #635F635F635F",
"y c #646464646464",
"u c #656565656565",
"i c #666866686668",
"p c #676767676767",
"a c #686468646864",
"s c DimGray",
"d c #6A656A656A65",
"f c #6F546F546F54",
"g c #70E370E370E3",
"h c #784B784B784B",
"j c #7B0C7B0C7B0C",
"k c #7DE47DE47DE4",
"l c #8CE28CE28CE2",
"z c #8E338E338E33",
"x c #A20DA20DA20D",
"c c #A563A563A563",
"v c #AA26AA26AA26",
"b c #B699B699B699",
"n c #B8FDB8FDB8FD",
"m c gray73",
"M c gray77",
"N c #C5BEC5BEC5BE",
"B c #C6C6C6C6C6C6",
"V c #C8C8C8C8C8C8",
"C c #CDCDCDCDCDCD",
"Z c gray81",
"A c #D0D0D0D0D0D0",
"S c #D2D2D2D2D2D2",
"D c #D3E9D3E9D3E9",
"F c gray83",
"G c gray84",
"H c #D8D8D8D8D8D8",
"J c gray85",
"K c #DADADADADADA",
"L c #DB91DB91DB91",
"P c gainsboro",
"I c #DDDDDDDDDDDD",
"U c gray87",
"Y c #DFDFDFDFDFDF",
"T c gray88",
"R c gray89",
"E c gray90",
"W c #E7E7E7E7E7E7",
"Q c gray91",
"! c #E9E9E9E9E9E9",
"~ c #EB62EB62EB62",
"^ c #EFF1EFF1EFF1",
"/ c gray96",
"( c #F9F9F9F9F9F9",
") c #FDFDFDFDFDFD",
"_ c gray100",
/* pixels */
"eeeeeeeeeeeeeeeeeeee",
"ssssssssssssssssssss",
"aaaaaaaaaaaaieaaa8aa",
"aaaaaaaaaaaa>beak^_a",
"aaaaaaaaaaaa9_nL____",
"pppppppppppyl)_/Q!^o",
"pppppppppppwvEZVN3Op",
"ppppppppppp7NJBVSt7p",
"iiiiiiiiiii2WPZSU_fi",
"iiiiiiiiiii-Rcd&..%i",
"iiiiiiiiiii2 +=6iiii",
"uuuuuuuut4wuuuuuuuuu",
"uuy,;jb~__1uuuuuuuuu",
"uuqh_____D0uuuuuuuuu",
"yyy:#TKFHzyyyyyyyyyy",
"yy:axHACJgyyyyyyyyyy",
"y&__(JHGY5yyyyyyyyyy",
"tt_RHZ6-I*tttttttttt",
"tttMmX:;$<tttttttttt",
"tttt@ttt<ttttttttttt",
"rrrrrrrrrrrrrrrrrrrr",
"rrrrrrrrrrrrrrrrrrrr"
};
