/* XPM */
static char * top_left_xpm[] = {
"4 22 19 1",
".	c None",
"#  c #585858",
"~  c #595959",
"A  c #5a5a5a",
"B  c #5b5b5b",
"C  c #5c5c5c",
"D  c #5d5d5d",
"E  c #5e5e5e",
"F  c #5f5f5f",
"0  c #606060",
"1  c #616161",
"2  c #626262",
"3  c #636363",
"4  c #646464",
"5  c #656565",
"6  c #666666",
"7  c #676767",
"8  c #686868",
"9  c #696969",
"..C1",
".#26",
"#188",
"#488",
"#888",
"#777",
"#777",
"#777",
"#666",
"#666",
"#666",
"#555",
"#555",
"#555",
"#444",
"#444",
"#444",
"#333",
"#333",
"#333",
"#222",
"#222"};
