/* XPM */
static const unsigned char * bottom_left_xpm[] = {
"22 16 3 1",
" 	c None",
"!	c #638DBD",
"#	c black",
"!                     ",
"!                     ",
"!                     ",
"!                     ",
"!                     ",
"!                     ",
"!                     ",
"!                     ",
"!                     ",
"!                     ",
"!                     ",
"!                     ",
"!!!!!!!!!!!!!!!!!!!!!!",
"!!!!!!!!!!!!!!!!!!!!!!",
" !!!!!!!!!!!!!!!!!!!!!",
"  !!!!!!!!!!!!!!!!!!!!"};