/* XPM */
static char *close_prelight[] = {
/* columns rows colors chars-per-pixel */
"20 22 84 1 ",
"  c #39A90D6D1153",
". c #565603030101",
"X c #575704040202",
"o c #5DD90CC70F09",
"O c #6272029C02C9",
"+ c #6372039C02C9",
"@ c #6BD20D0D0F20",
"# c #7F70069A04C8",
"$ c #690B0CB50FE6",
"% c #565533534208",
"& c #6BDB358D41C6",
"* c #6EC43502410E",
"= c #5FD054D26D72",
"- c #919109090505",
"; c #9A9A09090606",
": c #9B9B0A0A0606",
"> c #9E9E09090707",
", c #9F9F09090707",
"< c #838314140B0B",
"1 c #9F9F12120909",
"2 c #9F9F13130A0A",
"3 c #80DD11C015A6",
"4 c #A5A50B0B0707",
"5 c #A6A60B0B0808",
"6 c #AAAA0B0B0909",
"7 c #ABAB0B0B0909",
"8 c #ACAC0B0B0909",
"9 c #ADAD0B0B0909",
"0 c #AEAE0B0B0909",
"q c #AFAF0B0B0909",
"w c #ACAC0C0C0A0A",
"e c #AEAE0C0C0A0A",
"r c #BABA0D0D0909",
"t c #BBBB0D0D0909",
"y c #BBBB0D0D0A0A",
"u c #BBBB0E0E0A0A",
"i c #B8B819190909",
"p c #B8B819190A0A",
"a c #B7B73C3C3232",
"s c #B7B73D3D3232",
"d c #CDCD28281818",
"f c #CECE29291818",
"g c #A5A541413737",
"h c #DFDF46463A3A",
"j c #E3E349493D3D",
"k c #E3E34A4A3D3D",
"l c #E4E44A4A3E3E",
"z c #820548154D4C",
"x c #8BEC522B5BBC",
"c c #D6D65D5D5151",
"v c #DEDE62625858",
"b c #DEDE63635858",
"n c #5F9B70E491AA",
"m c #626B718091B8",
"M c #6381718091B8",
"N c #6C6C9696C3C3",
"B c #6D6D9696C4C4",
"V c #6D6D9797C4C4",
"C c #6E6E9797C4C4",
"Z c #6E6E9797C5C5",
"A c #6F009800C5FF",
"S c #6F6F9898C5C5",
"D c #70009900C5FF",
"F c #70709999C6C6",
"G c #71719999C6C6",
"H c #71719A9AC7C7",
"J c #72729A9AC7C7",
"K c #72729B9BC7C7",
"L c #73739B9BC8C8",
"P c #74749C9CC8C8",
"I c #74749C9CC9C9",
"U c #75759D9DC9C9",
"Y c #76769D9DCACA",
"T c #77779E9ECACA",
"R c #9EC9888E904E",
"E c #9CB29F0EB0F3",
"W c #9D03A16EB1B1",
"Q c #B790B230BC76",
"! c #B790B2F7BD3D",
"~ c #9FC0BADED94B",
"^ c #A06ABB88D94B",
"/ c #B377C941E12C",
"( c #C912D83EE944",
") c #E655ECA0F3B0",
/* pixels */
"TTTTTTTTTTTTTTTTTTTT",
"TTTTTTTTTTTTTTTTTTTT",
"YYYYYYYYYYYYYYYYYYYY",
"UUUUUUUUUUUUUUUUUUUU",
"UUUUUUUUUUUUUUUUUUUU",
"IIIIIIIIIIIIIIIIIIII",
"PPPPPPPPPPPPPPPPPPPP",
"LLLLLLn%  %nLLLLLLLL",
"LLLLL=.<gg<X=LLLLLLL",
"KKKKMOacbvcs+mKKKKKK",
"JJJJ*1hlkjjh2&JJJJJJ",
"HHHHopfffffdioHHHHHH",
"GGGG$qturtty0@GGGGGG",
"FFFFz;999ee9:zFFFFFF",
"FFFFE#6877w6#WFFFFFF",
"SSSS^R->45,-R^SSSSSS",
"SSSSD/Qx33x!/DSSSSSS",
"ZZZZZA~())(~AZZZZZZZ",
"CCCCCCCCCCCCCCCCCCCC",
"VVVVVVVVVVVVVVVVVVVV",
"BBBBBBBBBBBBBBBBBBBB",
"NNNNNNNNNNNNNNNNNNNN"
};
