/* XPM */
static char *close_pressed[] = {
/* columns rows colors chars-per-pixel */
"20 22 84 1 ",
"  c #39A90D6D1153",
". c #515102020202",
"X c #5B72039C02C9",
"o c #5DD90CC70FF8",
"O c #5DD90DB60FF8",
"+ c #6AE20C1D0F20",
"@ c #7F70049A03C8",
"# c #7F70059A04C8",
"$ c #686813130D0D",
"% c #696914140D0D",
"& c #69FA0DA40FE6",
"* c #7FF211C015A6",
"= c #6F6F2A2A2323",
"- c #70702B2B2424",
"; c #565533534208",
": c #6BDB358D41C6",
"> c #6C8E3502410E",
", c #5FD054D26D72",
"< c #8F8F08080505",
"1 c #909008080505",
"2 c #959509090707",
"3 c #969609090606",
"4 c #9E9E09090707",
"5 c #828211110B0B",
"6 c #919113130505",
"7 c #80DD11C015A6",
"8 c #A5A50B0B0808",
"9 c #A8A80B0B0808",
"0 c #AAAA0B0B0909",
"q c #ABAB0B0B0909",
"w c #ADAD0B0B0909",
"e c #AEAE0C0C0A0A",
"r c #B2B20D0D0909",
"t c #B3B30D0D0909",
"y c #BABA0D0D0909",
"u c #BABA0D0D0A0A",
"i c #BBBB0E0E0A0A",
"p c #B3B321211515",
"a c #B4B422221515",
"s c #86862C2C2323",
"d c #92923E3E3535",
"f c #A8A834342929",
"g c #A8A834342A2A",
"h c #BDBD3C3C3131",
"j c #C4C424241818",
"k c #C5C525251818",
"l c #CACA26261818",
"z c #9D9D43433C3C",
"x c #C7C740403535",
"c c #C8C840403535",
"v c #820548154D4C",
"b c #853748154D4C",
"n c #8BEC522B5BBC",
"m c #5F9B70E491AA",
"M c #626B718091B8",
"N c #6381718091B8",
"B c #6C6C9696C3C3",
"V c #6D6D9696C4C4",
"C c #6D6D9797C4C4",
"Z c #6E6E9797C4C4",
"A c #6E6E9797C5C5",
"S c #6F009800C5FF",
"D c #6F6F9898C5C5",
"F c #70009900C5FF",
"G c #70709999C6C6",
"H c #71719999C6C6",
"J c #71719A9AC7C7",
"K c #72729A9AC7C7",
"L c #72729B9BC7C7",
"P c #73739B9BC8C8",
"I c #74749C9CC8C8",
"U c #74749C9CC9C9",
"Y c #75759D9DC9C9",
"T c #76769D9DCACA",
"R c #77779E9ECACA",
"E c #9EC9888E904E",
"W c #9CB29F0EB0F3",
"Q c #9D03A16EB1B1",
"! c #B790B230BC76",
"~ c #9FC0BADED94B",
"^ c #A06ABB88D94B",
"/ c #B377C941E12C",
"( c #C912D83EE944",
") c #E655ECA0F3B0",
/* pixels */
"RRRRRRRRRRRRRRRRRRRR",
"RRRRRRRRRRRRRRRRRRRR",
"TTTTTTTTTTTTTTTTTTTT",
"YYYYYYYYYYYYYYYYYYYY",
"YYYYYYYYYYYYYYYYYYYY",
"UUUUUUUUUUUUUUUUUUUU",
"IIIIIIIIIIIIIIIIIIII",
"PPPPPPm;  ;mPPPPPPPP",
"PPPPP,.$-=%.,PPPPPPP",
"LLLLNXsdzzdsXMLLLLLL",
"KKKK>5fhxchg5:KKKKKK",
"JJJJo6aklljp6OJJJJJJ",
"HHHH&3ryiyut2+HHHHHH",
"GGGGb10ewee01vGGGGGG",
"GGGGW@9qqqq9#QGGGGGG",
"DDDD^E<4884<E^DDDDDD",
"DDDDF/!n*7n!/FDDDDDD",
"AAAAAS~())(~SAAAAAAA",
"ZZZZZZZZZZZZZZZZZZZZ",
"CCCCCCCCCCCCCCCCCCCC",
"VVVVVVVVVVVVVVVVVVVV",
"BBBBBBBBBBBBBBBBBBBB"
};
