/* XPM */
static char *close_active[] = {
/* columns rows colors chars-per-pixel */
"20 22 92 1 ",
"  c #0E8C0D6D1153",
". c #343400000000",
"X c #353500000000",
"o c #4472019C01C9",
"O c #4572029C01C9",
"+ c #42CA0BD90F09",
"@ c #5CD40D0D0F20",
"# c #5B0C0CB50FE6",
"$ c #717104040303",
"% c #727204040202",
"& c #7F70099A05C8",
"* c #3D4732A6415A",
"= c #596A37374343",
"- c #58D137BF43F8",
"; c #7E064748507E",
": c #7E064815514B",
"> c #51A854D26D72",
", c #989809090606",
"< c #999910100B0B",
"1 c #9B9B10100B0B",
"2 c #82B211C015A6",
"3 c #AAAA1A1A1414",
"4 c #ABAB1B1B1414",
"5 c #B0B01D1D1B1B",
"6 c #B1B11F1F1B1B",
"7 c #9F9F37372E2E",
"8 c #9E9E38382F2F",
"9 c #B1B135352A2A",
"0 c #B2B235352A2A",
"q c #C3C32A2A2020",
"w c #C1C128282222",
"e c #C2C229292323",
"r c #C4C42B2B2121",
"t c #C5C52E2E2121",
"y c #C0C02A2A2424",
"u c #CACA2C2C2020",
"i c #CACA2C2C2121",
"p c #CACA2C2C2222",
"a c #CACA2D2D2222",
"s c #C8C82C2C2525",
"d c #C8C82D2D2525",
"f c #C9C92D2D2525",
"g c #D6D63A3A2F2F",
"h c #D7D73A3A3030",
"j c #D7D73B3B3030",
"k c #D8D83A3A3030",
"l c #D8D83C3C3030",
"z c #8CB6587F6210",
"x c #E6E64C4C4141",
"c c #E6E64D4D4141",
"v c #E8E850504343",
"b c #E8E850504444",
"n c #E9E950504545",
"m c #EDED5A5A4E4E",
"M c #EEEE5C5C4F4F",
"N c #DDDD65655A5A",
"B c #DCDC66665B5B",
"V c #F8F867675B5B",
"C c #FCFC6B6B6060",
"Z c #E8E870706666",
"A c #E9E971716666",
"S c #598B70E491AA",
"D c #5C71725191B8",
"F c #6C6C9696C3C3",
"G c #6D6D9696C4C4",
"H c #6D6D9797C4C4",
"J c #6E6E9797C4C4",
"K c #6E6E9797C5C5",
"L c #6F009800C5FF",
"P c #6F6F9898C5C5",
"I c #70009900C5FF",
"U c #70709999C6C6",
"Y c #71719999C6C6",
"T c #71719A9AC7C7",
"R c #72729A9AC7C7",
"E c #72729B9BC7C7",
"W c #73739B9BC8C8",
"Q c #74749C9CC8C8",
"! c #74749C9CC9C9",
"~ c #75759D9DC9C9",
"^ c #76769D9DCACA",
"/ c #77779E9ECACA",
"( c #9EC987CB904E",
") c #9EC9888E904E",
"_ c #9CB29F0EB0F3",
"` c #9D039F9FB1B1",
"' c #B790B2F7BD3D",
"] c #9FC0BADED94B",
"[ c #A06ABB88D94B",
"{ c #B377C941E12C",
"} c #C912D83EE944",
"| c #E655ECA0F3B0",
/* pixels */
"////////////////////",
"////////////////////",
"^^^^^^^^^^^^^^^^^^^^",
"~~~~~~~~~~~~~~~~~~~~",
"~~~~~~~~~~~~~~~~~~~~",
"!!!!!!!!!!!!!!!!!!!!",
"QQQQQQQQQQQQQQQQQQQQ",
"WWWWWWS*  *SWWWWWWWW",
"WWWWW>.%87$X>WWWWWWW",
"EEEEDO0NZAB9oDEEEEEE",
"RRRR=,mVCCVM,-RRRRRR",
"TTTT+txnvbvct+TTTTTT",
"YYYY#rllgkjhq@YYYYYY",
"UUUU:3ppaiup4;UUUUUU",
"UUUU_&wdfsse&`UUUUUU",
"PPPP[)15yy6<([PPPPPP",
"PPPPI{'z22z'{IPPPPPP",
"KKKKKL]}||}]LKKKKKKK",
"JJJJJJJJJJJJJJJJJJJJ",
"HHHHHHHHHHHHHHHHHHHH",
"GGGGGGGGGGGGGGGGGGGG",
"FFFFFFFFFFFFFFFFFFFF"
};
