/* XPM */
static char *hide_prelight[] = {
/* columns rows colors chars-per-pixel */
"20 22 85 1 ",
"  c #39A912031153",
". c #575722220303",
"X c #575723230303",
"o c #5DD92B920FF8",
"O c #62722B9C02C9",
"+ c #69FA38900FE6",
"@ c #6CC239171010",
"# c #7F70479A05C8",
"$ c #7F70489A05C8",
"% c #565542394208",
"& c #6BDB55C541C6",
"* c #6EC45623410E",
"= c #5FD0619B6D72",
"- c #91914F4F0808",
"; c #838350500D0D",
": c #9A9A53530909",
"> c #9A9A53530A0A",
", c #9F9F56560909",
"< c #9F9F57570A0A",
"1 c #9F9F5F5F0B0B",
"2 c #9F9F5F5F0C0C",
"3 c #80DD46F415A6",
"4 c #A6A65B5B0A0A",
"5 c #A7A75B5B0A0A",
"6 c #ABAB5D5D0B0B",
"7 c #AAAA5E5E0B0B",
"8 c #ACAC5D5D0B0B",
"9 c #ADAD5F5F0B0B",
"0 c #ABAB5E5E0C0C",
"q c #AEAE5F5F0C0C",
"w c #AFAF64640B0B",
"e c #AFAF64640C0C",
"r c #BABA6C6C0D0D",
"t c #BBBB6D6D0D0D",
"y c #B8B86F6F0D0D",
"u c #BBBB6D6D0E0E",
"i c #A5A577773838",
"p c #A6A677773838",
"a c #B7B77C7C3232",
"s c #82056B3F4D4C",
"d c #8BEC74315BBC",
"f c #8BEC74315EE6",
"g c #CDCD82821919",
"h c #CDCD82821A1A",
"j c #CECE82821A1A",
"k c #CECE83831A1A",
"l c #DFDF98983A3A",
"z c #E3E39B9B3D3D",
"x c #E4E49C9C3D3D",
"c c #E4E49C9C3E3E",
"v c #D6D69D9D5151",
"b c #DEDEA3A35656",
"n c #DEDEA3A35757",
"m c #5F9B73A591AA",
"M c #626B766491B8",
"N c #6381766491B8",
"B c #6C6C9696C3C3",
"V c #6D6D9696C4C4",
"C c #6D6D9797C4C4",
"Z c #6E6E9797C4C4",
"A c #6E6E9797C5C5",
"S c #6F009800C5FF",
"D c #6F6F9898C5C5",
"F c #70009900C5FF",
"G c #70709999C6C6",
"H c #71719999C6C6",
"J c #71719A9AC7C7",
"K c #72729A9AC7C7",
"L c #72729B9BC7C7",
"P c #73739B9BC8C8",
"I c #74749C9CC8C8",
"U c #74749C9CC9C9",
"Y c #75759D9DC9C9",
"T c #76769D9DCACA",
"R c #77779E9ECACA",
"E c #9EC997D4904E",
"W c #9EC997D49299",
"Q c #9CB2A6F0B0F3",
"! c #9D03A8A8B1B1",
"~ c #B6C9B9F1BC76",
"^ c #9FC0BADED94B",
"/ c #A06ABB88D94B",
"( c #B377C941E12C",
") c #C912D83EE944",
"_ c #E655ECA0F3B0",
/* pixels */
"RRRRRRRRRRRRRRRRRRRR",
"RRRRRRRRRRRRRRRRRRRR",
"TTTTTTTTTTTTTTTTTTTT",
"YYYYYYYYYYYYYYYYYYYY",
"YYYYYYYYYYYYYYYYYYYY",
"UUUUUUUUUUUUUUUUUUUU",
"IIIIIIIIIIIIIIIIIIII",
"PPPPPPm%  %mPPPPPPPP",
"PPPPP=.;pi;X=PPPPPPP",
"LLLLNOavnbvaOMLLLLLL",
"KKKK*2lcxzcl1&KKKKKK",
"JJJJoyhjhgkhyoJJJJJJ",
"HHHH+wttrrtue@HHHHHH",
"GGGGs>9999qq:sGGGGGG",
"GGGGQ#068887$!GGGGGG",
"DDDD/E-<54,-W/DDDDDD",
"DDDDF(~f33d~(FDDDDDD",
"AAAAAS^)__)^SAAAAAAA",
"ZZZZZZZZZZZZZZZZZZZZ",
"CCCCCCCCCCCCCCCCCCCC",
"VVVVVVVVVVVVVVVVVVVV",
"BBBBBBBBBBBBBBBBBBBB"
};
