/* XPM */
static char *hide_pressed[] = {
/* columns rows colors chars-per-pixel */
"20 22 90 1 ",
"  c #39A912031153",
". c #515122220202",
"X c #5B72299C02C9",
"o c #5DD92B920FF8",
"O c #6BD239170F20",
"+ c #69FA389010D5",
"@ c #686840400C0C",
"# c #686840400D0D",
"$ c #7F70469A05C8",
"% c #7FF246F415A6",
"& c #70704F4F2424",
"* c #707050502424",
"= c #565542394208",
"- c #6BDB55C541C6",
"; c #6EC45623410E",
": c #5FD0619B6D72",
"> c #8F8F4D4D0707",
", c #82824E4E0B0B",
"< c #90904E4E0808",
"1 c #919155550808",
"2 c #949454540808",
"3 c #969655550909",
"4 c #9F9F56560909",
"5 c #9F9F57570A0A",
"6 c #80DD46F415A6",
"7 c #A6A65A5A0909",
"8 c #A7A75B5B0A0A",
"9 c #A8A85D5D0909",
"0 c #A8A85D5D0A0A",
"q c #ABAB5D5D0B0B",
"w c #ACAC5D5D0B0B",
"e c #ADAD5F5F0B0B",
"r c #ABAB5D5D0C0C",
"t c #ACAC5D5D0C0C",
"y c #AEAE5F5F0C0C",
"u c #B3B367670D0D",
"i c #B3B368680D0D",
"p c #B9B96C6C0D0D",
"a c #BABA6C6C0D0D",
"s c #BABA6D6D0D0D",
"d c #BBBB6D6D0D0D",
"f c #B3B371711515",
"g c #B4B472721515",
"h c #86865B5B2424",
"j c #87875C5C2424",
"k c #92926A6A3535",
"l c #92926B6B3535",
"z c #9D9D73733B3B",
"x c #9E9E73733C3C",
"c c #A8A871712929",
"v c #A8A871712A2A",
"b c #C4C47C7C1818",
"n c #82056B3F4D4C",
"m c #8BEC74315BBC",
"M c #BDBD81813131",
"N c #BEBE81813232",
"B c #CACA80801818",
"V c #C7C788883535",
"C c #C8C888883535",
"Z c #5F9B73A591AA",
"A c #626B766491B8",
"S c #6381766491B8",
"D c #6C6C9696C3C3",
"F c #6D6D9696C4C4",
"G c #6D6D9797C4C4",
"H c #6E6E9797C4C4",
"J c #6E6E9797C5C5",
"K c #6F009800C5FF",
"L c #6F6F9898C5C5",
"P c #70009900C5FF",
"I c #70709999C6C6",
"U c #71719999C6C6",
"Y c #71719A9AC7C7",
"T c #72729A9AC7C7",
"R c #72729B9BC7C7",
"E c #73739B9BC8C8",
"W c #74749C9CC8C8",
"Q c #74749C9CC9C9",
"! c #75759D9DC9C9",
"~ c #76769D9DCACA",
"^ c #77779E9ECACA",
"/ c #9EC997D4904E",
"( c #9CB2A6F0B0F3",
") c #9D03A774B1B1",
"_ c #B6C9B9F1BC76",
"` c #9FC0BADED94B",
"' c #A06ABB88D94B",
"] c #B377C941E12C",
"[ c #C912D83EE944",
"{ c #E655ECA0F3B0",
/* pixels */
"^^^^^^^^^^^^^^^^^^^^",
"^^^^^^^^^^^^^^^^^^^^",
"~~~~~~~~~~~~~~~~~~~~",
"!!!!!!!!!!!!!!!!!!!!",
"!!!!!!!!!!!!!!!!!!!!",
"QQQQQQQQQQQQQQQQQQQQ",
"WWWWWWWWWWWWWWWWWWWW",
"EEEEEEZ=  =ZEEEEEEEE",
"EEEEE:.@*&#.:EEEEEEE",
"RRRRSXhkzxljXARRRRRR",
"TTTT;,vMCVNc,-TTTTTT",
"YYYYo1fbBBbg1oYYYYYY",
"UUUU+3updasi2OUUUUUU",
"IIIIn<reyeer<nIIIIII",
"IIII($9qttw0$)IIIIII",
"LLLL'/>5874</'LLLLLL",
"LLLLP]_m6%m_]PLLLLLL",
"JJJJJK`[{{[`KJJJJJJJ",
"HHHHHHHHHHHHHHHHHHHH",
"GGGGGGGGGGGGGGGGGGGG",
"FFFFFFFFFFFFFFFFFFFF",
"DDDDDDDDDDDDDDDDDDDD"
};
