/* XPM */
static char *hide_active[] = {
/* columns rows colors chars-per-pixel */
"20 22 102 2 ",
"   c #0E8C0D6D1153",
".  c #333300000000",
"X  c #343400000000",
"o  c #4472059C01C9",
"O  c #4572069C02C9",
"+  c #42CA10830F09",
"@  c #42CA11720F09",
"#  c #5DC41EDA0F20",
"$  c #5B0C26D50FE6",
"%  c #71713B3B0505",
"&  c #73733C3C0505",
"*  c #7F70529A06C8",
"=  c #3D4732A6415A",
"-  c #596A3DD74343",
";  c #58D1408944B4",
":  c #7E0663414D4C",
">  c #7E066341507E",
",  c #529154D26D72",
"<  c #989857570909",
"1  c #989858580909",
"2  c #999958580A0A",
"3  c #9A9A59590A0A",
"4  c #82B24D6015A6",
"5  c #839D502115A6",
"6  c #AAAA66661212",
"7  c #ABAB67671313",
"8  c #B1B16B6B1B1B",
"9  c #B2B26D6D1C1C",
"0  c #9E9E6D6D2D2D",
"q  c #9E9E6F6F2D2D",
"w  c #B2B277772B2B",
"e  c #C1C17A7A1F1F",
"r  c #C1C179792121",
"t  c #C4C47D7D2323",
"y  c #C0C078782424",
"u  c #C0C079792424",
"i  c #C8C87F7F2424",
"p  c #C8C87F7F2525",
"a  c #C9C97F7F2626",
"s  c #8CB676916210",
"d  c #8CB6775C6210",
"f  c #C5C580802121",
"g  c #C5C580802323",
"h  c #C9C980802222",
"j  c #C9C981812323",
"k  c #CACA80802222",
"l  c #CACA81812222",
"z  c #CACA81812424",
"x  c #CACA82822424",
"c  c #D6D68D8D2E2E",
"v  c #D7D78D8D2E2E",
"b  c #D6D68D8D2F2F",
"n  c #D7D78D8D3030",
"m  c #D7D78E8E3030",
"M  c #E6E69E9E4141",
"N  c #E7E79F9F4242",
"B  c #DDDDA4A45A5A",
"V  c #DCDCA5A55A5A",
"C  c #E9E9A1A14444",
"Z  c #E9E9A1A14545",
"A  c #E9E9A3A34646",
"S  c #EAEAA2A24646",
"D  c #EEEEA8A84F4F",
"F  c #EEEEAAAA5050",
"G  c #F8F8B3B35B5B",
"H  c #F9F9B4B45B5B",
"J  c #FCFCB7B75F5F",
"K  c #E8E8AEAE6565",
"L  c #E8E8AFAF6565",
"P  c #FCFCB8B86060",
"I  c #598B70E491AA",
"U  c #5B5B718091B8",
"Y  c #5C71725191B8",
"T  c #6C6C9696C3C3",
"R  c #6D6D9696C4C4",
"E  c #6D6D9797C4C4",
"W  c #6E6E9797C4C4",
"Q  c #6E6E9797C5C5",
"!  c #6F009800C5FF",
"~  c #6F6F9898C5C5",
"^  c #70009900C5FF",
"/  c #70709999C6C6",
"(  c #71719999C6C6",
")  c #71719A9AC7C7",
"_  c #72729A9AC7C7",
"`  c #72729B9BC7C7",
"'  c #73739B9BC8C8",
"]  c #74749C9CC8C8",
"[  c #74749C9CC9C9",
"{  c #75759D9DC9C9",
"}  c #76769D9DCACA",
"|  c #77779E9ECACA",
" . c #9EC99898904E",
".. c #9EC99898935D",
"X. c #9CB2A51EB0F3",
"o. c #9D03A471B1B1",
"O. c #B790B9F1BD3D",
"+. c #9FC0BADED94B",
"@. c #A06ABB88D94B",
"#. c #B377C941E12C",
"$. c #C912D83EE944",
"%. c #E655ECA0F3B0",
/* pixels */
"| | | | | | | | | | | | | | | | | | | | ",
"| | | | | | | | | | | | | | | | | | | | ",
"} } } } } } } } } } } } } } } } } } } } ",
"{ { { { { { { { { { { { { { { { { { { { ",
"{ { { { { { { { { { { { { { { { { { { { ",
"[ [ [ [ [ [ [ [ [ [ [ [ [ [ [ [ [ [ [ [ ",
"] ] ] ] ] ] ] ] ] ] ] ] ] ] ] ] ] ] ] ] ",
"' ' ' ' ' ' I =     = I ' ' ' ' ' ' ' ' ",
"' ' ' ' ' , X % 0 q & . , ' ' ' ' ' ' ' ",
"` ` ` ` Y o w V K L B w O U ` ` ` ` ` ` ",
"_ _ _ _ - < F G P J H D 1 ; _ _ _ _ _ _ ",
") ) ) ) + g M S A C Z N f @ ) ) ) ) ) ) ",
"( ( ( ( $ t v m c b m n e # ( ( ( ( ( ( ",
"/ / / / : 7 k z h l x j 6 > / / / / / / ",
"/ / / / X.* r a i p i r * o./ / / / / / ",
"~ ~ ~ ~ @...2 9 y u 8 3  .@.~ ~ ~ ~ ~ ~ ",
"~ ~ ~ ~ ^ #.O.d 4 5 s O.#.^ ~ ~ ~ ~ ~ ~ ",
"Q Q Q Q Q ! +.$.%.%.$.+.! Q Q Q Q Q Q Q ",
"W W W W W W W W W W W W W W W W W W W W ",
"E E E E E E E E E E E E E E E E E E E E ",
"R R R R R R R R R R R R R R R R R R R R ",
"T T T T T T T T T T T T T T T T T T T T "
};
