/* XPM */
static char *maximize_pressed[] = {
/* columns rows colors chars-per-pixel */
"20 22 90 1 ",
"  c #0BCB3D201153",
". c #1B1B51510303",
"X c #1C1C51510303",
"o c #1F735A9C02C9",
"O c #343468680D0D",
"+ c #3E707F9906C8",
"@ c #28AA60C10FF8",
"# c #28AA6CD010D5",
"$ c #2A3B6F6F1010",
"% c #43677C2815A6",
"& c #42426F6F2424",
"* c #424270702424",
"= c #306963674208",
"- c #306964C24208",
"; c #46467744410E",
": c #45C776B941C6",
"> c #488574CA6D72",
", c #3F3F82820B0B",
"< c #3F3F82820C0C",
"1 c #42428F8F0808",
"2 c #43438F8F0909",
"3 c #44448E8E0808",
"4 c #44448F8F0808",
"5 c #45458F8F0808",
"6 c #454590900909",
"7 c #434394940808",
"8 c #444495950808",
"9 c #4C4C9E9E0A0A",
"0 c #4B4BA5A50A0A",
"q c #4C4CA6A60A0A",
"w c #4F4FA7A70A0A",
"e c #4848A9A90B0B",
"r c #4848AAAA0C0C",
"t c #4C4CABAB0C0C",
"y c #4949ADAD0C0C",
"u c #4A4AADAD0C0C",
"i c #5151B1B10B0B",
"p c #5151B2B20C0C",
"a c #5555B9B90D0D",
"s c #5656B9B90D0D",
"d c #5656BABA0E0E",
"f c #5A5AB3B31515",
"g c #5A5AB3B31616",
"h c #4D4D86862424",
"j c #595991913434",
"k c #595992923434",
"l c #61619C9C3B3B",
"z c #61619D9D3B3B",
"x c #5C5CA7A72828",
"c c #6A6ABCBC3131",
"v c #6363C3C31919",
"b c #6363C4C41919",
"n c #6565C9C91A1A",
"m c #6666C9C91A1A",
"M c #7171C6C63535",
"N c #7171C7C73535",
"B c #5ADC8A6A4D4C",
"V c #6785956E5BBC",
"C c #53C27CBE91AA",
"Z c #54967CBE91AA",
"A c #544B7E8A91B8",
"S c #5677807191B8",
"D c #6C6C9696C3C3",
"F c #6D6D9696C4C4",
"G c #6D6D9797C4C4",
"H c #6E6E9797C4C4",
"J c #6E6E9797C5C5",
"K c #6F009800C5FF",
"L c #6F6F9898C5C5",
"P c #70009900C5FF",
"I c #70709999C6C6",
"U c #71719999C6C6",
"Y c #71719A9AC7C7",
"T c #72729A9AC7C7",
"R c #72729B9BC7C7",
"E c #73739B9BC8C8",
"W c #74749C9CC8C8",
"Q c #74749C9CC9C9",
"! c #75759D9DC9C9",
"~ c #76769D9DCACA",
"^ c #77779E9ECACA",
"/ c #8AEEA8A2904E",
"( c #93FAABABB1B1",
") c #94D0ABC9B0F3",
"_ c #AD7BC0ECBD3D",
"` c #9FC0BADED94B",
"' c #A06ABB88D94B",
"] c #B377C941E12C",
"[ c #C912D83EE944",
"{ c #E655ECA0F3B0",
/* pixels */
"^^^^^^^^^^^^^^^^^^^^",
"^^^^^^^^^^^^^^^^^^^^",
"~~~~~~~~~~~~~~~~~~~~",
"!!!!!!!!!!!!!!!!!!!!",
"!!!!!!!!!!!!!!!!!!!!",
"QQQQQQQQQQQQQQQQQQQQ",
"WWWWWWWWWWWWWWWWWWWW",
"EEEEEEC-  =ZEEEEEEEE",
"EEEEE>XO*&O.>EEEEEEE",
"RRRRSohjlzkhoARRRRRR",
"TTTT;,xcNMcx<:TTTTTT",
"YYYY@6gbnmvf4@YYYYYY",
"UUUU#8isddap7$UUUUUU",
"IIIIB2eyuuyr1BIIIIII",
"IIII)+wttttw+(IIIIII",
"LLLL'/390q95/'LLLLLL",
"LLLLP]_V%%V_]PLLLLLL",
"JJJJJK`[{{[`KJJJJJJJ",
"HHHHHHHHHHHHHHHHHHHH",
"GGGGGGGGGGGGGGGGGGGG",
"FFFFFFFFFFFFFFFFFFFF",
"DDDDDDDDDDDDDDDDDDDD"
};
