/* XPM */
static char *menu_inactive[] = {
/* columns rows colors chars-per-pixel */
"20 22 43 1 ",
"  c #5E5E7E7EA2A2",
". c #65838879AFCD",
"X c #666B89B1B160",
"o c #6C6C9696C3C3",
"O c #6D6D9696C4C4",
"+ c #6D6D9797C4C4",
"@ c #6E6E9797C4C4",
"# c #6E6E9797C5C5",
"$ c #6F6F9898C5C5",
"% c #70709999C6C6",
"& c #71719999C6C6",
"* c #71719A9AC7C7",
"= c #72729A9AC7C7",
"- c #72729B9BC7C7",
"; c #738E9B66C838",
": c #73739B9BC8C8",
"> c #74779C97C8C7",
", c #74749C9CC9C9",
"< c #75759D9DC9C9",
"1 c #76799E2EC9C3",
"2 c #76769D9DCACA",
"3 c #77779E9ECACA",
"4 c #7A63A0F7CB4E",
"5 c #7C9FA1A1CB43",
"6 c #9932A9A9BB54",
"7 c #9C35AC45BE57",
"8 c #8424A7A7CEA1",
"9 c #86AFA8DBCF4D",
"0 c #9E1CAE7CC0E9",
"q c #9FD2B049C25B",
"w c #9F75B0BAC343",
"e c #9628B481D5CF",
"r c #9D4BB9B4D831",
"t c #9E83BA46D811",
"y c #A145B1E5C425",
"u c #A104B1B5C47C",
"i c #A1E9B358C60D",
"p c #AD31BF25D357",
"a c #A5BABEC4DAEF",
"s c #A8D2C021DA59",
"d c #AB26C1E8DAE3",
"f c #AD65C20ED8BB",
"g c #AE66C28ED93B",
/* pixels */
"33333333333333333333",
"33333333333333333333",
"22222222222222222222",
"<<<<<<<<<<<<<<<<<<<<",
"<<<<<<<<<<<<<<<<<<<<",
",,,,,,,,,,,,,,,,,,,,",
">>>>>>>>>>>>>>>>>>>>",
"::::::::::::::::::::",
"::::::.      X::::::",
"------tw6666ir------",
"======>s077ua;======",
"*******4fqyd1*******",
"&&&&&&&&9pg5&&&&&&&&",
"%%%%%%%%%e8%%%%%%%%%",
"%%%%%%%%%%%%%%%%%%%%",
"$$$$$$$$$$$$$$$$$$$$",
"$$$$$$$$$$$$$$$$$$$$",
"####################",
"@@@@@@@@@@@@@@@@@@@@",
"++++++++++++++++++++",
"OOOOOOOOOOOOOOOOOOOO",
"oooooooooooooooooooo"
};
