/* XPM */
static char *menu_pressed[] = {
/* columns rows colors chars-per-pixel */
"20 22 44 1 ",
"  c #52528A8AB5B5",
". c #5E6790E0BC1B",
"X c #5F0490BDBD62",
"o c #5C5C9292BCBC",
"O c #6C6C9696C3C3",
"+ c #6D6D9696C4C4",
"@ c #6D6D9797C4C4",
"# c #6E6E9797C4C4",
"$ c #6E6E9797C5C5",
"% c #66669B9BC3C3",
"& c #6F6F9898C5C5",
"* c #70709999C6C6",
"= c #71719999C6C6",
"- c #71719A9AC7C7",
"; c #72729A9AC7C7",
": c #72729B9BC7C7",
"> c #73739B9BC8C8",
", c #741C9BCBC870",
"< c #74749C9CC8C8",
"1 c #75C79CFDC91A",
"2 c #74749C9CC9C9",
"3 c #75759D9DC9C9",
"4 c #76769D9DCACA",
"5 c #77779E9ECACA",
"6 c #6F38A10BC6E5",
"7 c #76EEA3B6C794",
"8 c #7171A4A4CBCB",
"9 c #7945A02BCADD",
"0 c #790BA77BCB08",
"q c #7F6BA48BCD4A",
"w c #77CCA978CE25",
"e c #82C5A60CCDBB",
"r c #804FAA90CBF0",
"t c #8F66AFAFD31D",
"y c #938BB218D476",
"u c #AC1DC42ADE8F",
"i c #ACC0CAC9E34B",
"p c #B5EECB98E2C5",
"a c #B85DCDBEE388",
"s c #BB1CD299E6CB",
"d c #BF8ED200E660",
"f c #C083D424E754",
"g c #C194D709E967",
"h c #C356D681E8C0",
/* pixels */
"55555555555555555555",
"55555555555555555555",
"44444444444444444444",
"33333333333333333333",
"33333333333333333333",
"22222222222222222222",
"<<<<<<<<<<<<<<<<<<<<",
">>>>>>>>>>>>>>>>>>>>",
">>>>>>.      X>>>>>>",
"::::::a7oooorp::::::",
";;;;;;1f6%%0d,;;;;;;",
"-------qs8wh9-------",
"========yige========",
"*********ut*********",
"********************",
"&&&&&&&&&&&&&&&&&&&&",
"&&&&&&&&&&&&&&&&&&&&",
"$$$$$$$$$$$$$$$$$$$$",
"####################",
"@@@@@@@@@@@@@@@@@@@@",
"++++++++++++++++++++",
"OOOOOOOOOOOOOOOOOOOO"
};
