/* XPM */
static const unsigned char * shade_active_xpm[] = {
"20 22 29 1",
" 	c None",
"!	c #779ECA",
"#	c #769DCA",
"$	c #769DC9",
"%	c #759DC9",
"&	c #759CC9",
"'	c #749CC9",
"(	c #749CC8",
")	c #739BC8",
"*	c #729BC7",
"+	c #5A5A5A",
",	c #616161",
"-	c #729AC7",
".	c #5F5F5F",
"0	c #4E4E4E",
"1	c #719AC7",
"2	c #454545",
"3	c #696969",
"4	c #7199C6",
"5	c #343434",
"6	c #646464",
"7	c #7099C6",
"8	c #A4BEDB",
"9	c #6F98C5",
":	c #6E97C5",
";	c #6E97C4",
"<	c #6D97C4",
"=	c #6D96C4",
">	c #6C96C3",
"!!!!!!##############",
"######$$$$$$$$$$$$$$",
"$$$$$$%%%%%%%%%%%%%%",
"%%%%%%&&&&&&&&&&&&&&",
"''''''((((((((((((((",
"(((((())))))))))))))",
"))))))))))))))))))))",
"))))))))))))))))))))",
"******)))+,)))******",
"------**.00.**------",
"111111-.2.323-111111",
"444444.5...65.444444",
"777777888..888777777",
"999999777..777999999",
"999999999..999999999",
"999999999..999999999",
":::::;99988999;;;;;;",
";;;;;<<<<<<<<<<<<<<<",
"<<<<<===============",
"=====>>>>>>>>>>>>>>>",
">>>>>>>>>>>>>>>>>>>>",
">>>>>>>>>>>>>>>>>>>>"};