/* XPM */
static const unsigned char * shade_inactive_xpm[] = {
"20 22 30 1",
" 	c None",
"!	c #779ECA",
"#	c #769DCA",
"$	c #769DC9",
"%	c #759DC9",
"&	c #759CC9",
"'	c #749CC9",
"(	c #749CC8",
")	c #739BC8",
"*	c #729BC7",
"+	c #878787",
",	c #8E8E8E",
"-	c #729AC7",
".	c #848484",
"0	c #7C7C7C",
"1	c #719AC7",
"2	c #8C8C8C",
"3	c #727272",
"4	c #959595",
"5	c #7199C6",
"6	c #5E5E5E",
"7	c #909090",
"8	c #7099C6",
"9	c #A4BEDB",
":	c #6F98C5",
";	c #6E97C5",
"<	c #6E97C4",
"=	c #6D97C4",
">	c #6D96C4",
"?	c #6C96C3",
"!!!!!!##############",
"######$$$$$$$$$$$$$$",
"$$$$$$%%%%%%%%%%%%%%",
"%%%%%%&&&&&&&&&&&&&&",
"''''''((((((((((((((",
"(((((())))))))))))))",
"))))))))))))))))))))",
")))**************)))",
"*********+,*********",
"------**.00,**------",
"111111-232434-111111",
"55555526222767555555",
"88888899922999888888",
"::::::88822888::::::",
":::::::::22:::::::::",
":::::::::22:::::::::",
";;;;;<:::99:::<<<<<<",
"<<<<<===============",
"=====>>>>>>>>>>>>>>>",
">>>>>???????????????",
"????????????????????",
"????????????????????"};