/* XPM */
static const unsigned char * shade_prelight_xpm[] = {
"20 22 24 1",
" 	c None",
"!	c #779ECA",
"#	c #769DCA",
"$	c #769DC9",
"%	c #759DC9",
"&	c #759CC9",
"'	c #749CC9",
"(	c #749CC8",
")	c #739BC8",
"*	c #729BC7",
"+	c #4E4E4E",
",	c #729AC7",
"-	c #454545",
".	c #719AC7",
"0	c #7199C6",
"1	c #343434",
"2	c #7099C6",
"3	c #A4BEDB",
"4	c #6F98C5",
"5	c #6E97C5",
"6	c #6E97C4",
"7	c #6D97C4",
"8	c #6D96C4",
"9	c #6C96C3",
"!!!!!!##############",
"######$$$$$$$$$$$$$$",
"$$$$$$%%%%%%%%%%%%%%",
"%%%%%%&&&&&&&&&&&&&&",
"''''''((((((((((((((",
"(((((())))))))))))))",
"))))))))))))))))))))",
"))))))))))))))))))))",
"******)))++)))******",
",,,,,,**+--+**,,,,,,",
"......,+-++-+,......",
"000000+1++++1+000000",
"222222333++333222222",
"444444222++222444444",
"444444444++444444444",
"444444444++444444444",
"55555644433444666666",
"66666777777777777777",
"77777888888888888888",
"88888999999999999999",
"99999999999999999999",
"99999999999999999999"};