/* XPM */
static char *stick_inactive[] = {
/* columns rows colors chars-per-pixel */
"20 22 66 1 ",
"  c #18E71CD62144",
". c gray20",
"X c gray23",
"o c #380B39FB3C1B",
"O c #2EC83C034AE4",
"+ c #46A847EA4955",
"@ c #4B7E551A5FE8",
"# c #441558146E94",
"$ c gray38",
"% c #646464646464",
"& c #64A7659E66AF",
"* c DimGray",
"= c #6CD9713575FD",
"- c #777777777777",
"; c #7C7C7C7C7C7C",
": c #4E81682D850D",
"> c #546C6E928AA2",
", c #7E2C81908549",
"< c #6C6C9696C3C3",
"1 c #6D6D9696C4C4",
"2 c #6D6D9797C4C4",
"3 c #6E6E9797C4C4",
"4 c #6E6E9797C5C5",
"5 c #6F009800C5FF",
"6 c #6F6F9898C5C5",
"7 c #70009900C5FF",
"8 c #70709999C6C6",
"9 c #71719999C6C6",
"0 c #71719A9AC7C7",
"q c #72729A9AC7C7",
"w c #72FF9AFFC7FE",
"e c #72729B9BC7C7",
"r c #73739B9BC8C8",
"t c #74749C9CC8C8",
"y c #74749C9CC9C9",
"u c #75759D9DC9C9",
"i c #76769D9DCACA",
"p c #77779E9ECACA",
"a c gray53",
"s c #909090909090",
"d c gray60",
"f c #9A9A9A9A9A9A",
"g c #9B9B9B9B9B9B",
"h c gray61",
"j c gray62",
"k c #8FF39D06AB5F",
"l c #96109B3AA0E6",
"z c #A0A0A0A0A0A0",
"x c gray63",
"c c #A2A2A2A2A2A2",
"v c #AC18B2B6B9FA",
"b c gray69",
"n c #B1B1B1B1B1B1",
"m c #9FC0BADED94B",
"M c #A06ABB88D94B",
"N c #B377C941E12C",
"B c #C1C1C1C1C1C1",
"V c gray77",
"C c #C5C5C5C5C5C5",
"Z c gray79",
"A c #CACACACACACA",
"S c #CDCDCDCDCDCD",
"D c gray83",
"F c #D8D8D8D8D8D8",
"G c #C912D83EE944",
"H c #E655ECA0F3B0",
/* pixels */
"pppppppppppppppppppp",
"pppppppppppppppppppp",
"iiiiiiiiiiiiiiiiiiii",
"uuuuuuuuuuuuuuuuuuuu",
"uuuuuuuuuuuuuuuuuuuu",
"yyyyyyyyyyyyyyyyyyyy",
"tttttttttttttttttttt",
"rrrrrw:O  O:wrrrrrrr",
"rrrrw#.%ss%.#wrrrrrr",
"eeee>XgBSSBgX>eeeeee",
"qqqq@-ZDFFDA-@qqqqqq",
"0000ozBVCVVBzo000000",
"9999+jbnbnnbh+999999",
"8888=;cccxcc;=888888",
"8888k$fxxcxd$k888888",
"6666Ml*agfa*lM666666",
"66667Nv,&&,vN6666666",
"444445mGHHGm44444444",
"33333333333333333333",
"22222222222222222222",
"11111111111111111111",
"<<<<<<<<<<<<<<<<<<<<"
};
