/* XPM */
static char *stick_prelight[] = {
/* columns rows colors chars-per-pixel */
"20 22 85 1 ",
"  c #0BCB3D201153",
". c #1D1D56560303",
"X c #1F73629B02C9",
"o c #2073629B02C9",
"O c #3F707F9906C8",
"+ c #28AA60C10FF8",
"@ c #28AA6CD010D5",
"# c #2A3B705F1010",
"$ c #40707F9907C7",
"% c #43677C2815A6",
"& c #306964C24208",
"* c #46467744410E",
"= c #45C776B941C6",
"- c #488574CA6D72",
"; c #3F3F82820D0D",
": c #46468F8F0808",
"> c #464699990A0A",
", c #4B4B9E9E0A0A",
"< c #4B4B9E9E0B0B",
"1 c #4C4C9F9F0A0A",
"2 c #4C4C9F9F0C0C",
"3 c #4367829415A6",
"4 c #4B4BA5A50A0A",
"5 c #4B4BAAAA0B0B",
"6 c #4F4FA9A90B0B",
"7 c #4949ACAC0B0B",
"8 c #4B4BABAB0C0C",
"9 c #4C4CABAB0C0C",
"0 c #4949ACAC0C0C",
"q c #4949ADAD0C0C",
"w c #4A4AADAD0C0C",
"e c #5050ADAD0B0B",
"r c #5050AAAA0C0C",
"t c #5151AEAE0C0C",
"y c #5959B7B70E0E",
"u c #5555BABA0D0D",
"i c #5656BABA0D0D",
"p c #5656BABA0E0E",
"a c #5959B8B80E0E",
"s c #6262A4A43737",
"d c #6363A5A53838",
"f c #6A6AB6B63232",
"g c #6A6AB6B63333",
"h c #6767CCCC1818",
"j c #6868CDCD1919",
"k c #7E7EDEDE3A3A",
"l c #5ADC8A6A4D4C",
"z c #69E5956E5BBC",
"x c #69E5956E5EE6",
"c c #8383E3E33E3E",
"v c #8484D5D55151",
"b c #8C8CDDDD5858",
"n c #8D8DDDDD5858",
"m c #54967CBE91AA",
"M c #544B7E8A91B8",
"N c #56777F5B91B8",
"B c #6C6C9696C3C3",
"V c #6D6D9696C4C4",
"C c #6D6D9797C4C4",
"Z c #6E6E9797C4C4",
"A c #6E6E9797C5C5",
"S c #6F009800C5FF",
"D c #6F6F9898C5C5",
"F c #70009900C5FF",
"G c #70709999C6C6",
"H c #71719999C6C6",
"J c #71719A9AC7C7",
"K c #72729A9AC7C7",
"L c #72729B9BC7C7",
"P c #73739B9BC8C8",
"I c #74749C9CC8C8",
"U c #74749C9CC9C9",
"Y c #75759D9DC9C9",
"T c #76769D9DCACA",
"R c #77779E9ECACA",
"E c #8AEEA8A2904E",
"W c #94D0ABC9B0F3",
"Q c #952EAD7AB1B1",
"! c #AD7BC0ECBC76",
"~ c #AD7BC0ECBD3D",
"^ c #9FC0BADED94B",
"/ c #A06ABB88D94B",
"( c #B377C941E12C",
") c #C912D83EE944",
"_ c #E655ECA0F3B0",
/* pixels */
"RRRRRRRRRRRRRRRRRRRR",
"RRRRRRRRRRRRRRRRRRRR",
"TTTTTTTTTTTTTTTTTTTT",
"YYYYYYYYYYYYYYYYYYYY",
"YYYYYYYYYYYYYYYYYYYY",
"UUUUUUUUUUUUUUUUUUUU",
"IIIIIIIIIIIIIIIIIIII",
"PPPPPPm&  &mPPPPPPPP",
"PPPPP-.;ds;.-PPPPPPP",
"LLLLNXfvbnvgoMLLLLLL",
"KKKK*<kcccck2=KKKKKK",
"JJJJ+yhjjjjha+JJJJJJ",
"HHHH@tuupppie#HHHHHH",
"GGGGl>wq0q77>lGGGGGG",
"GGGGWOr95856$QGGGGGG",
"DDDD/E:,441:E/DDDDDD",
"DDDDF(~x%3z!(FDDDDDD",
"AAAAAS^)__)^SAAAAAAA",
"ZZZZZZZZZZZZZZZZZZZZ",
"CCCCCCCCCCCCCCCCCCCC",
"VVVVVVVVVVVVVVVVVVVV",
"BBBBBBBBBBBBBBBBBBBB"
};
