/* XPM */
static char *stick_active[] = {
/* columns rows colors chars-per-pixel */
"20 22 97 2 ",
"   c #09F612031153",
".  c #020235350000",
"X  c #020236360000",
"o  c #0273449C01C9",
"O  c #0273459C01C9",
"+  c #09E045B20F09",
"@  c #09E045B20FF8",
"#  c #1B9A5DE20FE6",
"$  c #1C2D5F811010",
"%  c #292971710404",
"&  c #2B2B72720505",
"*  c #49707F9906C8",
"=  c #4A707F9906C8",
"-  c #25944A59415A",
";  c #25944BB4415A",
":  c #2D9D63AF44B4",
">  c #2D3E641F43FF",
",  c #3EEE68756D72",
"<  c #434397970A0A",
"1  c #4F4F97970A0A",
"2  c #434398980A0A",
"3  c #4F4F98980A0A",
"4  c #4367872A15A6",
"5  c #5959A9A91212",
"6  c #5A5AAAAA1414",
"7  c #6161B0B01B1B",
"8  c #6161B0B01C1C",
"9  c #5A5A9D9D2D2D",
"0  c #5A5A9D9D2E2E",
"q  c #6A6ABFBF2121",
"w  c #6A6ABEBE2424",
"e  c #6B6BBFBF2424",
"r  c #6262B1B12A2A",
"t  c #6262B0B02B2B",
"y  c #6B6BC0C02121",
"u  c #6969C2C22020",
"i  c #6969C3C32020",
"p  c #6A6AC2C22020",
"a  c #6969C4C42020",
"s  c #6F6FC7C72424",
"d  c #6F6FC7C72525",
"f  c #6C6CC9C92222",
"g  c #6D6DC9C92222",
"h  c #6D6DC8C82323",
"j  c #6D6DC9C92323",
"k  c #6F6FC8C82626",
"l  c #7878D5D53030",
"z  c #7979D5D53030",
"x  c #7979D6D63030",
"c  c #7A7AD6D63030",
"v  c #56DD866B507E",
"b  c #5610866B514B",
"n  c #6B7A956E6210",
"m  c #8C8CDBDB5A5A",
"M  c #8686E5E54040",
"N  c #8888E7E74343",
"B  c #8888E7E74444",
"V  c #8A8AE8E84545",
"C  c #8F8FEDED4F4F",
"Z  c #9090EDED4F4F",
"A  c #9B9BF8F85B5B",
"S  c #9C9CF8F85B5B",
"D  c #9E9EFAFA5F5F",
"F  c #9999E8E86666",
"G  c #9F9FFBFB6060",
"H  c #53C276AD91AA",
"J  c #537A7A7791B8",
"K  c #544B7A779289",
"L  c #6C6C9696C3C3",
"P  c #6D6D9696C4C4",
"I  c #6D6D9797C4C4",
"U  c #6E6E9797C4C4",
"Y  c #6E6E9797C5C5",
"T  c #6F009800C5FF",
"R  c #6F6F9898C5C5",
"E  c #70009900C5FF",
"W  c #70709999C6C6",
"Q  c #71719999C6C6",
"!  c #71719A9AC7C7",
"~  c #72729A9AC7C7",
"^  c #72729B9BC7C7",
"/  c #73739B9BC8C8",
"(  c #74749C9CC8C8",
")  c #74749C9CC9C9",
"_  c #75759D9DC9C9",
"`  c #76769D9DCACA",
"'  c #77779E9ECACA",
"]  c #8BB1A8A2904E",
"[  c #8BB1A8A29299",
"{  c #94D0AD00B0F3",
"}  c #952EAD7AB1B1",
"|  c #AFCEC0ECBD3D",
" . c #9FC0BADED94B",
".. c #A06ABB88D94B",
"X. c #B377C941E12C",
"o. c #C912D83EE944",
"O. c #E655ECA0F3B0",
/* pixels */
"' ' ' ' ' ' ' ' ' ' ' ' ' ' ' ' ' ' ' ' ",
"' ' ' ' ' ' ' ' ' ' ' ' ' ' ' ' ' ' ' ' ",
"` ` ` ` ` ` ` ` ` ` ` ` ` ` ` ` ` ` ` ` ",
"_ _ _ _ _ _ _ _ _ _ _ _ _ _ _ _ _ _ _ _ ",
"_ _ _ _ _ _ _ _ _ _ _ _ _ _ _ _ _ _ _ _ ",
") ) ) ) ) ) ) ) ) ) ) ) ) ) ) ) ) ) ) ) ",
"( ( ( ( ( ( ( ( ( ( ( ( ( ( ( ( ( ( ( ( ",
"/ / / / / / H -     ; H / / / / / / / / ",
"/ / / / / , . & 9 0 % X , / / / / / / / ",
"^ ^ ^ ^ J o r m F F m t O K ^ ^ ^ ^ ^ ^ ",
"~ ~ ~ ~ > 2 C S G D A Z < : ~ ~ ~ ~ ~ ~ ",
"! ! ! ! @ i M B V B N M a + ! ! ! ! ! ! ",
"Q Q Q Q # p l c z x x x u $ Q Q Q Q Q Q ",
"W W W W b 6 j g h f g h 5 v W W W W W W ",
"W W W W { * y d d k s q = } W W W W W W ",
"R R R R ..] 1 7 e w 8 3 [ ..R R R R R R ",
"R R R R E X.| n 4 4 n | X.E R R R R R R ",
"Y Y Y Y Y T  .o.O.O.o. .T Y Y Y Y Y Y Y ",
"U U U U U U U U U U U U U U U U U U U U ",
"I I I I I I I I I I I I I I I I I I I I ",
"P P P P P P P P P P P P P P P P P P P P ",
"L L L L L L L L L L L L L L L L L L L L "
};
