/* XPM */
static const unsigned char * title_thin_xpm[] = {
"2 22 18 1",
" 	c None",
"!	c #779ECA",
"#	c #769DCA",
"$	c #759DC9",
"%	c #749CC9",
"&	c #749CC8",
"'	c #739BC8",
"(	c #729BC7",
")	c #729AC7",
"*	c #719AC7",
"+	c #7199C6",
",	c #7099C6",
"-	c #6F98C5",
".	c #6E97C5",
"0	c #6E97C4",
"1	c #6D97C4",
"2	c #6D96C4",
"3	c #6C96C3",
"!!",
"!!",
"##",
"$$",
"$$",
"%%",
"&&",
"''",
"''",
"((",
"))",
"**",
"++",
",,",
",,",
"--",
"--",
"..",
"00",
"11",
"22",
"33"};