/* XPM */
static char *close_inactive[] = {
/* columns rows colors chars-per-pixel */
"20 22 50 1 ",
"  c #1B561B561B56",
". c #1BD31BD31BD3",
"X c #1D8B1D8B1D8B",
"o c #221C221C221C",
"O c #258F258F258F",
"+ c #2A542A542A54",
"@ c #2AFE2AFE2AFE",
"# c #2C6F2C6F2C6F",
"$ c #2D362D362D36",
"% c #2E562E562E56",
"& c #2F682F682F68",
"* c #303930393039",
"= c #310131013101",
"- c #320F320F320F",
"; c #331D331D331D",
": c #341034103410",
"> c #352F352F352F",
", c #361E361E361E",
"< c #383638363836",
"1 c #393939393939",
"2 c #3A383A383A38",
"3 c #612561256125",
"4 c #625262526252",
"5 c #6E646E646E64",
"6 c #73A073A073A0",
"7 c #812B812B812B",
"8 c #856785678567",
"9 c #924992499249",
"0 c #939393939393",
"q c #947694769476",
"w c #995D995D995D",
"e c #9B9B9B9B9B9B",
"r c #A0A0A0A0A0A0",
"t c #A30CA30CA30C",
"y c #A454A454A454",
"u c #A7A7A7A7A7A7",
"i c gray67",
"p c #AEAEAEAEAEAE",
"a c #B0D6B0D6B0D6",
"s c #B208B208B208",
"d c gray71",
"f c #BBBBBBBBBBBB",
"g c #BCD9BCD9BCD9",
"h c #BDA0BDA0BDA0",
"j c #C09AC09AC09A",
"k c #C1C1C1C1C1C1",
"l c #C3C3C3C3C3C3",
"z c gray78",
"x c #CDCDCDCDCDCD",
"c c #D1C7D1C7D1C7",
/* pixels */
"22222222222222222222",
"22222222222222222222",
"22222222222222222222",
"22222222222222222222",
"22222222222222222222",
"222222-$,22,$-222222",
"22222=4h;,,;h4=22222",
"1111=3cxj--jxc3=1111",
"1111#wlkzggzklw#1111",
"1111>.8ffjjff8.>1111",
"11111:.7dddd7.:11111",
"11111>&qpppp0%>11111",
"1111>*sauuuuaa&>1111",
"1111#tirr66rriy#1111",
"<<<<*O9e5  5e9O*<<<<",
"<<<<<+o4 ;; 4o+<<<<<",
"<<<<<<@X;<<;X@<<<<<<",
"<<<<<<<<<<<<<<<<<<<<",
"<<<<<<<<<<<<<<<<<<<<",
"<<<<<<<<<<<<<<<<<<<<",
"<<<<<<<<<<<<<<<<<<<<",
"<<<<<<<<<<<<<<<<<<<<"
};
