/* XPM */
static char *close_active[] = {
/* columns rows colors chars-per-pixel */
"20 22 47 1 ",
"  c #1D8B1D8B1D8B",
". c #207F207F207F",
"X c #230C230C230C",
"o c #2A542A542A54",
"O c #2AFE2AFE2AFE",
"+ c #2C6F2C6F2C6F",
"@ c #2D362D362D36",
"# c #301030103010",
"$ c #310131013101",
"% c #31EE31EE31EE",
"& c #332633263326",
"* c #341034103410",
"= c #352F352F352F",
"- c #360D360D360D",
"; c #373B373B373B",
": c #383738373837",
"> c #393939393939",
", c #3A383A383A38",
"< c #3AD33AD33AD3",
"1 c #6E736E736E73",
"2 c #6FF76FF76FF7",
"3 c #767476747674",
"4 c #846684668466",
"5 c #88CA88CA88CA",
"6 c #965496549654",
"7 c #9A909A909A90",
"8 c #AA89AA89AA89",
"9 c #AB7EAB7EAB7E",
"0 c #AF36AF36AF36",
"q c #B4B4B4B4B4B4",
"w c #B9FAB9FAB9FA",
"e c #BAA3BAA3BAA3",
"r c #C1C1C1C1C1C1",
"t c gray77",
"y c #C7C1C7C1C7C1",
"u c #C892C892C892",
"i c #CACACACACACA",
"p c #CECECECECECE",
"a c #D388D388D388",
"s c gray83",
"d c #D6FED6FED6FE",
"f c #DADADADADADA",
"g c gray86",
"h c gainsboro",
"j c gray88",
"k c #E6E6E6E6E6E6",
"l c #EA62EA62EA62",
/* pixels */
",,,,,,,,,,,,,,,,,,,,",
",,,,,,,,,,,,,,,,,,,,",
",,,,,,,,,,,,,,,,,,,,",
",,,,,,,,,,,,,,,,,,,,",
",,,,,,,,,,,,,,,,,,,,",
",,,,,,%@-,,-@%,,,,,,",
",,,,,$2a<--<a2$,,,,,",
">>>>$1lkd,,dkl1$>>>>",
">>>>+0hgjaajgh0+>>>>",
">>>>=X7ssffss7X=>>>>",
">>>>>*X6pppp6X*>>>>>",
">>>>>=;9yyyy8-=>>>>>",
">>>>=:uirrrriy;=>>>>",
">>>>+wtee55eetw+>>>>",
"::::#-8q4..4q8-#::::",
":::::o%3.&&.3%o:::::",
"::::::O &::& O::::::",
"::::::::::::::::::::",
"::::::::::::::::::::",
"::::::::::::::::::::",
"::::::::::::::::::::",
"::::::::::::::::::::"
};
