/* XPM */
static char *hide_prelight[] = {
/* columns rows colors chars-per-pixel */
"20 22 19 1 ",
"  c #13D813D813D8",
". c #152A152A152A",
"X c #164416441644",
"o c #29EA29EA29EA",
"O c #2B5F2B5F2B5F",
"+ c #2C792C792C79",
"@ c #2DA32DA32DA3",
"# c #2DF22DF22DF2",
"$ c #2F2E2F2E2F2E",
"% c #300630063006",
"& c gray22",
"* c #393939393939",
"= c #3A3A3A3A3A3A",
"- c gray72",
"; c gray74",
": c #C3C3C3C3C3C3",
"> c #F9F9F9F9F9F9",
", c #FEFEFEFEFEFE",
"< c gray100",
/* pixels */
"====================",
"====================",
"====================",
"====================",
"====================",
"====================",
"====================",
"********************",
"********************",
"********************",
"********************",
"********************",
"****#O+@++++@@+%****",
"****o<,>>>>>>>,+****",
"&&&&o<,>>>>>>>,+&&&&",
"&&&&o:;-------;O&&&&",
"&&&&@ .XXXXXXX.$&&&&",
"&&&&&&&&&&&&&&&&&&&&",
"&&&&&&&&&&&&&&&&&&&&",
"&&&&&&&&&&&&&&&&&&&&",
"&&&&&&&&&&&&&&&&&&&&",
"&&&&&&&&&&&&&&&&&&&&"
};
