/* XPM */
static char *maximize_inactive[] = {
/* columns rows colors chars-per-pixel */
"20 22 71 1 ",
"  c #170417041704",
". c #17E917E917E9",
"X c #195219521952",
"o c #1D661D661D66",
"O c #1E6D1E6D1E6D",
"+ c #246024602460",
"@ c #250A250A250A",
"# c #267C267C267C",
"$ c #26D226D226D2",
"% c #27D827D827D8",
"& c #2A6E2A6E2A6E",
"* c #2B9D2B9D2B9D",
"= c #2C1F2C1F2C1F",
"- c #2D0E2D0E2D0E",
"; c #2E3A2E3A2E3A",
": c #2F382F382F38",
"> c #2FE02FE02FE0",
", c #317031703170",
"< c #322C322C322C",
"1 c #340934093409",
"2 c #351835183518",
"3 c #365A365A365A",
"4 c #376237623762",
"5 c #383738373837",
"6 c #393339333933",
"7 c #3A393A393A39",
"8 c #3FDF3FDF3FDF",
"9 c #411E411E411E",
"0 c #426242624262",
"q c #44CC44CC44CC",
"w c #492549254925",
"e c #4DC94DC94DC9",
"r c #4E304E304E30",
"t c #50CA50CA50CA",
"y c #57BB57BB57BB",
"u c #57E257E257E2",
"i c #66BD66BD66BD",
"p c #6D616D616D61",
"a c #6FA56FA56FA5",
"s c #7A4D7A4D7A4D",
"d c #7DB87DB87DB8",
"f c #810481048104",
"g c #8CF98CF98CF9",
"h c #8DCC8DCC8DCC",
"j c #8F4A8F4A8F4A",
"k c #983898389838",
"l c #9AA99AA99AA9",
"z c #9C6F9C6F9C6F",
"x c #9FA69FA69FA6",
"c c #A7A7A7A7A7A7",
"v c #A8C2A8C2A8C2",
"b c #A967A967A967",
"n c #ADCFADCFADCF",
"m c #B1B3B1B3B1B3",
"M c #B2C4B2C4B2C4",
"N c #B5BFB5BFB5BF",
"B c #B9B9B9B9B9B9",
"V c #BBBBBBBBBBBB",
"C c #BCBCBCBCBCBC",
"Z c #BDA0BDA0BDA0",
"A c #BFD6BFD6BFD6",
"S c #C4AFC4AFC4AF",
"D c #C5C5C5C5C5C5",
"F c #C7D6C7D6C7D6",
"G c gray79",
"H c #CBCBCBCBCBCB",
"J c gray80",
"K c #CE07CE07CE07",
"L c #D104D104D104",
"P c #D39CD39CD39C",
"I c #D5D5D5D5D5D5",
/* pixels */
"77777777777777777777",
"77777777777777777777",
"77777777777777777777",
"777777777777752<>-,7",
"77777777776:*esxZA-7",
"777777777739KILKGj:7",
"77777777776&>NVVVp<7",
"6666666666&qfMmmmt16",
"666666666&SHBvccc536",
"6666666666Fxxl02z#66",
"662<566&666jhX$#%=66",
"66=a;:uvF666o166=366",
"641LdkPJFD6666666666",
"62yVHFCVV.6666666666",
"5,pmmmnr 55555555555",
"5:dcccbw%25555555555",
"5=hxxxxm815555555555",
"5&giw: .@35555555555",
"5-XO+&,4555555555555",
"55555555555555555555",
"55555555555555555555",
"55555555555555555555"
};
