/* XPM */
static char *maximize_active[] = {
/* columns rows colors chars-per-pixel */
"20 22 78 1 ",
"  c #18DF18DF18DF",
". c #1D661D661D66",
"X c #1E291E291E29",
"o c #246024602460",
"O c #250A250A250A",
"+ c #269026902690",
"@ c #26D226D226D2",
"# c #27AF27AF27AF",
"$ c #291129112911",
"% c #2A392A392A39",
"& c #2C292C292C29",
"* c #2CDF2CDF2CDF",
"= c #2E6F2E6F2E6F",
"- c #2F452F452F45",
"; c #2FB92FB92FB9",
": c #317031703170",
"> c #322C322C322C",
", c #33E733E733E7",
"< c #351135113511",
"1 c #365A365A365A",
"2 c #376237623762",
"3 c #383738373837",
"4 c #393339333933",
"5 c #3A393A393A39",
"6 c #3C693C693C69",
"7 c #3F733F733F73",
"8 c #409B409B409B",
"9 c #43A343A343A3",
"0 c #469C469C469C",
"q c #4AED4AED4AED",
"w c #4E2D4E2D4E2D",
"e c #540054005400",
"r c #58D758D758D7",
"t c #599B599B599B",
"y c #5B5E5B5E5B5E",
"u c #5FBC5FBC5FBC",
"i c #5FE75FE75FE7",
"p c #63AB63AB63AB",
"a c #7C3B7C3B7C3B",
"s c #7E637E637E63",
"d c #7F367F367F36",
"f c #898E898E898E",
"g c #8D868D868D86",
"h c #909890989098",
"j c #941C941C941C",
"k c #A2DEA2DEA2DE",
"l c #A401A401A401",
"z c #A50FA50FA50F",
"x c #A6C9A6C9A6C9",
"c c #A838A838A838",
"v c gray67",
"b c #B2E6B2E6B2E6",
"n c #B344B344B344",
"m c #B53CB53CB53C",
"M c gray72",
"N c #B9B9B9B9B9B9",
"B c #BCEFBCEFBCEF",
"V c #C1CAC1CAC1CA",
"C c gray76",
"Z c #C683C683C683",
"A c #C9DDC9DDC9DD",
"S c #CBBFCBBFCBBF",
"D c #CE73CE73CE73",
"F c #D3C0D3C0D3C0",
"G c gray83",
"H c #D5D5D5D5D5D5",
"J c #D84DD84DD84D",
"K c #DDDDDDDDDDDD",
"L c #DEF5DEF5DEF5",
"P c #E1E1E1E1E1E1",
"I c gray89",
"U c #E4E4E4E4E4E4",
"Y c gray90",
"T c #E6E6E6E6E6E6",
"R c #E7BDE7BDE7BD",
"E c #EB11EB11EB11",
"W c #EC82EC82EC82",
"Q c #EEEEEEEEEEEE",
/* pixels */
"55555555555555555555",
"55555555555555555555",
"55555555555555555555",
"55555555555553<>;*:5",
"55555555554-=rfbFJ*5",
"55555555551wRQETIz-5",
"55555555554%8DGGGd>5",
"4444444444*wjSSSSu,4",
"444444444*KUFCVVV914",
"4444444444PMMne0m&44",
"44<>344*444cx$@+3&44",
"44&s=-pBL444.,44&144",
"426EgvWYPL4444444444",
"4<pGUPHGGX4444444444",
"3:aSSSZiX33333333333",
"3-hVVVVt#<3333333333",
"3*kMMMNAq,3333333333",
"3%lay7+ O13333333333",
"3* Xo%:2333333333333",
"33333333333333333333",
"33333333333333333333",
"33333333333333333333"
};
