/* XPM */
static char *menu_inactive[] = {
/* columns rows colors chars-per-pixel */
"20 22 25 1 ",
"  c #2FC92FC92FC9",
". c #330C330C330C",
"X c gray22",
"o c #393939393939",
"O c #3A3A3A3A3A3A",
"+ c #3AC83AC83AC8",
"@ c #3C573C573C57",
"# c #403D403D403D",
"$ c #45B245B245B2",
"% c #48D048D048D0",
"& c #548154815481",
"* c #56D856D856D8",
"= c #6D736D736D73",
"- c #75CD75CD75CD",
"; c #77EA77EA77EA",
": c #824182418241",
"> c #855185518551",
", c #86C586C586C5",
"< c gray53",
"1 c #896A896A896A",
"2 c #8A908A908A90",
"3 c #8C108C108C10",
"4 c #912D912D912D",
"5 c #922E922E922E",
"6 c #940F940F940F",
/* pixels */
"OOOOOOOOOOOOOOOOOOOO",
"OOOOOOOOOOOOOOOOOOOO",
"OOOOOOOOOOOOOOOOOOOO",
"OOOOOOOOOOOOOOOOOOOO",
"OOOOOOOOOOOOOOOOOOOO",
"OOOOOOOOOOOOOOOOOOOO",
"OOOOOOOOOOOOOOOOOOOO",
"oooooooooooooooooooo",
"oooooo.      .oooooo",
"oooooo;<::::1-oooooo",
"oooooo@<,>>1:+oooooo",
"ooooooo$4123#ooooooo",
"oooooooo*65%oooooooo",
"ooooooooo=&ooooooooo",
"XXXXXXXXXXXXXXXXXXXX",
"XXXXXXXXXXXXXXXXXXXX",
"XXXXXXXXXXXXXXXXXXXX",
"XXXXXXXXXXXXXXXXXXXX",
"XXXXXXXXXXXXXXXXXXXX",
"XXXXXXXXXXXXXXXXXXXX",
"XXXXXXXXXXXXXXXXXXXX",
"XXXXXXXXXXXXXXXXXXXX"
};
