/* XPM */
static char *hide_active[] = {
/* columns rows colors chars-per-pixel */
"20 22 9 1 ",
"  c #172617261726",
". c #2A0A2A0A2A0A",
"X c #2ADC2ADC2ADC",
"o c #2E442E442E44",
"O c #383438343834",
"+ c #393739373937",
"@ c #3A3A3A3A3A3A",
"# c #ACACACACACAC",
"$ c gray88",
/* pixels */
"@@@@@@@@@@@@@@@@@@@@",
"@@@@@@@@@@@@@@@@@@@@",
"@@@@@@@@@@@@@@@@@@@@",
"@@@@@@@@@@@@@@@@@@@@",
"@@@@@@@@@@@@@@@@@@@@",
"@@@@@@@@@@@@@@@@@@@@",
"@@@@@@@@@@@@@@@@@@@@",
"++++++++++++++++++++",
"++++++++++++++++++++",
"++++++++++++++++++++",
"++++++++++++++++++++",
"++++++++++++++++++++",
"++++oXXX....XXXo++++",
"++++X$$$$$$$$$$X++++",
"OOOO.$$$$$$$$$$.OOOO",
"OOOO.##########.OOOO",
"OOOOo          oOOOO",
"OOOOOOOOOOOOOOOOOOOO",
"OOOOOOOOOOOOOOOOOOOO",
"OOOOOOOOOOOOOOOOOOOO",
"OOOOOOOOOOOOOOOOOOOO",
"OOOOOOOOOOOOOOOOOOOO"
};
