/* XPM */
static char *maximize_pressed[] = {
/* columns rows colors chars-per-pixel */
"20 22 74 1 ",
"  c #140B140B140B",
". c #151815181518",
"X c #1B951B951B95",
"o c #1F871F871F87",
"O c #237F237F237F",
"+ c #284328432843",
"@ c #2A5C2A5C2A5C",
"# c #2B162B162B16",
"$ c #2C9D2C9D2C9D",
"% c #2D612D612D61",
"& c #2E572E572E57",
"* c #2EFC2EFC2EFC",
"= c #303D303D303D",
"- c #327D327D327D",
"; c #334F334F334F",
": c #340E340E340E",
"> c #34E934E934E9",
", c #365C365C365C",
"< c #374137413741",
"1 c #383738373837",
"2 c #393939393939",
"3 c #3A393A393A39",
"4 c #3D783D783D78",
"5 c gray25",
"6 c #457245724572",
"7 c #4A1D4A1D4A1D",
"8 c #4DB74DB74DB7",
"9 c #4E1E4E1E4E1E",
"0 c #573057305730",
"q c #5D145D145D14",
"w c #60FA60FA60FA",
"e c #628062806280",
"r c #683668366836",
"t c #692D692D692D",
"y c #775577557755",
"u c #814E814E814E",
"i c #973797379737",
"p c #9AFA9AFA9AFA",
"a c #A47CA47CA47C",
"s c #A805A805A805",
"d c #A9A1A9A1A9A1",
"f c #AC53AC53AC53",
"g c #BDC2BDC2BDC2",
"h c #C1C1C1C1C1C1",
"j c #C5C5C5C5C5C5",
"k c #C6C6C6C6C6C6",
"l c gray78",
"z c #C8C8C8C8C8C8",
"x c #CDCDCDCDCDCD",
"c c gray81",
"v c #D0D0D0D0D0D0",
"b c #D1B6D1B6D1B6",
"n c #D2B7D2B7D2B7",
"m c gray83",
"M c gray84",
"N c #D8D8D8D8D8D8",
"B c gray85",
"V c #DADADADADADA",
"C c gainsboro",
"Z c #DDDDDDDDDDDD",
"A c gray87",
"S c #DFDFDFDFDFDF",
"D c gray88",
"F c gray89",
"G c #E5C3E5C3E5C3",
"H c #E7E7E7E7E7E7",
"J c gray91",
"K c #E9E9E9E9E9E9",
"L c #F1F7F1F7F1F7",
"P c #F4F4F4F4F4F4",
"I c gray96",
"U c #F9F9F9F9F9F9",
"Y c #FDFDFDFDFDFD",
"T c gray100",
/* pixels */
"33333333333333333333",
"33333333333333333333",
"33333333333333333333",
"33333333333333333:23",
"33333333333*$esGTT=3",
"3333333333,rTTTTTb<3",
"33333333333%%DVmNu33",
"2222222222$7iNvxBq22",
"222222222+TTUBNMS522",
"2222222222TFNc94Z+22",
"22,;222&222lh.#@:&22",
"22#f;<tLT222X222$222",
"224TdnTTTT2222222222",
"21yYTIJKP 2222222222",
"1>pGczj6X11111111111",
"1-gBkzn8=11111111111",
"1*HCcnAT0<1111111111",
"1@Faw,  O11111111111",
"1* o@;11111111111111",
"11111111111111111111",
"11111111111111111111",
"11111111111111111111"
};
