/* XPM */
static char *maximize_prelight[] = {
/* columns rows colors chars-per-pixel */
"20 22 88 1 ",
"  c #163E163E163E",
". c #16B516B516B5",
"X c #195B195B195B",
"o c #1C801C801C80",
"O c #1DEE1DEE1DEE",
"+ c #1EDD1EDD1EDD",
"@ c #20A820A820A8",
"# c #246024602460",
"$ c #270627062706",
"% c #286428642864",
"& c #28D728D728D7",
"* c #2A382A382A38",
"= c #2B6A2B6A2B6A",
"- c #2C352C352C35",
"; c #2D412D412D41",
": c #2E142E142E14",
"> c #2EED2EED2EED",
", c #305830583058",
"< c #30B230B230B2",
"1 c #327E327E327E",
"2 c #332733273327",
"3 c #348534853485",
"4 c #354635463546",
"5 c #364A364A364A",
"6 c #379E379E379E",
"7 c #383738373837",
"8 c #393839383938",
"9 c #3A3A3A3A3A3A",
"0 c #3B963B963B96",
"q c #3D253D253D25",
"w c #424442444244",
"e c #4CD84CD84CD8",
"r c #500950095009",
"t c #517351735173",
"y c #53D253D253D2",
"u c #542954295429",
"i c #58C258C258C2",
"p c #5D6A5D6A5D6A",
"a c #5E8B5E8B5E8B",
"s c #665D665D665D",
"d c #6C846C846C84",
"f c #809B809B809B",
"g c #8A5C8A5C8A5C",
"h c #8DDE8DDE8DDE",
"j c #923A923A923A",
"k c #96AE96AE96AE",
"l c #976797679767",
"z c #9A999A999A99",
"x c #A4CCA4CCA4CC",
"c c #B4B4B4B4B4B4",
"v c #B7B7B7B7B7B7",
"b c #B8E5B8E5B8E5",
"n c #BD12BD12BD12",
"m c #C1C1C1C1C1C1",
"M c #C2A8C2A8C2A8",
"N c #C3C3C3C3C3C3",
"B c gray77",
"V c #C5C5C5C5C5C5",
"C c #C6C6C6C6C6C6",
"Z c #C7B7C7B7C7B7",
"A c #C8C8C8C8C8C8",
"S c gray79",
"D c #CB01CB01CB01",
"F c #CBA9CBA9CBA9",
"G c gray80",
"H c #CDCDCDCDCDCD",
"J c #CECECECECECE",
"K c gray81",
"L c #D2D2D2D2D2D2",
"P c LightGray",
"I c #D5D5D5D5D5D5",
"U c #D7D7D7D7D7D7",
"Y c #D8D8D8D8D8D8",
"T c #D996D996D996",
"R c gray87",
"E c gray89",
"W c gray90",
"Q c #E7E7E7E7E7E7",
"! c #EAEAEAEAEAEA",
"~ c gray92",
"^ c gray95",
"/ c #F3F3F3F3F3F3",
"( c gray96",
") c #F6B0F6B0F6B0",
"_ c #F9F9F9F9F9F9",
"` c gray98",
"' c #FDFDFDFDFDFD",
"] c gray100",
/* pixels */
"99999999999999999999",
"99999999999999999999",
"99999999999999999999",
"99999999999999963,49",
"99999999998>;plF)]>9",
"99999999995i]]](^b29",
"99999999999=7YYIUf69",
"8888888888=ekPJHLa88",
"888888888*]]WHGFKw88",
"8888888888]GZmtwA*88",
"8851888-888vc@&%5;88",
"88=j<2sT]888o688-788",
"88q]zn]_`'8888888888",
"85dQ/~RRE 8888888888",
"72gYJFZyX77777777777",
"7,xHBVDu=77777777777",
"7;MSNBD!r47777777777",
"7*Cha0O #77777777777",
"7:.+$:57777777777777",
"77777777777777777777",
"77777777777777777777",
"77777777777777777777"
};
