/* XPM */
static char *shade_prelight[] = {
/* columns rows colors chars-per-pixel */
"20 22 20 1 ",
"  c #143214321432",
". c #158B158B158B",
"X c #16AA16AA16AA",
"o c #2A692A692A69",
"O c #2B282B282B28",
"+ c #2C452C452C45",
"@ c #2D792D792D79",
"# c #2E8D2E8D2E8D",
"$ c #2F442F442F44",
"% c #300630063006",
"& c #30DD30DD30DD",
"* c gray22",
"= c #393939393939",
"- c #3A3A3A3A3A3A",
"; c gray72",
": c gray74",
"> c #C3C3C3C3C3C3",
", c #F9F9F9F9F9F9",
"< c #FEFEFEFEFEFE",
"1 c gray100",
/* pixels */
"--------------------",
"--------------------",
"--------------------",
"--------------------",
"----$+@#@@@@##@&----",
"----O1<,,,,,,,<+----",
"----O1<,,,,,,,<@----",
"====o>:;;;;;;;:+====",
"====# .XXXXXXX.%====",
"====================",
"====================",
"====================",
"====================",
"====================",
"********************",
"********************",
"********************",
"********************",
"********************",
"********************",
"********************",
"********************"
};
