/* XPM */
static char *stick_pressed[] = {
/* columns rows colors chars-per-pixel */
"20 22 76 1 ",
"  c #138613861386",
". c #144F144F144F",
"X c #16B516B516B5",
"o c #183418341834",
"O c #1DEA1DEA1DEA",
"+ c #1EBE1EBE1EBE",
"@ c #1FBF1FBF1FBF",
"# c #254025402540",
"$ c #26C926C926C9",
"% c #27E727E727E7",
"& c #298429842984",
"* c #2A302A302A30",
"= c #2BA72BA72BA7",
"- c #2C282C282C28",
"; c #2E012E012E01",
": c #2EF82EF82EF8",
"> c #306130613061",
", c #324432443244",
"< c #336033603360",
"1 c #358535853585",
"2 c #365C365C365C",
"3 c gray22",
"4 c #393839383938",
"5 c #3A393A393A39",
"6 c #3CFC3CFC3CFC",
"7 c #3E4A3E4A3E4A",
"8 c #3FA93FA93FA9",
"9 c #463246324632",
"0 c #496A496A496A",
"q c #4E004E004E00",
"w c #554955495549",
"e c #5C9F5C9F5C9F",
"r c #612F612F612F",
"t c #61EE61EE61EE",
"y c #631663166316",
"u c #67D667D667D6",
"i c #77CD77CD77CD",
"p c #80B080B080B0",
"a c #96F796F796F7",
"s c #9B9F9B9F9B9F",
"d c #A481A481A481",
"f c #A6B2A6B2A6B2",
"g c #A7ADA7ADA7AD",
"h c #A9F5A9F5A9F5",
"j c gray73",
"k c #BDEDBDEDBDED",
"l c gray77",
"z c #C5C5C5C5C5C5",
"x c #C6C6C6C6C6C6",
"c c #C8C8C8C8C8C8",
"v c #CDCDCDCDCDCD",
"b c gray81",
"n c #D0D0D0D0D0D0",
"m c #D1A9D1A9D1A9",
"M c #D2C7D2C7D2C7",
"N c gray83",
"B c gray84",
"V c #D8D8D8D8D8D8",
"C c gray85",
"Z c #DADADADADADA",
"A c gainsboro",
"S c #DDDDDDDDDDDD",
"D c gray87",
"F c #DFDFDFDFDFDF",
"G c gray88",
"H c gray89",
"J c #E5B2E5B2E5B2",
"K c #E7E7E7E7E7E7",
"L c gray91",
"P c #E9E9E9E9E9E9",
"I c #EB0EEB0EEB0E",
"U c #EFEFEFEFEFEF",
"Y c gray96",
"T c #F9F9F9F9F9F9",
"R c #FDFDFDFDFDFD",
"E c gray100",
/* pixels */
"55555555555555555555",
"55555555555555555555",
"55555555555542555<55",
"555555555555-f25yIE5",
"5555555555557EhMEEEE",
"555555555553iREYLPUo",
"555555555552sJbcz9O5",
"44444444444,kCxcMq,4",
"44444444444:KAbMDEw4",
"44444444444*Hdr2..#4",
"44444444444: +&,4444",
"444444443,2444444444",
"444;-tgJEE:444444444",
"441uEEEEEm1444444444",
"333--GZNVp3333333333",
"33-0aVnvCe3333333333",
"3$EETCVBF83333333333",
"33EHVbq6S%3333333333",
"333ljX-=>:3333333333",
"3333@333:33333333333",
"33333333333333333333",
"33333333333333333333"
};
