/* XPM */
static char *close_active[] = {
/* columns rows colors chars-per-pixel */
"20 22 58 1 ",
"  c #34C134C134C1",
". c #35FA35FA35FA",
"X c #390439043904",
"o c #433A433A433A",
"O c #468946894689",
"+ c #4B974B974B97",
"@ c #4CC54CC54CC5",
"# c #4EBB4EBB4EBB",
"$ c #4F824F824F82",
"% c #504A504A504A",
"& c #558D558D558D",
"* c #562356235623",
"= c #573C573C573C",
"- c #586658665866",
"; c #5A895A895A89",
": c #5B565B565B56",
"> c #5D2A5D2A5D2A",
", c #5E3D5E3D5E3D",
"< c #5F2C5F2C5F2C",
"1 c #601A601A601A",
"2 c gray38",
"3 c #626262626262",
"4 c gray39",
"5 c #645764576457",
"6 c #656565656565",
"7 c gray40",
"8 c #675A675A675A",
"9 c #686868686868",
"0 c DimGray",
"q c #7E987E987E98",
"w c #851685168516",
"e c #861C861C861C",
"r c #8B548B548B54",
"t c #8FB78FB78FB7",
"y c #9D6B9D6B9D6B",
"u c #A1A6A1A6A1A6",
"i c #AC0FAC0FAC0F",
"p c #AFCDAFCDAFCD",
"a c gray69",
"s c #B4E2B4E2B4E2",
"d c gray73",
"f c #BF95BF95BF95",
"g c #C1C1C1C1C1C1",
"h c gray77",
"j c gray78",
"k c #CACACACACACA",
"l c #CC2CCC2CCC2C",
"z c #CD13CD13CD13",
"x c #CECECECECECE",
"c c gray83",
"v c #D7FED7FED7FE",
"b c #D92AD92AD92A",
"n c #DADADADADADA",
"m c #DBC8DBC8DBC8",
"M c gainsboro",
"N c gray88",
"B c #E6E6E6E6E6E6",
"V c #EB4AEB4AEB4A",
/* pixels */
"22222222222222222222",
"00000000000000000000",
"99999999999999999999",
"99999999999999999999",
"99999999999999999999",
"888888-%1881%-888888",
"88888=eb;11;be=88888",
"8888-wVBm;;mBVw-8888",
"7777$sMmNvvNmMs$7777",
"7777<XuccnnccuX<7777",
"77777>XyxxxxyX>77777",
"66666,&ajjjjp&,66666",
"6666,=zkggggkl*,6666",
"6666#fhddttddhf#6666",
"5555&Oisr..rsiO&5555",
"55555+oq.::.qo+55555",
"555555@ :55: @555555",
"44444444444444444444",
"44444444444444444444",
"44444444444444444444",
"33333333333333333333",
"33333333333333333333"
};
