/* XPM */
static char *hide_pressed[] = {
/* columns rows colors chars-per-pixel */
"20 22 28 1 ",
"  c #1C581C581C58",
". c #217721772177",
"X c #25CB25CB25CB",
"o c #496549654965",
"O c #4A684A684A68",
"+ c #4DEF4DEF4DEF",
"@ c #4F864F864F86",
"# c #50B550B550B5",
"$ c #511A511A511A",
"% c #524B524B524B",
"& c #531B531B531B",
"* c #551855185518",
"= c #569D569D569D",
"- c #577A577A577A",
"; c gray38",
": c #626262626262",
"> c gray39",
", c #646464646464",
"< c #656565656565",
"1 c gray40",
"2 c #676767676767",
"3 c #686868686868",
"4 c DimGray",
"5 c #C3C3C3C3C3C3",
"6 c gray77",
"7 c #D0D0D0D0D0D0",
"8 c #DDDDDDDDDDDD",
"9 c gray100",
/* pixels */
";;;;;;;;;;;;;;;;;;;;",
"44444444444444444444",
"33333333333333333333",
"33333333333333333333",
"33333333333333333333",
"22222222222222222222",
"22222222222222222222",
"22222222222222222222",
"11111111111111111111",
"11111111111111111111",
"11111111111111111111",
"<<<<<<<<<<<<<<<<<<<<",
"<<<<%+&-****--&-<<<<",
"<<<<o9999999999@<<<<",
",,,,O9999999999%,,,,",
",,,,o8755666657#,,,,",
",,,,$ .XXXXXXX.=,,,,",
">>>>>>>>>>>>>>>>>>>>",
">>>>>>>>>>>>>>>>>>>>",
">>>>>>>>>>>>>>>>>>>>",
"::::::::::::::::::::",
"::::::::::::::::::::"
};
