/* XPM */
static char *maximize_prelight[] = {
/* columns rows colors chars-per-pixel */
"20 22 85 1 ",
"  c #275D275D275D",
". c #282528252825",
"X c #2D462D462D46",
"o c gray18",
"O c #325932593259",
"+ c #369136913691",
"@ c #404F404F404F",
"# c #44E944E944E9",
"$ c #487148714871",
"% c #492049204920",
"& c #4A1F4A1F4A1F",
"* c #4ACF4ACF4ACF",
"= c #4CBE4CBE4CBE",
"- c gray30",
"; c #4E804E804E80",
": c #4F6F4F6F4F6F",
"> c #514D514D514D",
", c #51D951D951D9",
"< c #542454245424",
"1 c #566E566E566E",
"2 c #5A4F5A4F5A4F",
"3 c #5B455B455B45",
"4 c gray37",
"5 c #5F545F545F54",
"6 c #602960296029",
"7 c #615B615B615B",
"8 c #626362636263",
"9 c #635F635F635F",
"0 c #646564656465",
"q c #656565656565",
"w c #666766676667",
"e c #676767676767",
"r c #686A686A686A",
"t c #696669666966",
"y c #6AE86AE86AE8",
"u c #6CF46CF46CF4",
"i c #732473247324",
"p c #77DB77DB77DB",
"a c #7E457E457E45",
"s c #825882588258",
"d c #8E6D8E6D8E6D",
"f c #924492449244",
"g c #9A4B9A4B9A4B",
"h c #A1E9A1E9A1E9",
"j c #A334A334A334",
"k c #A86DA86DA86D",
"l c #AA04AA04AA04",
"z c #AED8AED8AED8",
"x c #B4B4B4B4B4B4",
"c c #B7B7B7B7B7B7",
"v c #BE36BE36BE36",
"b c #C1C1C1C1C1C1",
"n c #C3C3C3C3C3C3",
"m c gray77",
"M c #C5DCC5DCC5DC",
"N c #C6F2C6F2C6F2",
"B c #C7E3C7E3C7E3",
"V c #C8C8C8C8C8C8",
"C c gray79",
"Z c #CACACACACACA",
"A c #CBA8CBA8CBA8",
"S c gray80",
"D c #CDCDCDCDCDCD",
"F c #CECECECECECE",
"G c gray81",
"H c #D2D2D2D2D2D2",
"J c #D40CD40CD40C",
"K c #D5D5D5D5D5D5",
"L c #D7D7D7D7D7D7",
"P c #D8D8D8D8D8D8",
"I c gray87",
"U c #DFD3DFD3DFD3",
"Y c gray89",
"T c gray90",
"R c #E7E7E7E7E7E7",
"E c #EAEAEAEAEAEA",
"W c gray92",
"Q c gray95",
"! c #F3F3F3F3F3F3",
"~ c gray96",
"^ c #F8DDF8DDF8DD",
"/ c #F9F9F9F9F9F9",
"( c gray98",
") c #FDFDFDFDFDFD",
"_ c gray100",
/* pixels */
"77777777777777777777",
"tttttttttttttttttttt",
"rrrrrrrrrrrrrrrrrrrr",
"rrrrrrrrrrrrrrr9415r",
"rrrrrrrrrrw<:pkJ^_<r",
"eeeeeeeeee7u___~Qv3e",
"eeeeeeeeeee-$PPKLd9e",
"eeeeeeeeee;yhJFDHiee",
"wwwwwwwww*__TDSAG3ww",
"wwwwwwwwww_SBb4>V%ww",
"ww62www:wwwcxO%$#>ww",
"qq=j12aU_qqqO8qq;9qq",
"q03_lN_/()qqqqqqqqqq",
"q6sR!WIIY qqqqqqqqqq",
"03gPFAB8X00000000000",
"01zDmMAw-00000000000",
"0>MCnmZEt50000000000",
"9&Nfr&o @99999999999",
"9>.+#,69999999999999",
"99999999999999999999",
"88888888888888888888",
"88888888888888888888"
};
