/* XPM */
static char *maximize_pressed[] = {
/* columns rows colors chars-per-pixel */
"20 22 82 1 ",
"  c #235723572357",
". c #23C923C923C9",
"X c #25BF25BF25BF",
"o c #310F310F310F",
"O c #37BC37BC37BC",
"+ c #3D6F3D6F3D6F",
"@ c #3EC03EC03EC0",
"# c #3FE93FE93FE9",
"$ c #438443844384",
"% c #466046604660",
"& c #48AF48AF48AF",
"* c #4A0E4A0E4A0E",
"= c #4B394B394B39",
"- c #4C074C074C07",
"; c #4D804D804D80",
": c #4F214F214F21",
"> c #506950695069",
", c #52B952B952B9",
"< c #531253125312",
"1 c #541854185418",
"2 c #556E556E556E",
"3 c #55E755E755E7",
"4 c #573657365736",
"5 c #5A565A565A56",
"6 c #5B135B135B13",
"7 c #5BF55BF55BF5",
"8 c #5D5A5D5A5D5A",
"9 c #5E7C5E7C5E7C",
"0 c #616461646164",
"q c #626262626262",
"w c #635F635F635F",
"e c #646464646464",
"r c #656565656565",
"t c #666966696669",
"y c #676867686768",
"u c #686868686868",
"i c #696E696E696E",
"p c #6A2B6A2B6A2B",
"a c #6F9C6F9C6F9C",
"s c #724572457245",
"d c #790A790A790A",
"f c #7CC37CC37CC3",
"g c #814081408140",
"h c #8BF28BF28BF2",
"j c #8F1F8F1F8F1F",
"k c #A2CEA2CEA2CE",
"l c #A554A554A554",
"z c #A92EA92EA92E",
"x c #B7E4B7E4B7E4",
"c c #BA88BA88BA88",
"v c #C1C1C1C1C1C1",
"b c #C535C535C535",
"n c #C5C5C5C5C5C5",
"m c #C6C6C6C6C6C6",
"M c gray78",
"N c #C8C8C8C8C8C8",
"B c #CDCDCDCDCDCD",
"V c gray81",
"C c #D0D0D0D0D0D0",
"Z c #D2D2D2D2D2D2",
"A c #D403D403D403",
"S c gray83",
"D c gray84",
"F c #D8D8D8D8D8D8",
"G c gray85",
"H c #DAECDAECDAEC",
"J c gainsboro",
"K c #DDDDDDDDDDDD",
"L c gray87",
"P c #DFDFDFDFDFDF",
"I c gray88",
"U c gray89",
"Y c gray90",
"T c #E7E7E7E7E7E7",
"R c gray91",
"E c #E9E9E9E9E9E9",
"W c #EBC9EBC9EBC9",
"Q c #F505F505F505",
"! c gray96",
"~ c #F9F9F9F9F9F9",
"^ c #FDFDFDFDFDFD",
"/ c gray100",
/* pixels */
"00000000000000000000",
"iiiiiiiiiiiiiiiiiiii",
"uuuuuuuuuuuuuuuuuuuu",
"uuuuuuuuuuuuuuuuu8tu",
"uuuuuuuuuuy1>fxW//4u",
"yyyyyyyyyy0d/////Awy",
"yyyyyyyyyyy>+IHSFjyy",
"yyyyyyyyyy>pkFCBGsyy",
"ttttttttt%//~GFDP6tt",
"tttttttttt/UFV6-K&tt",
"ttq7ttt,tttMvX;-#<tt",
"rr-c60gQ/rrrorrr:rrr",
"rr6/xH////rrrrrrrrrr",
"rwh^/!REQ.rrrrrrrrrr",
"e9zYVNn3oeeeeeeeeeee",
"e5bGmNZ02eeeeeeeeeee",
"e1TJVZL/aqeeeeeeeeee",
"w*Uli$  @wwwwwwwwwww",
"w< O=5wwwwwwwwwwwwww",
"wwwwwwwwwwwwwwwwwwww",
"qqqqqqqqqqqqqqqqqqqq",
"qqqqqqqqqqqqqqqqqqqq"
};
