/* XPM */
static char *maximize_inactive[] = {
/* columns rows colors chars-per-pixel */
"20 22 80 1 ",
"  c #279627962796",
". c #2A1F2A1F2A1F",
"X c #2C182C182C18",
"o c #341734173417",
"O c #35C935C935C9",
"+ c #387B387B387B",
"@ c #3DE93DE93DE9",
"# c #406740674067",
"$ c #417A417A417A",
"% c #447844784478",
"& c gray27",
"* c #46DD46DD46DD",
"= c #4A354A354A35",
"- c #4B074B074B07",
"; c #4C4C4C4C4C4C",
": c #4D5F4D5F4D5F",
"> c #4E344E344E34",
", c #4F844F844F84",
"< c #505950595059",
"1 c #523F523F523F",
"2 c #545254525452",
"3 c #559255925592",
"4 c #574E574E574E",
"5 c #586358635863",
"6 c #595859585958",
"7 c #5A7C5A7C5A7C",
"8 c #5B845B845B84",
"9 c #5D795D795D79",
"0 c #5EC55EC55EC5",
"q c #5F5E5F5E5F5E",
"w c #609660966096",
"e c #616261626162",
"r c #626162616261",
"t c gray39",
"y c #646864686468",
"u c #656365636563",
"i c #666266626662",
"p c #676767676767",
"a c #686668666866",
"s c DimGray",
"d c #6E646E646E64",
"f c #6F9D6F9D6F9D",
"g c #7B9C7B9C7B9C",
"h c #7E767E767E76",
"j c #82E082E082E0",
"k c #8A0F8A0F8A0F",
"l c #8C3D8C3D8C3D",
"z c #8DF68DF68DF6",
"x c #8E3D8E3D8E3D",
"c c #8F668F668F66",
"v c #908790879087",
"b c #94A394A394A3",
"n c #96FA96FA96FA",
"m c #9B8C9B8C9B8C",
"M c #9CF79CF79CF7",
"N c #9F9F9F9F9F9F",
"B c #A37BA37BA37B",
"V c #A7A7A7A7A7A7",
"C c gray66",
"Z c #AA90AA90AA90",
"A c #AE81AE81AE81",
"S c #B1B1B1B1B1B1",
"D c #B37DB37DB37D",
"F c #B674B674B674",
"G c #B9B9B9B9B9B9",
"H c #BBBBBBBBBBBB",
"J c #BCBCBCBCBCBC",
"K c #C2FDC2FDC2FD",
"L c #C5C5C5C5C5C5",
"P c #C647C647C647",
"I c gray78",
"U c gray79",
"Y c #CBBFCBBFCBBF",
"T c gray80",
"R c #CDCDCDCDCDCD",
"E c #CF50CF50CF50",
"W c #D0D0D0D0D0D0",
"Q c #D164D164D164",
"! c #D3F4D3F4D3F4",
"~ c #D5D5D5D5D5D5",
/* pixels */
"eeeeeeeeeeeeeeeeeeee",
"ssssssssssssssssssss",
"aaaaaaaaaaaaaaaaaaaa",
"aaaaaaaaaaaaayq73<5a",
"aaaaaaaaaai2>alZKK<a",
"ppppppppppw5E~WRUn2p",
"ppppppppppu=#FHHHg6p",
"pppppppppp:elDSSSy9p",
"iiiiiiiii;PYGCVVV<ei",
"iiiiiiiiiiINNm<%M%ui",
"ii06yii;iiicxX&&+,ii",
"uu:j12fSYuuuo8uy:quu",
"ur1QzB!TILuuuuuuuuuu",
"u9dHYIJHH.uuuuuuuuuu",
"y5hSSSA8.yyyyyyyyyyy",
"y2kVVVZ6*0yyyyyyyyyy",
"y,bNNNND69yyyyyyyyyy",
"t-vd2@ .$wtttttttttt",
"t<XO#-4etttttttttttt",
"tttttttttttttttttttt",
"rrrrrrrrrrrrrrrrrrrr",
"rrrrrrrrrrrrrrrrrrrr"
};
