/* XPM */
static char *menu_inactive[] = {
/* columns rows colors chars-per-pixel */
"20 22 30 1 ",
"  c #53ED53ED53ED",
". c #5A265A265A26",
"X c #5AF45AF45AF4",
"o c gray38",
"O c #626262626262",
"+ c gray39",
"@ c #646464646464",
"# c #656565656565",
"$ c gray40",
"% c #676867686768",
"& c #686A686A686A",
"* c DimGray",
"= c #6ADA6ADA6ADA",
"- c #6F186F186F18",
"; c #718571857185",
": c #7A9D7A9D7A9D",
"> c #7C6F7C6F7C6F",
", c #8E048E048E04",
"< c #947F947F947F",
"1 c #966296629662",
"2 c #976397639763",
"3 c #993299329932",
"4 c #9AB49AB49AB4",
"5 c #9C029C029C02",
"6 c #9C9B9C9B9C9B",
"7 c #9E379E379E37",
"8 c #A1D4A1D4A1D4",
"9 c #A47CA47CA47C",
"0 c #A794A794A794",
"q c #A85AA85AA85A",
/* pixels */
"oooooooooooooooooooo",
"********************",
"&&&&&&&&&&&&&&&&&&&&",
"&&&&&&&&&&&&&&&&&&&&",
"&&&&&&&&&&&&&&&&&&&&",
"%%%%%%%%%%%%%%%%%%%%",
"%%%%%%%%%%%%%%%%%%%%",
"%%%%%%%%%%%%%%%%%%%%",
"$$$$$$.      X$$$$$$",
"$$$$$$14<<<<6<$$$$$$",
"$$$$$$&832257%$$$$$$",
"#######-0469=#######",
"########>0q;########",
"#########,:#########",
"@@@@@@@@@@@@@@@@@@@@",
"@@@@@@@@@@@@@@@@@@@@",
"@@@@@@@@@@@@@@@@@@@@",
"++++++++++++++++++++",
"++++++++++++++++++++",
"++++++++++++++++++++",
"OOOOOOOOOOOOOOOOOOOO",
"OOOOOOOOOOOOOOOOOOOO"
};
