/* XPM */
static char *shade_active[] = {
/* columns rows colors chars-per-pixel */
"20 22 17 1 ",
"  c #2A2A2A2A2A2A",
". c #4C914C914C91",
"X c #4D734D734D73",
"o c #4E344E344E34",
"O c #538653865386",
"+ c #552A552A552A",
"@ c gray38",
"# c #626262626262",
"$ c gray39",
"% c #646464646464",
"& c #656565656565",
"* c #666B666B666B",
"= c #676767676767",
"- c #686868686868",
"; c DimGray",
": c #ACACACACACAC",
"> c gray88",
/* pixels */
"@@@@@@@@@@@@@@@@@@@@",
";;;;;;;;;;;;;;;;;;;;",
"--------------------",
"--------------------",
"----+ooo....ooo+----",
"===*X>>>>>>>>>>X*===",
"===*X>>>>>>>>>>X*===",
"===*X::::::::::X*===",
"****O          O****",
"********************",
"********************",
"&&&&&&&&&&&&&&&&&&&&",
"&&&&&&&&&&&&&&&&&&&&",
"&&&&&&&&&&&&&&&&&&&&",
"%%%%%%%%%%%%%%%%%%%%",
"%%%%%%%%%%%%%%%%%%%%",
"%%%%%%%%%%%%%%%%%%%%",
"$$$$$$$$$$$$$$$$$$$$",
"$$$$$$$$$$$$$$$$$$$$",
"$$$$$$$$$$$$$$$$$$$$",
"####################",
"####################"
};
