/* XPM */
static char *shade_prelight[] = {
/* columns rows colors chars-per-pixel */
"20 22 27 1 ",
"  c gray14",
". c #268D268D268D",
"X c #288F288F288F",
"o c #4C704C704C70",
"O c #4D0B4D0B4D0B",
"+ c #4F0C4F0C4F0C",
"@ c #4FE24FE24FE2",
"# c #516C516C516C",
"$ c #536D536D536D",
"% c #54C154C154C1",
"& c #55EF55EF55EF",
"* c #579F579F579F",
"= c gray38",
"- c #626262626262",
"; c gray39",
": c #646464646464",
"> c #656565656565",
", c gray40",
"< c #676767676767",
"1 c #686868686868",
"2 c DimGray",
"3 c gray72",
"4 c gray74",
"5 c #C3C3C3C3C3C3",
"6 c #F9F9F9F9F9F9",
"7 c #FEFEFEFEFEFE",
"8 c gray100",
/* pixels */
"====================",
"22222222222222222222",
"11111111111111111111",
"11111111111111111111",
"1111%+#$####$$#*1111",
"<<<<o8766666667+<<<<",
"<<<<O8766666667#<<<<",
"<<<<o5433333334@<<<<",
",,,,$ .XXXXXXX.&,,,,",
",,,,,,,,,,,,,,,,,,,,",
",,,,,,,,,,,,,,,,,,,,",
">>>>>>>>>>>>>>>>>>>>",
">>>>>>>>>>>>>>>>>>>>",
">>>>>>>>>>>>>>>>>>>>",
"::::::::::::::::::::",
"::::::::::::::::::::",
"::::::::::::::::::::",
";;;;;;;;;;;;;;;;;;;;",
";;;;;;;;;;;;;;;;;;;;",
";;;;;;;;;;;;;;;;;;;;",
"--------------------",
"--------------------"
};
