/* XPM */
static char *stick_active[] = {
/* columns rows colors chars-per-pixel */
"20 22 84 1 ",
"  c #2C582C582C58",
". c #2DC72DC72DC7",
"X c #316F316F316F",
"o c #330F330F330F",
"O c #376A376A376A",
"+ c #38A238A238A2",
"@ c #3A193A193A19",
"# c gray26",
"$ c #434F434F434F",
"% c #475347534753",
"& c #485348534853",
"* c #48FD48FD48FD",
"= c #4C004C004C00",
"- c #4D184D184D18",
"; c #4E554E554E55",
": c #4F2E4F2E4F2E",
"> c #4FE34FE34FE3",
", c #511E511E511E",
"< c #527252725272",
"1 c #531B531B531B",
"2 c #548154815481",
"3 c #565156515651",
"4 c #57E057E057E0",
"5 c #59FE59FE59FE",
"6 c #5B1A5B1A5B1A",
"7 c #5CA15CA15CA1",
"8 c #5E725E725E72",
"9 c #5F7D5F7D5F7D",
"0 c #609960996099",
"q c #616661666166",
"w c #626362636263",
"e c #636263626362",
"r c #646364636463",
"t c #656265626562",
"y c #666966696669",
"u c #676A676A676A",
"i c #686868686868",
"p c #696469646964",
"a c #6B2F6B2F6B2F",
"s c #6DC86DC86DC8",
"d c #71BA71BA71BA",
"f c #722F722F722F",
"g c #7BBE7BBE7BBE",
"h c #7CD97CD97CD9",
"j c #844E844E844E",
"k c #8C1C8C1C8C1C",
"l c #8ED08ED08ED0",
"z c #92ED92ED92ED",
"x c #9A7C9A7C9A7C",
"c c #9DBB9DBB9DBB",
"v c #9EAE9EAE9EAE",
"b c #A71EA71EA71E",
"n c #A7CEA7CEA7CE",
"m c #A862A862A862",
"M c #AA1DAA1DAA1D",
"N c #AC56AC56AC56",
"B c #B418B418B418",
"V c #B5BBB5BBB5BB",
"C c #B7B2B7B2B7B2",
"Z c gray72",
"A c #B9B9B9B9B9B9",
"S c #BD3ABD3ABD3A",
"D c #C1C1C1C1C1C1",
"F c #C2D9C2D9C2D9",
"G c #C6D0C6D0C6D0",
"H c #CBD3CBD3CBD3",
"J c #CF1DCF1DCF1D",
"K c LightGray",
"L c gray83",
"P c #D5D5D5D5D5D5",
"I c #D8EBD8EBD8EB",
"U c #DB02DB02DB02",
"Y c gray87",
"T c #DF63DF63DF63",
"R c #E1E1E1E1E1E1",
"E c #E2EEE2EEE2EE",
"W c gray89",
"Q c #E4E4E4E4E4E4",
"! c gray90",
"~ c #E6E6E6E6E6E6",
"^ c #E8C1E8C1E8C1",
"/ c #EB29EB29EB29",
"( c #ECE1ECE1ECE1",
") c #EEEEEEEEEEEE",
/* pixels */
"qqqqqqqqqqqqqqqqqqqq",
"pppppppppppppppppppp",
"iiiiiiiiiiii06yii>ii",
"iiiiiiiiiiii>z23hGEi",
"iiiiiiiiiiit7/vC(!RY",
"uuuuuuuuuuu9gLQRPLLX",
"uuuuuuuuuuu6lHHHGsXu",
"uuuuuuuuuuu3cDDDFa*q",
"yyyyyyyyyyy,MZZZAHt8",
"yyyyyyyyyyy-nju:+ $e",
"yyyyyyyyyyy<.O#-5ryy",
"tttttq741;3ttttttttt",
"tte<:dxSIU;ttttttttt",
"tt8r^)/~WN<ttttttttt",
"rrw&>JLLLk3rrrrrrrrr",
"rr-pvHHHHf6rrrrrrrrr",
"r-TQKFDDD69rrrrrrrrr",
"eeRZZB02V&weeeeeeeee",
"eeemb@$$%-eeeeeeeeee",
"eeeeo5ew=8eeeeeeeeee",
"wwwwwwwwwwwwwwwwwwww",
"wwwwwwwwwwwwwwwwwwww"
};
