/* XPM */
static char *close_prelight[] = {
/* columns rows colors chars-per-pixel */
"20 22 82 1 ",
"  c #41F90F6B0ABD",
". c #565603030101",
"X c #575704040202",
"o c #62D302B3027C",
"O c #63D303B3027C",
"+ c #64B90E690994",
"@ c #6FD90E570A71",
"# c #7FD206B10479",
"$ c #723F0E9709F9",
"% c #75B33AD72932",
"& c #919109090505",
"* c #9A9A09090606",
"= c #9B9B0A0A0606",
"- c #9E9E09090707",
"; c #9F9F09090707",
": c #838314140B0B",
"> c #894313BE0EE5",
", c #9F9F12120909",
"< c #9F9F13130A0A",
"1 c #A5A50B0B0707",
"2 c #A6A60B0B0808",
"3 c #AAAA0B0B0909",
"4 c #ABAB0B0B0909",
"5 c #ACAC0B0B0909",
"6 c #ADAD0B0B0909",
"7 c #AEAE0B0B0909",
"8 c #AFAF0B0B0909",
"9 c #ACAC0C0C0A0A",
"0 c #AEAE0C0C0A0A",
"q c #BABA0D0D0909",
"w c #BBBB0D0D0909",
"e c #BBBB0D0D0A0A",
"r c #BBBB0E0E0A0A",
"t c #B8B819190909",
"y c #B8B819190A0A",
"u c #85EF3BCC2CDB",
"i c #88773B2A2C71",
"p c #B7B73C3C3232",
"a c #B7B73D3D3232",
"s c #CDCD28281818",
"d c #CECE29291818",
"f c #95E14CCA3D89",
"g c #A5A541413737",
"h c #DFDF46463A3A",
"j c #E3E349493D3D",
"k c #E3E34A4A3D3D",
"l c #E4E44A4A3E3E",
"z c #A08B570E4B27",
"x c #9459616843DB",
"c c #D6D65D5D5151",
"v c #DEDE62625858",
"b c #DEDE63635858",
"n c #A58781A45A50",
"m c #A8B782585A11",
"M c #A9CD82585A11",
"N c #B6158E147DD1",
"B c #CFCFADAD7575",
"V c #CFCFAEAE7575",
"C c #CFCFAEAE7676",
"Z c #D0D0AEAE7777",
"A c #D0D0AFAF7777",
"S c #D0FFAF007800",
"D c #D0D8AFBC7864",
"F c #D1D1B0B07878",
"G c #D1D1B0B07979",
"H c #D2D2B1B17A7A",
"J c #D2D2B2B27B7B",
"K c #D3D3B2B27C7C",
"L c #D3D3B3B37D7D",
"P c #D4D4B3B37D7D",
"I c #D4D4B4B47E7E",
"U c #D5D5B4B47F7F",
"Y c #D5D5B5B58080",
"T c #C344A83391EF",
"R c #C3F6AAAA925F",
"E c #CDB6B770AAA7",
"W c #CDB6B837AB6E",
"Q c #E091CA15A5B4",
"! c #E091CABEA65D",
"~ c #E704D57AB7B7",
"^ c #ED56E0C1CC66",
"/ c #F561F028E7B7",
/* pixels */
"YYYYYYYYYYYYYYYYYYYY",
"YYYYYYYYYYYYYYYYYYYY",
"UUUUUUUUUUUUUUUUUUUU",
"IIIIIIIIIIIIIIIIIIII",
"IIIIIIIIIIIIIIIIIIII",
"PPPPPPPPPPPPPPPPPPPP",
"LLLLLLLLLLLLLLLLLLLL",
"KKKKKKn%  %nKKKKKKKK",
"KKKKKx.:gg:XxKKKKKKK",
"JJJJMopcbvcaOmJJJJJJ",
"HHHHi,hlkjjh<uHHHHHH",
"HHHH+ydddddst+HHHHHH",
"GGGG@8wrqwwe7$GGGGGG",
"GGGGf*666006=fGGGGGG",
"FFFFT#354493#RFFFFFF",
"DDDD!N&-12;&N!DDDDDD",
"AAAAD~Ez>>zW~DAAAAAA",
"ZZZZZSQ^//^QSZZZZZZZ",
"CCCCCCCCCCCCCCCCCCCC",
"VVVVVVVVVVVVVVVVVVVV",
"BBBBBBBBBBBBBBBBBBBB",
"BBBBBBBBBBBBBBBBBBBB"
};
