/* XPM */
static char *close_pressed[] = {
/* columns rows colors chars-per-pixel */
"20 22 82 1 ",
"  c #41F90F6B0ABD",
". c #515102020202",
"X c #5BD303B3027C",
"o c #64B90E690A83",
"O c #64B90F580A83",
"+ c #7FD204B10379",
"@ c #7FD205B10479",
"# c #714F0DA709F9",
"$ c #70C80F450A71",
"% c #686813130D0D",
"& c #696914140D0D",
"* c #6F6F2A2A2323",
"= c #70702B2B2424",
"- c #75B33AD72932",
"; c #8F8F08080505",
": c #909008080505",
"> c #959509090707",
", c #969609090606",
"< c #9E9E09090707",
"1 c #828211110B0B",
"2 c #885913BE0EE5",
"3 c #894313BE0EE5",
"4 c #919113130505",
"5 c #A5A50B0B0808",
"6 c #A8A80B0B0808",
"7 c #AAAA0B0B0909",
"8 c #ABAB0B0B0909",
"9 c #ADAD0B0B0909",
"0 c #AEAE0C0C0A0A",
"q c #B2B20D0D0909",
"w c #B3B30D0D0909",
"e c #BABA0D0D0909",
"r c #BABA0D0D0A0A",
"t c #BBBB0E0E0A0A",
"y c #B3B321211515",
"u c #B4B422221515",
"i c #86862C2C2323",
"p c #86413B2A2C71",
"a c #85EF3BCC2CDB",
"s c #92923E3E3535",
"d c #A8A834342929",
"f c #A8A834342A2A",
"g c #BDBD3C3C3131",
"h c #C4C424241818",
"j c #C5C525251818",
"k c #CACA26261818",
"l c #9D9D43433C3C",
"z c #95E14CCA3D89",
"x c #99134CCA3D89",
"c c #C7C740403535",
"v c #C8C840403535",
"b c #A08B570E4B27",
"n c #9459616843DB",
"m c #A58781A45A50",
"M c #A8B782585A11",
"N c #A9CD82585A11",
"B c #B6158E147DD1",
"V c #CFCFADAD7575",
"C c #CFCFAEAE7575",
"Z c #CFCFAEAE7676",
"A c #D0D0AEAE7777",
"S c #D0D0AFAF7777",
"D c #D0FFAF007800",
"F c #D0D8AFBC7864",
"G c #D1D1B0B07878",
"H c #D1D1B0B07979",
"J c #D2D2B1B17A7A",
"K c #D2D2B2B27B7B",
"L c #D3D3B2B27C7C",
"P c #D3D3B3B37D7D",
"I c #D4D4B3B37D7D",
"U c #D4D4B4B47E7E",
"Y c #D5D5B4B47F7F",
"T c #D5D5B5B58080",
"R c #C344A83391EF",
"E c #C3F6AAAA925F",
"W c #CDB6B770AAA7",
"Q c #E091CA15A5B4",
"! c #E091CABEA65D",
"~ c #E704D57AB7B7",
"^ c #ED56E0C1CC66",
"/ c #F561F028E7B7",
/* pixels */
"TTTTTTTTTTTTTTTTTTTT",
"TTTTTTTTTTTTTTTTTTTT",
"YYYYYYYYYYYYYYYYYYYY",
"UUUUUUUUUUUUUUUUUUUU",
"UUUUUUUUUUUUUUUUUUUU",
"IIIIIIIIIIIIIIIIIIII",
"PPPPPPPPPPPPPPPPPPPP",
"LLLLLLm-  -mLLLLLLLL",
"LLLLLn.%=*&.nLLLLLLL",
"KKKKNXisllsiXMKKKKKK",
"JJJJp1dgcvgf1aJJJJJJ",
"JJJJo4ujkkhy4OJJJJJJ",
"HHHH$,qeterw>#HHHHHH",
"HHHHx:709007:zHHHHHH",
"GGGGR+688886@EGGGGGG",
"FFFF!B;<55<;B!FFFFFF",
"SSSSF~Wb23bW~FSSSSSS",
"AAAAADQ^//^QDAAAAAAA",
"ZZZZZZZZZZZZZZZZZZZZ",
"CCCCCCCCCCCCCCCCCCCC",
"VVVVVVVVVVVVVVVVVVVV",
"VVVVVVVVVVVVVVVVVVVV"
};
