/* XPM */
static char *close_active[] = {
/* columns rows colors chars-per-pixel */
"20 22 90 1 ",
"  c #16DD0F6B0ABD",
". c #343400000000",
"X c #353500000000",
"o c #44D301B3017C",
"O c #45D302B3017C",
"+ c #49AA0D7A0994",
"@ c #61DA0E570A71",
"# c #63410E9709F9",
"$ c #717104040303",
"% c #727204040202",
"& c #7FD209B10579",
"* c #5CA63A2A2885",
"= c #731D3D5F2EA6",
"- c #72E53DFF2F0E",
"; c #989809090606",
": c #8B1913BE0EE5",
"> c #999910100B0B",
", c #9B9B10100B0B",
"< c #AAAA1A1A1414",
"1 c #ABAB1B1B1414",
"2 c #B0B01D1D1B1B",
"3 c #B1B11F1F1B1B",
"4 c #9F9F37372E2E",
"5 c #9E9E38382F2F",
"6 c #B1B135352A2A",
"7 c #B2B235352A2A",
"8 c #C3C32A2A2020",
"9 c #C1C128282222",
"0 c #C2C229292323",
"q c #C4C42B2B2121",
"w c #C5C52E2E2121",
"e c #C0C02A2A2424",
"r c #CACA2C2C2020",
"t c #CACA2C2C2121",
"y c #CACA2C2C2222",
"u c #CACA2D2D2222",
"i c #C8C82C2C2525",
"p c #C8C82D2D2525",
"a c #C9C92D2D2525",
"s c #D6D63A3A2F2F",
"d c #D7D73A3A3030",
"f c #D7D73B3B3030",
"g c #D8D83A3A3030",
"h c #D8D83C3C3030",
"j c #91E24BFD40BB",
"k c #91E24CCA4188",
"l c #A1555D63517B",
"z c #8630616843DB",
"x c #E6E64C4C4141",
"c c #E6E64D4D4141",
"v c #E8E850504343",
"b c #E8E850504444",
"n c #E9E950504545",
"m c #EDED5A5A4E4E",
"M c #EEEE5C5C4F4F",
"N c #DDDD65655A5A",
"B c #DCDC66665B5B",
"V c #F8F867675B5B",
"C c #FCFC6B6B6060",
"Z c #E8E870706666",
"A c #E9E971716666",
"S c #9F7781A45A50",
"D c #A2BD83285A11",
"F c #B6158D517DD1",
"G c #B6158E147DD1",
"H c #CFCFADAD7575",
"J c #CFCFAEAE7575",
"K c #CFCFAEAE7676",
"L c #D0D0AEAE7777",
"P c #D0D0AFAF7777",
"I c #D0FFAF007800",
"U c #D0D8AFBC7864",
"Y c #D1D1B0B07878",
"T c #D1D1B0B07979",
"R c #D2D2B1B17A7A",
"E c #D2D2B2B27B7B",
"W c #D3D3B2B27C7C",
"Q c #D3D3B3B37D7D",
"! c #D4D4B3B37D7D",
"~ c #D4D4B4B47E7E",
"^ c #D5D5B4B47F7F",
"/ c #D5D5B5B58080",
"( c #C344A83391EF",
") c #C3F6A8DB925F",
"_ c #CDB6B837AB6E",
"` c #E091CA15A5B4",
"' c #E091CABEA65D",
"] c #E704D57AB7B7",
"[ c #ED56E0C1CC66",
"{ c #F561F028E7B7",
/* pixels */
"////////////////////",
"////////////////////",
"^^^^^^^^^^^^^^^^^^^^",
"~~~~~~~~~~~~~~~~~~~~",
"~~~~~~~~~~~~~~~~~~~~",
"!!!!!!!!!!!!!!!!!!!!",
"QQQQQQQQQQQQQQQQQQQQ",
"WWWWWWS*  *SWWWWWWWW",
"WWWWWz.%54$XzWWWWWWW",
"EEEEDO7NZAB6oDEEEEEE",
"RRRR=;mVCCVM;-RRRRRR",
"RRRR+wxnvbvcw+RRRRRR",
"TTTT@qhhsgfd8#TTTTTT",
"TTTTk<yyutry1jTTTTTT",
"YYYY(&9paii0&)YYYYYY",
"UUUU'G,2ee3>F'UUUUUU",
"PPPPU]_l::l_]UPPPPPP",
"LLLLLI`[{{[`ILLLLLLL",
"KKKKKKKKKKKKKKKKKKKK",
"JJJJJJJJJJJJJJJJJJJJ",
"HHHHHHHHHHHHHHHHHHHH",
"HHHHHHHHHHHHHHHHHHHH"
};
