/* XPM */
static char *hide_prelight[] = {
/* columns rows colors chars-per-pixel */
"20 22 83 1 ",
"  c #41F914010ABD",
". c #575722220303",
"X c #575723230303",
"o c #62D32BB3027C",
"O c #64B92D330A83",
"+ c #70C83A310A71",
"@ c #732E3AA10AE9",
"# c #7FD247B10579",
"$ c #7FD248B10579",
"% c #75B349BD2932",
"& c #894348F20EE5",
"* c #91914F4F0808",
"= c #838350500D0D",
"- c #9A9A53530909",
"; c #9A9A53530A0A",
": c #9F9F56560909",
"> c #9F9F57570A0A",
", c #9F9F5F5F0B0B",
"< c #9F9F5F5F0C0C",
"1 c #A6A65B5B0A0A",
"2 c #A7A75B5B0A0A",
"3 c #ABAB5D5D0B0B",
"4 c #AAAA5E5E0B0B",
"5 c #ACAC5D5D0B0B",
"6 c #ADAD5F5F0B0B",
"7 c #ABAB5E5E0C0C",
"8 c #AEAE5F5F0C0C",
"9 c #AFAF64640B0B",
"0 c #AFAF64640C0C",
"q c #BABA6C6C0D0D",
"w c #BBBB6D6D0D0D",
"e c #B8B86F6F0D0D",
"r c #BBBB6D6D0E0E",
"t c #85EF5C042CDB",
"y c #88775C4B2C71",
"u c #95E16FF43D89",
"i c #A5A577773838",
"p c #A6A677773838",
"a c #B7B77C7C3232",
"s c #94596E3243DB",
"d c #A08B79154B27",
"f c #A08B79154E51",
"g c #CDCD82821919",
"h c #CDCD82821A1A",
"j c #CECE82821A1A",
"k c #CECE83831A1A",
"l c #DFDF98983A3A",
"z c #E3E39B9B3D3D",
"x c #E4E49C9C3D3D",
"c c #E4E49C9C3E3E",
"v c #A58784665A50",
"b c #A8B7873B5A11",
"n c #A9CD873B5A11",
"m c #B6159D5A7DD1",
"M c #D6D69D9D5151",
"N c #DEDEA3A35656",
"B c #DEDEA3A35757",
"V c #CFCFADAD7575",
"C c #CFCFAEAE7575",
"Z c #CFCFAEAE7676",
"A c #D0D0AEAE7777",
"S c #D0D0AFAF7777",
"D c #D0FFAF007800",
"F c #D0D8AFBC7864",
"G c #D1D1B0B07878",
"H c #D1D1B0B07979",
"J c #D2D2B1B17A7A",
"K c #D2D2B2B27B7B",
"L c #D3D3B2B27C7C",
"P c #D3D3B3B37D7D",
"I c #D4D4B3B37D7D",
"U c #D4D4B4B47E7E",
"Y c #D5D5B4B47F7F",
"T c #B6159D5A801B",
"R c #D5D5B5B58080",
"E c #C344B01591EF",
"W c #C3F6B1E4925F",
"Q c #CCEFBF32AAA7",
"! c #E091CA15A5B4",
"~ c #E091CABEA65D",
"^ c #E704D57AB7B7",
"/ c #ED56E0C1CC66",
"( c #F561F028E7B7",
/* pixels */
"RRRRRRRRRRRRRRRRRRRR",
"RRRRRRRRRRRRRRRRRRRR",
"YYYYYYYYYYYYYYYYYYYY",
"UUUUUUUUUUUUUUUUUUUU",
"UUUUUUUUUUUUUUUUUUUU",
"IIIIIIIIIIIIIIIIIIII",
"PPPPPPPPPPPPPPPPPPPP",
"LLLLLLv%  %vLLLLLLLL",
"LLLLLs.=pi=XsLLLLLLL",
"KKKKnoaMBNMaobKKKKKK",
"JJJJy<lcxzcl,tJJJJJJ",
"JJJJOehjhgkheOJJJJJJ",
"HHHH+9wwqqwr0@HHHHHH",
"HHHHu;666688-uHHHHHH",
"GGGGE#735554$WGGGGGG",
"FFFF~m*>21:*T~FFFFFF",
"SSSSF^Qf&&dQ^FSSSSSS",
"AAAAAD!/((/!DAAAAAAA",
"ZZZZZZZZZZZZZZZZZZZZ",
"CCCCCCCCCCCCCCCCCCCC",
"VVVVVVVVVVVVVVVVVVVV",
"VVVVVVVVVVVVVVVVVVVV"
};
