/* XPM */
static char *hide_active[] = {
/* columns rows colors chars-per-pixel */
"20 22 100 2 ",
"   c #16DD0F6B0ABD",
".  c #333300000000",
"X  c #343400000000",
"o  c #44D305B3017C",
"O  c #45D306B3027C",
"+  c #49AA12240994",
"@  c #49AA13130994",
"#  c #6431206509F9",
"$  c #61DA28770A71",
"%  c #71713B3B0505",
"&  c #73733C3C0505",
"*  c #5CA63A2A2885",
"=  c #7FD252B10679",
"-  c #731D43FF2EA6",
";  c #72E546C82FC9",
":  c #8B194F5E0EE5",
">  c #8C04521F0EE5",
",  c #989857570909",
"<  c #989858580909",
"1  c #999958580A0A",
"2  c #9A9A59590A0A",
"3  c #AAAA66661212",
"4  c #ABAB67671313",
"5  c #B1B16B6B1B1B",
"6  c #B2B26D6D1C1C",
"7  c #9E9E6D6D2D2D",
"8  c #9E9E6F6F2D2D",
"9  c #91E267F63D89",
"0  c #B2B277772B2B",
"q  c #C1C17A7A1F1F",
"w  c #C1C179792121",
"e  c #C4C47D7D2323",
"r  c #C0C078782424",
"t  c #C0C079792424",
"y  c #C8C87F7F2424",
"u  c #C8C87F7F2525",
"i  c #C9C97F7F2626",
"p  c #871A616843DB",
"a  c #91E267F640BB",
"s  c #A1557B75517B",
"d  c #A1557C40517B",
"f  c #C5C580802121",
"g  c #C5C580802323",
"h  c #C9C980802222",
"j  c #C9C981812323",
"k  c #CACA80802222",
"l  c #CACA81812222",
"z  c #CACA81812424",
"x  c #CACA82822424",
"c  c #D6D68D8D2E2E",
"v  c #D7D78D8D2E2E",
"b  c #D6D68D8D2F2F",
"n  c #D7D78D8D3030",
"m  c #D7D78E8E3030",
"M  c #9F7781A45A50",
"N  c #A1A782585A11",
"B  c #A2BD83285A11",
"V  c #B6159E1E7DD1",
"C  c #E6E69E9E4141",
"Z  c #E7E79F9F4242",
"A  c #DDDDA4A45A5A",
"S  c #DCDCA5A55A5A",
"D  c #E9E9A1A14444",
"F  c #E9E9A1A14545",
"G  c #E9E9A3A34646",
"H  c #EAEAA2A24646",
"J  c #EEEEA8A84F4F",
"K  c #EEEEAAAA5050",
"L  c #F8F8B3B35B5B",
"P  c #F9F9B4B45B5B",
"I  c #FCFCB7B75F5F",
"U  c #CFCFADAD7575",
"Y  c #CFCFAEAE7575",
"T  c #CFCFAEAE7676",
"R  c #D0D0AEAE7777",
"E  c #D0D0AFAF7777",
"W  c #D0FFAF007800",
"Q  c #D0D8AFBC7864",
"!  c #D1D1B0B07878",
"~  c #D1D1B0B07979",
"^  c #D2D2B1B17A7A",
"/  c #D2D2B2B27B7B",
"(  c #D3D3B2B27C7C",
")  c #D3D3B3B37D7D",
"_  c #D4D4B3B37D7D",
"`  c #D4D4B4B47E7E",
"'  c #D5D5B4B47F7F",
"]  c #E8E8AEAE6565",
"[  c #E8E8AFAF6565",
"{  c #FCFCB8B86060",
"}  c #B6159E1E80DF",
"|  c #D5D5B5B58080",
" . c #C344AE4391EF",
".. c #C3F6ADAD925F",
"X. c #CDB6BF32AB6E",
"o. c #E091CA15A5B4",
"O. c #E091CABEA65D",
"+. c #E704D57AB7B7",
"@. c #ED56E0C1CC66",
"#. c #F561F028E7B7",
/* pixels */
"| | | | | | | | | | | | | | | | | | | | ",
"| | | | | | | | | | | | | | | | | | | | ",
"' ' ' ' ' ' ' ' ' ' ' ' ' ' ' ' ' ' ' ' ",
"` ` ` ` ` ` ` ` ` ` ` ` ` ` ` ` ` ` ` ` ",
"` ` ` ` ` ` ` ` ` ` ` ` ` ` ` ` ` ` ` ` ",
"_ _ _ _ _ _ _ _ _ _ _ _ _ _ _ _ _ _ _ _ ",
") ) ) ) ) ) ) ) ) ) ) ) ) ) ) ) ) ) ) ) ",
"( ( ( ( ( ( M *     * M ( ( ( ( ( ( ( ( ",
"( ( ( ( ( p X % 7 8 & . p ( ( ( ( ( ( ( ",
"/ / / / B o 0 S ] [ A 0 O N / / / / / / ",
"^ ^ ^ ^ - , K L { I P J < ; ^ ^ ^ ^ ^ ^ ",
"^ ^ ^ ^ + g C H G D F Z f @ ^ ^ ^ ^ ^ ^ ",
"~ ~ ~ ~ $ e v m c b m n q # ~ ~ ~ ~ ~ ~ ",
"~ ~ ~ ~ 9 4 k z h l x j 3 a ~ ~ ~ ~ ~ ~ ",
"! ! ! !  .= w i y u y w = ..! ! ! ! ! ! ",
"Q Q Q Q O.} 1 6 r t 5 2 V O.Q Q Q Q Q Q ",
"E E E E Q +.X.d : > s X.+.Q E E E E E E ",
"R R R R R W o.@.#.#.@.o.W R R R R R R R ",
"T T T T T T T T T T T T T T T T T T T T ",
"Y Y Y Y Y Y Y Y Y Y Y Y Y Y Y Y Y Y Y Y ",
"U U U U U U U U U U U U U U U U U U U U ",
"U U U U U U U U U U U U U U U U U U U U "
};
