/* XPM */
static char *hide_pressed[] = {
/* columns rows colors chars-per-pixel */
"20 22 88 1 ",
"  c #41F914010ABD",
". c #515122220202",
"X c #5BD329B3027C",
"o c #64B92D330A83",
"O c #70C83A310B60",
"+ c #723F3AA109F9",
"@ c #686840400C0C",
"# c #686840400D0D",
"$ c #7FD246B10579",
"% c #70704F4F2424",
"& c #75B349BD2932",
"* c #707050502424",
"= c #8F8F4D4D0707",
"- c #82824E4E0B0B",
"; c #885948F20EE5",
": c #894348F20EE5",
"> c #90904E4E0808",
", c #919155550808",
"< c #949454540808",
"1 c #969655550909",
"2 c #9F9F56560909",
"3 c #9F9F57570A0A",
"4 c #A6A65A5A0909",
"5 c #A7A75B5B0A0A",
"6 c #A8A85D5D0909",
"7 c #A8A85D5D0A0A",
"8 c #ABAB5D5D0B0B",
"9 c #ACAC5D5D0B0B",
"0 c #ADAD5F5F0B0B",
"q c #ABAB5D5D0C0C",
"w c #ACAC5D5D0C0C",
"e c #AEAE5F5F0C0C",
"r c #B3B367670D0D",
"t c #B3B368680D0D",
"y c #B9B96C6C0D0D",
"u c #BABA6C6C0D0D",
"i c #BABA6D6D0D0D",
"p c #BBBB6D6D0D0D",
"a c #B3B371711515",
"s c #B4B472721515",
"d c #86865B5B2424",
"f c #87875C5C2424",
"g c #85EF5C042CDB",
"h c #88775C4B2C71",
"j c #92926A6A3535",
"k c #92926B6B3535",
"l c #95E16FF43D89",
"z c #9D9D73733B3B",
"x c #9E9E73733C3C",
"c c #A8A871712929",
"v c #A8A871712A2A",
"b c #C4C47C7C1818",
"n c #94596E3243DB",
"m c #A08B79154B27",
"M c #BDBD81813131",
"N c #BEBE81813232",
"B c #CACA80801818",
"V c #C7C788883535",
"C c #C8C888883535",
"Z c #A58784665A50",
"A c #A8B7873B5A11",
"S c #A9CD873B5A11",
"D c #B6159D5A7DD1",
"F c #CFCFADAD7575",
"G c #CFCFAEAE7575",
"H c #CFCFAEAE7676",
"J c #D0D0AEAE7777",
"K c #D0D0AFAF7777",
"L c #D0FFAF007800",
"P c #D0D8AFBC7864",
"I c #D1D1B0B07878",
"U c #D1D1B0B07979",
"Y c #D2D2B1B17A7A",
"T c #D2D2B2B27B7B",
"R c #D3D3B2B27C7C",
"E c #D3D3B3B37D7D",
"W c #D4D4B3B37D7D",
"Q c #D4D4B4B47E7E",
"! c #D5D5B4B47F7F",
"~ c #D5D5B5B58080",
"^ c #C344B01591EF",
"/ c #C3F6B0B0925F",
"( c #CCEFBF32AAA7",
") c #E091CA15A5B4",
"_ c #E091CABEA65D",
"` c #E704D57AB7B7",
"' c #ED56E0C1CC66",
"] c #F561F028E7B7",
/* pixels */
"~~~~~~~~~~~~~~~~~~~~",
"~~~~~~~~~~~~~~~~~~~~",
"!!!!!!!!!!!!!!!!!!!!",
"QQQQQQQQQQQQQQQQQQQQ",
"QQQQQQQQQQQQQQQQQQQQ",
"WWWWWWWWWWWWWWWWWWWW",
"EEEEEEEEEEEEEEEEEEEE",
"RRRRRRZ&  &ZRRRRRRRR",
"RRRRRn.@*%#.nRRRRRRR",
"TTTTSXdjzxkfXATTTTTT",
"YYYYh-vMCVNc-gYYYYYY",
"YYYYo,abBBbs,oYYYYYY",
"UUUUO1rypuit<+UUUUUU",
"UUUUl>q0e00q>lUUUUUU",
"IIII^$68ww97$/IIIIII",
"PPPP_D=3542>D_PPPPPP",
"KKKKP`(m:;m(`PKKKKKK",
"JJJJJL)']]')LJJJJJJJ",
"HHHHHHHHHHHHHHHHHHHH",
"GGGGGGGGGGGGGGGGGGGG",
"FFFFFFFFFFFFFFFFFFFF",
"FFFFFFFFFFFFFFFFFFFF"
};
