/* XPM */
static char *maximize_pressed[] = {
/* columns rows colors chars-per-pixel */
"20 22 88 1 ",
"  c #141C3F1E0ABD",
". c #1B1B51510303",
"X c #1C1C51510303",
"o c #1FD35AB3027C",
"O c #2F8A62620A83",
"+ c #2F786E710B60",
"@ c #343468680D0D",
"# c #3ED27FB00679",
"$ c #30A870F90AE9",
"% c #4BCE7E260EE5",
"& c #42426F6F2424",
"* c #4FC86AEB2932",
"= c #4FC86C462932",
"- c #424270702424",
"; c #5FDB7CF82CDB",
": c #5FF97D6C2C71",
"> c #3F3F82820B0B",
", c #3F3F82820C0C",
"< c #42428F8F0808",
"1 c #43438F8F0909",
"2 c #44448E8E0808",
"3 c #44448F8F0808",
"4 c #45458F8F0808",
"5 c #454590900909",
"6 c #434394940808",
"7 c #444495950808",
"8 c #4C4C9E9E0A0A",
"9 c #4B4BA5A50A0A",
"0 c #4C4CA6A60A0A",
"q c #4F4FA7A70A0A",
"w c #4848A9A90B0B",
"e c #4848AAAA0C0C",
"r c #4C4CABAB0C0C",
"t c #4949ADAD0C0C",
"y c #4A4AADAD0C0C",
"u c #5151B1B10B0B",
"i c #5151B2B20C0C",
"p c #5555B9B90D0D",
"a c #5656B9B90D0D",
"s c #5656BABA0E0E",
"d c #5A5AB3B31515",
"f c #5A5AB3B31616",
"g c #4D4D86862424",
"h c #595991913434",
"j c #595992923434",
"k c #6EB88F1F3D89",
"l c #61619C9C3B3B",
"z c #61619D9D3B3B",
"x c #5C5CA7A72828",
"c c #6A6ABCBC3131",
"v c #6363C3C31919",
"b c #6363C4C41919",
"n c #6565C9C91A1A",
"m c #6666C9C91A1A",
"M c #7171C6C63535",
"N c #7171C7C73535",
"B c #7D0E816043DB",
"V c #7C249A514B27",
"C c #99AD8D7E5A50",
"Z c #9A818D7E5A50",
"A c #9A978F625A11",
"S c #9CC391485A11",
"D c #A239AE287DD1",
"F c #CFCFADAD7575",
"G c #CFCFAEAE7575",
"H c #CFCFAEAE7676",
"J c #D0D0AEAE7777",
"K c #D0D0AFAF7777",
"L c #D0FFAF007800",
"P c #D0D8AFBC7864",
"I c #D1D1B0B07878",
"U c #D1D1B0B07979",
"Y c #D2D2B1B17A7A",
"T c #D2D2B2B27B7B",
"R c #D3D3B2B27C7C",
"E c #D3D3B3B37D7D",
"W c #D4D4B3B37D7D",
"Q c #D4D4B4B47E7E",
"! c #D5D5B4B47F7F",
"~ c #BB62B4EE91EF",
"^ c #BAEDB4E7925F",
"/ c #D5D5B5B58080",
"( c #C3A1C62DAB6E",
") c #E091CA15A5B4",
"_ c #E091CABEA65D",
"` c #E704D57AB7B7",
"' c #ED56E0C1CC66",
"] c #F561F028E7B7",
/* pixels */
"////////////////////",
"////////////////////",
"!!!!!!!!!!!!!!!!!!!!",
"QQQQQQQQQQQQQQQQQQQQ",
"QQQQQQQQQQQQQQQQQQQQ",
"WWWWWWWWWWWWWWWWWWWW",
"EEEEEEEEEEEEEEEEEEEE",
"RRRRRRC=  *ZRRRRRRRR",
"RRRRRBX@-&@.BRRRRRRR",
"TTTTSoghlzjgoATTTTTT",
"YYYY:>xcNMcx,;YYYYYY",
"YYYYO5fbnmvd3OYYYYYY",
"UUUU+7uasspi6$UUUUUU",
"UUUUk1wtyyte<kUUUUUU",
"IIII~#qrrrrq#^IIIIII",
"PPPP_D289084D_PPPPPP",
"KKKKP`(V%%V(`PKKKKKK",
"JJJJJL)']]')LJJJJJJJ",
"HHHHHHHHHHHHHHHHHHHH",
"GGGGGGGGGGGGGGGGGGGG",
"FFFFFFFFFFFFFFFFFFFF",
"FFFFFFFFFFFFFFFFFFFF"
};
