/* XPM */
static char *maximize_inactive[] = {
/* columns rows colors chars-per-pixel */
"20 22 64 1 ",
"  c #22591F1A19C9",
". c gray20",
"X c gray23",
"o c #3CA03B113877",
"O c #4E87439E31C2",
"+ c #49AE48A446E8",
"@ c #628C5AA04D6A",
"# c #741463944895",
"$ c gray38",
"% c #646464646464",
"& c #66F1662A64D7",
"* c DimGray",
"= c #772873A66DCE",
"- c #777777777777",
"; c #7C7C7C7C7C7C",
": c #8C1C76EF5448",
"> c #91A67D3E5A2A",
", c #863183777ED6",
"< c #CFCFADAD7575",
"1 c #CFCFAEAE7575",
"2 c #CFCFAEAE7676",
"3 c #D0D0AEAE7777",
"4 c #D0D0AFAF7777",
"5 c #D0FFAF007800",
"6 c #D0D4AFB6786D",
"7 c #D1D1B0B07878",
"8 c #D1D1B0B07979",
"9 c #D2D2B1B17A7A",
"0 c #D2D2B2B27B7B",
"q c #D2FEB1FF7BFF",
"w c #D3D3B2B27C7C",
"e c #D3D3B3B37D7D",
"r c #D4D4B3B37D7D",
"t c #D4D4B4B47E7E",
"y c #D5D5B4B47F7F",
"u c gray53",
"i c #909090909090",
"p c gray60",
"a c #9A9A9A9A9A9A",
"s c #9B9B9B9B9B9B",
"d c gray61",
"f c gray62",
"g c #A2489E209732",
"h c #AEE1A45B9280",
"j c #A0A0A0A0A0A0",
"k c gray63",
"l c #A2A2A2A2A2A2",
"z c #BBC0B66CAD62",
"x c gray69",
"c c #B1B1B1B1B1B1",
"v c #D5D5B5B58080",
"b c #E091CA15A5B4",
"n c #E091CABEA65D",
"m c #E704D57AB7B7",
"M c #C1C1C1C1C1C1",
"N c gray77",
"B c #C5C5C5C5C5C5",
"V c gray79",
"C c #CACACACACACA",
"Z c #CDCDCDCDCDCD",
"A c gray83",
"S c #D8D8D8D8D8D8",
"D c #ED56E0C1CC66",
"F c #F561F028E7B7",
/* pixels */
"vvvvvvvvvvvvvvvvvvvv",
"vvvvvvvvvvvvvvvvvvvv",
"yyyyyyyyyyyyyyyyyyyy",
"tttttttttttttttttttt",
"tttttttttttttttttttt",
"rrrrrrrrrrrrrrrrrrrr",
"eeeeeeeeeeeeeeeeeeee",
"wwwwwq:O  O:qwwwwwww",
"wwwwq#.%ii%.#qwwwwww",
"0000>XsMZZMsX>000000",
"9999@-VASSAC-@999999",
"9999ojMNBNNMjo999999",
"8888+fxcxccxd+888888",
"8888=;lllkll;=888888",
"7777h$akklkp$h777777",
"6666ng*usau*gn666666",
"44446mz,&&,zm4444444",
"333335bDFFDb33333333",
"22222222222222222222",
"11111111111111111111",
"<<<<<<<<<<<<<<<<<<<<",
"<<<<<<<<<<<<<<<<<<<<"
};
