/* XPM */
static char *maximize_prelight[] = {
/* columns rows colors chars-per-pixel */
"20 22 83 1 ",
"  c #141C3F1E0ABD",
". c #1D1D56560303",
"X c #1FD362B3027C",
"o c #20D362B3027C",
"O c #2F8A62620A83",
"+ c #2F786E710B60",
"@ c #30A871E90AE9",
"# c #3FD27FB00679",
"$ c #40D27FB00779",
"% c #4BCE7E260EE5",
"& c #4FC86C462932",
"* c #5FDB7CF82CDB",
"= c #5FF97D6C2C71",
"- c #3F3F82820D0D",
"; c #4BCE84920EE5",
": c #46468F8F0808",
"> c #464699990A0A",
", c #4B4B9E9E0A0A",
"< c #4B4B9E9E0B0B",
"1 c #4C4C9F9F0A0A",
"2 c #4C4C9F9F0C0C",
"3 c #4B4BA5A50A0A",
"4 c #4B4BAAAA0B0B",
"5 c #4F4FA9A90B0B",
"6 c #4949ACAC0B0B",
"7 c #4B4BABAB0C0C",
"8 c #4C4CABAB0C0C",
"9 c #4949ACAC0C0C",
"0 c #4949ADAD0C0C",
"q c #4A4AADAD0C0C",
"w c #5050ADAD0B0B",
"e c #5050AAAA0C0C",
"r c #5151AEAE0C0C",
"t c #5959B7B70E0E",
"y c #5555BABA0D0D",
"u c #5656BABA0D0D",
"i c #5656BABA0E0E",
"p c #5959B8B80E0E",
"a c #6EB88F1F3D89",
"s c #6262A4A43737",
"d c #6363A5A53838",
"f c #6A6AB6B63232",
"g c #6A6AB6B63333",
"h c #6767CCCC1818",
"j c #6868CDCD1919",
"k c #7E7EDEDE3A3A",
"l c #7D0E816043DB",
"z c #7E849A514B27",
"x c #7E849A514E51",
"c c #8383E3E33E3E",
"v c #9A818D7E5A50",
"b c #9A978F625A11",
"n c #9CC390325A11",
"m c #A239AE287DD1",
"M c #CFCFADAD7575",
"N c #CFCFAEAE7575",
"B c #CFCFAEAE7676",
"V c #D0D0AEAE7777",
"C c #D0D0AFAF7777",
"Z c #D0FFAF007800",
"A c #D0D8AFBC7864",
"S c #D1D1B0B07878",
"D c #D1D1B0B07979",
"F c #D2D2B1B17A7A",
"G c #D2D2B2B27B7B",
"H c #D3D3B2B27C7C",
"J c #D3D3B3B37D7D",
"K c #D4D4B3B37D7D",
"L c #D4D4B4B47E7E",
"P c #D5D5B4B47F7F",
"I c #8484D5D55151",
"U c #8C8CDDDD5858",
"Y c #8D8DDDDD5858",
"T c #BB62B4EE91EF",
"R c #BC22B6B6925F",
"E c #D5D5B5B58080",
"W c #C3A1C62DAAA7",
"Q c #C3A1C62DAB6E",
"! c #E091CA15A5B4",
"~ c #E091CABEA65D",
"^ c #E704D57AB7B7",
"/ c #ED56E0C1CC66",
"( c #F561F028E7B7",
/* pixels */
"EEEEEEEEEEEEEEEEEEEE",
"EEEEEEEEEEEEEEEEEEEE",
"PPPPPPPPPPPPPPPPPPPP",
"LLLLLLLLLLLLLLLLLLLL",
"LLLLLLLLLLLLLLLLLLLL",
"KKKKKKKKKKKKKKKKKKKK",
"JJJJJJJJJJJJJJJJJJJJ",
"HHHHHHv&  &vHHHHHHHH",
"HHHHHl.-ds-.lHHHHHHH",
"GGGGnXfIUYIgobGGGGGG",
"FFFF=<kcccck2*FFFFFF",
"FFFFOthjjjjhpOFFFFFF",
"DDDD+ryyiiiuw@DDDDDD",
"DDDDa>q09066>aDDDDDD",
"SSSST#e84745$RSSSSSS",
"AAAA~m:,331:m~AAAAAA",
"CCCCA^Qx%;zW^ACCCCCC",
"VVVVVZ!/((/!ZVVVVVVV",
"BBBBBBBBBBBBBBBBBBBB",
"NNNNNNNNNNNNNNNNNNNN",
"MMMMMMMMMMMMMMMMMMMM",
"MMMMMMMMMMMMMMMMMMMM"
};
