/* XPM */
static char *menu_active[] = {
/* columns rows colors chars-per-pixel */
"20 22 41 1 ",
"  c #821B6E3A4DB4",
". c #9F0286745E46",
"X c #A2548941603A",
"o c #CFCFADAD7575",
"O c #CFCFAEAE7575",
"+ c #CFCFAEAE7676",
"@ c #D0D0AEAE7777",
"# c #D0D0AFAF7777",
"$ c #D0D0AFAF7878",
"% c #D1D1B0B07878",
"& c #D1D1B0B07979",
"* c #D2D2B1B17A7A",
"= c #D2D2B2B27B7B",
"- c #D3CFB2B17C79",
"; c #D3D4B3B17D7F",
": c #D4D4B3B37D7D",
"> c #D4D4B4B47E7E",
", c #D5D5B4B47F7F",
"< c #9E249A3D9386",
"1 c #A42BA024996D",
"2 c #AA03A5DB9EED",
"3 c #AB32A72BA074",
"4 c #AF81AB19A384",
"5 c #B009ABE1A4F3",
"6 c #B0AFAC45A4E8",
"7 c #B55AB0D1A906",
"8 c #D5D5B5B58080",
"9 c #D54DB5FE81CF",
"0 c #D740B95E8791",
"q c #D76EBA5489D3",
"w c #DBC7C1CB967D",
"e c #DCDDC3A999A7",
"r c #E503D1A8B164",
"t c #E722D6E2BAF3",
"y c #E731D7B2BD10",
"u c #D36DCE19C539",
"i c #DECFD767CB0F",
"p c #E7E7DAA7C491",
"a c #E68BDB3EC867",
"s c #E67CDC9CCC27",
"d c #E198DA30CDD9",
/* pixels */
"88888888888888888888",
"88888888888888888888",
",,,,,,,,,,,,,,,,,,,,",
">>>>>>>>>>>>>>>>>>>>",
">>>>>>>>>>>>>>>>>>>>",
"::::::::::::::::::::",
";;;;;;;;;;;;;;;;;;;;",
"--------------------",
"------.      X------",
"======y4<<<<7t======",
"******;a2116p-******",
"*******0i35s9*******",
"&&&&&&&&eudq&&&&&&&&",
"&&&&&&&&&rw&&&&&&&&&",
"%%%%%%%%%%%%%%%%%%%%",
"$$$$$$$$$$$$$$$$$$$$",
"####################",
"@@@@@@@@@@@@@@@@@@@@",
"++++++++++++++++++++",
"OOOOOOOOOOOOOOOOOOOO",
"oooooooooooooooooooo",
"oooooooooooooooooooo"
};
