/* XPM */
static const unsigned char * shade_prelight_xpm[] = {
"20 22 23 1",
" 	c None",
"!	c #D5B580",
"#	c #D5B47F",
"$	c #D4B47F",
"%	c #D4B47E",
"&	c #D4B37D",
"'	c #D3B37D",
"(	c #D3B27C",
")	c #D2B27B",
"*	c #4E4E4E",
"+	c #D2B17B",
",	c #454545",
"-	c #D2B17A",
".	c #343434",
"0	c #D1B079",
"1	c #E6D3B4",
"2	c #D1B078",
"3	c #D0AF78",
"4	c #D0AF77",
"5	c #D0AE77",
"6	c #CFAE76",
"7	c #CFAE75",
"8	c #CFAD75",
"!!!!!!!!!!!!!!!!!!!!",
"!!!!################",
"####$$$$$$$$$$$$$$$$",
"%%%%%%%%%%%%%%%%%%%%",
"%%%%&&&&&&&&&&&&&&&&",
"&&&&''''''''''''''''",
"''''((((((((((((((((",
"((((((((((((((((((((",
"(((())(((**((())))))",
"))))++))*,,*))++++++",
"------+*,**,*+------",
"------*.****.*------",
"000000111**111000000",
"002222000**000222220",
"223333222**222333332",
"333333333**333333333",
"44444433311333444444",
"55555555555555555555",
"66666666666666666666",
"77777777777777777777",
"88888888888888888888",
"88888888888888888888"};