/* XPM */
static const unsigned char * shade_active_xpm[] = {
"20 22 28 1",
" 	c None",
"!	c #D5B580",
"#	c #D5B47F",
"$	c #D4B47F",
"%	c #D4B47E",
"&	c #D4B37D",
"'	c #D3B37D",
"(	c #D3B27C",
")	c #D2B27B",
"*	c #5A5A5A",
"+	c #616161",
",	c #D2B17B",
"-	c #5F5F5F",
".	c #4E4E4E",
"0	c #D2B17A",
"1	c #454545",
"2	c #696969",
"3	c #343434",
"4	c #646464",
"5	c #D1B079",
"6	c #E6D3B4",
"7	c #D1B078",
"8	c #D0AF78",
"9	c #D0AF77",
":	c #D0AE77",
";	c #CFAE76",
"<	c #CFAE75",
"=	c #CFAD75",
"!!!!!!!!!!!!!!!!!!!!",
"!!!!################",
"####$$$$$$$$$$$$$$$$",
"%%%%%%%%%%%%%%%%%%%%",
"%%%%&&&&&&&&&&&&&&&&",
"&&&&''''''''''''''''",
"''''((((((((((((((((",
"((((((((((((((((((((",
"(((())(((*+((())))))",
")))),,))-..-)),,,,,,",
"000000,-1-212,000000",
"000000-3---43-000000",
"555555666--666555555",
"557777555--555777775",
"778888777--777888887",
"888888888--888888888",
"99999988866888999999",
"::::::::::::::::::::",
";;;;;;;;;;;;;;;;;;;;",
"<<<<<<<<<<<<<<<<<<<<",
"====================",
"===================="};