/* XPM */
static const unsigned char * shade_inactive_xpm[] = {
"20 22 29 1",
" 	c None",
"!	c #D5B580",
"#	c #D5B47F",
"$	c #D4B47F",
"%	c #D4B47E",
"&	c #D4B37D",
"'	c #D3B37D",
"(	c #D3B27C",
")	c #D2B27B",
"*	c #878787",
"+	c #8E8E8E",
",	c #D2B17B",
"-	c #848484",
".	c #7C7C7C",
"0	c #D2B17A",
"1	c #8C8C8C",
"2	c #727272",
"3	c #959595",
"4	c #5E5E5E",
"5	c #909090",
"6	c #D1B079",
"7	c #E6D3B4",
"8	c #D1B078",
"9	c #D0AF78",
":	c #D0AF77",
";	c #D0AE77",
"<	c #CFAE76",
"=	c #CFAE75",
">	c #CFAD75",
"!!!!!!!!!!!!!!!!!!!!",
"!!!!################",
"####$$$$$$$$$$$$$$$$",
"%%%%%%%%%%%%%%%%%%%%",
"%%%%&&&&&&&&&&&&&&&&",
"&&&&''''''''''''''''",
"''''((((((((((((((((",
"((((((((((((((((((((",
"(((())(((*+((())))))",
")))),,))-..+)),,,,,,",
"000000,121323,000000",
"00000014111545000000",
"66666677711777666666",
"66888866611666888886",
"88999988811888999998",
"99999999911999999999",
"::::::99977999::::::",
";;;;;;;;;;;;;;;;;;;;",
"<<<<<<<<<<<<<<<<<<<<",
"====================",
">>>>>>>>>>>>>>>>>>>>",
">>>>>>>>>>>>>>>>>>>>"};