/* XPM */
static char *stick_active[] = {
/* columns rows colors chars-per-pixel */
"20 22 94 2 ",
"   c #124614010ABD",
".  c #020235350000",
"X  c #020236360000",
"o  c #02D444B3017C",
"O  c #02D445B3017C",
"+  c #10BF47530A0C",
"@  c #22685F830A71",
"#  c #229A610B0AE9",
"$  c #292971710404",
"%  c #2B2B72720505",
"&  c #49D27FB00679",
"*  c #4AD27FB00679",
"=  c #44F251DD2885",
"-  c #44F253382885",
";  c #46F16A482F62",
":  c #47B169EE2FC9",
">  c #7377750B43DB",
",  c #4BCE89280EE5",
"<  c #434397970A0A",
"1  c #4F4F97970A0A",
"2  c #434398980A0A",
"3  c #4F4F98980A0A",
"4  c #5959A9A91212",
"5  c #5A5AAAAA1414",
"6  c #6161B0B01B1B",
"7  c #6161B0B01C1C",
"8  c #5A5A9D9D2D2D",
"9  c #5A5A9D9D2E2E",
"0  c #6A6ABFBF2121",
"q  c #6A6ABEBE2424",
"w  c #6B6BBFBF2424",
"e  c #6262B1B12A2A",
"r  c #6262B0B02B2B",
"t  c #6B6BC0C02121",
"y  c #6969C2C22020",
"u  c #6969C3C32020",
"i  c #6A6AC2C22020",
"p  c #6969C4C42020",
"a  c #6F6FC7C72424",
"s  c #6F6FC7C72525",
"d  c #6C6CC9C92222",
"f  c #6D6DC9C92222",
"g  c #6D6DC8C82323",
"h  c #6D6DC9C92323",
"j  c #6F6FC8C82626",
"k  c #7878D5D53030",
"l  c #7979D5D53030",
"z  c #7979D6D63030",
"x  c #7A7AD6D63030",
"c  c #6AB98B2040BB",
"v  c #69EC8B204188",
"b  c #99AD876E5A50",
"n  c #99C68B4F5A11",
"m  c #9A978B4F5AE2",
"M  c #80199A51517B",
"N  c #A2FDAE287DD1",
"B  c #CFCFADAD7575",
"V  c #CFCFAEAE7575",
"C  c #CFCFAEAE7676",
"Z  c #D0D0AEAE7777",
"A  c #D0D0AFAF7777",
"S  c #D0FFAF007800",
"D  c #D0D8AFBC7864",
"F  c #D1D1B0B07878",
"G  c #D1D1B0B07979",
"H  c #D2D2B1B17A7A",
"J  c #D2D2B2B27B7B",
"K  c #D3D3B2B27C7C",
"L  c #D3D3B3B37D7D",
"P  c #D4D4B3B37D7D",
"I  c #D4D4B4B47E7E",
"U  c #D5D5B4B47F7F",
"Y  c #8C8CDBDB5A5A",
"T  c #8686E5E54040",
"R  c #8888E7E74343",
"E  c #8888E7E74444",
"W  c #8A8AE8E84545",
"Q  c #8F8FEDED4F4F",
"!  c #9090EDED4F4F",
"~  c #9B9BF8F85B5B",
"^  c #9C9CF8F85B5B",
"/  c #9E9EFAFA5F5F",
"(  c #9999E8E86666",
")  c #9F9FFBFB6060",
"_  c #A2FDAE28801B",
"`  c #BB62B62591EF",
"'  c #BC22B6B6925F",
"]  c #D5D5B5B58080",
"[  c #C5F4C62DAB6E",
"{  c #E091CA15A5B4",
"}  c #E091CABEA65D",
"|  c #E704D57AB7B7",
" . c #ED56E0C1CC66",
".. c #F561F028E7B7",
/* pixels */
"] ] ] ] ] ] ] ] ] ] ] ] ] ] ] ] ] ] ] ] ",
"] ] ] ] ] ] ] ] ] ] ] ] ] ] ] ] ] ] ] ] ",
"U U U U U U U U U U U U U U U U U U U U ",
"I I I I I I I I I I I I I I I I I I I I ",
"I I I I I I I I I I I I I I I I I I I I ",
"P P P P P P P P P P P P P P P P P P P P ",
"L L L L L L L L L L L L L L L L L L L L ",
"K K K K K K b =     - b K K K K K K K K ",
"K K K K K > . % 8 9 $ X > K K K K K K K ",
"J J J J n o e Y ( ( Y r O m J J J J J J ",
"H H H H ; 2 Q ^ ) / ~ ! < : H H H H H H ",
"H H H H + u T E W E R T p + H H H H H H ",
"G G G G @ i k x l z z z y # G G G G G G ",
"G G G G v 5 h f g d f g 4 c G G G G G G ",
"F F F F ` & t s s j a 0 * ' F F F F F F ",
"D D D D } N 1 6 w q 7 3 _ } D D D D D D ",
"A A A A D | [ M , , M [ | D A A A A A A ",
"Z Z Z Z Z S {  ..... .{ S Z Z Z Z Z Z Z ",
"C C C C C C C C C C C C C C C C C C C C ",
"V V V V V V V V V V V V V V V V V V V V ",
"B B B B B B B B B B B B B B B B B B B B ",
"B B B B B B B B B B B B B B B B B B B B "
};
