/* XPM */
static const unsigned char * top_right_xpm[] = {
"4 22 21 1",
" 	c None",
"!	c #D6B681",
"#	c black",
"$	c #D5B580",
"%	c #D5B57F",
"&	c #D5B47F",
"'	c #D4B47E",
"(	c #D4B37D",
")	c #D3B37D",
"*	c #D3B27C",
"+	c #D3B27B",
",	c #D2B27B",
"-	c #D2B17A",
".	c #D1B079",
"0	c #D1B078",
"1	c #D0AF78",
"2	c #D0AF77",
"3	c #D0AE76",
"4	c #CFAE76",
"5	c #CFAE75",
"6	c #CFAD75",
"!!  ",
"$$$ ",
"%%%%",
"&&&&",
"''''",
"''''",
"((((",
"))))",
"****",
"++++",
",,,,",
"----",
"----",
"....",
"....",
"0000",
"1111",
"2222",
"3333",
"4444",
"5555",
"6666"};