/* XPM */
static const unsigned char * title_thin_xpm[] = {
"2 22 20 1",
" 	c None",
"!	c #D6B681",
"#	c #D5B580",
"$	c #D5B57F",
"%	c #D5B47F",
"&	c #D4B47E",
"'	c #D4B37D",
"(	c #D3B37D",
")	c #D3B27C",
"*	c #D3B27B",
"+	c #D2B27B",
",	c #D2B17A",
"-	c #D1B079",
".	c #D1B078",
"0	c #D0AF78",
"1	c #D0AF77",
"2	c #D0AE76",
"3	c #CFAE76",
"4	c #CFAE75",
"5	c #CFAD75",
"!!",
"##",
"$$",
"%%",
"&&",
"&&",
"''",
"((",
"))",
"**",
"++",
",,",
",,",
"--",
"--",
"..",
"00",
"11",
"22",
"33",
"44",
"55"};